<?xml version="1.0" encoding="UTF-8"?>
<svg xmlns="http://www.w3.org/2000/svg" xmlns:xlink="http://www.w3.org/1999/xlink" version="1.2" >
<font id="Jacksons">
<font-face  font-family="Jacksons" units-per-em="1000" ascent="750" descent="-250" font-style="normal" font-weight="400" font-stretch="normal" cap-height="700" x-height="500" underline-position="-75" underline-thickness="50" />
<missing-glyph  horiz-adv-x="201" d="" />
<glyph glyph-name="NULL" d="" />
<glyph glyph-name="CR" unicode="&#xd;" horiz-adv-x="201" d="" />
<glyph glyph-name="space" unicode="&#x20;" horiz-adv-x="201" d="" />
<glyph glyph-name="exclam" unicode="&#x21;" horiz-adv-x="269" d="M294 610 C292 609 291 608 290 607 C288 604 286 601 284 598 C272 581 261 564 250 547 C227 512 203 477 182 441 C145 374 107 308 70 241 C53 208 36 175 19 141 C15 134 12 125 9 117 C8 114 8 110 7 108 C8 102 11 99 15 98 C19 98 23 101 21 105 C20 109 20 111 22 114 C27 125 31 135 37 146 C69 207 103 266 138 326 C183 405 230 481 277 559 C284 572 292 585 299 598 C300 600 301 602 301 605 C301 609 298 611 294 610 L294 610 Z M-4 47 C-5 46 -7 44 -8 42 C-14 30 -19 17 -25 4 C-25 2 -26 -1 -26 -4 C-25 -4 -25 -6 -24 -7 C-21 -7 -21 -5 -20 -3 C-20 -1 -19 2 -18 4 C-11 17 -5 29 1 42 C2 44 3 46 1 47 C0 48 -2 49 -4 47 L-4 47 Z " />
<glyph glyph-name="quotedbl" unicode="&#x22;" horiz-adv-x="207" d="M238 559 C238 560 238 561 238 562 C233 565 230 565 226 562 C223 558 220 555 217 551 C197 519 176 486 156 454 C154 452 154 450 156 448 C157 447 159 447 161 449 C163 451 165 454 167 456 C189 488 210 519 232 551 C234 554 236 556 238 559 L238 559 Z M193 567 C192 567 190 566 188 565 C186 563 185 561 183 559 C163 529 144 498 124 468 C122 465 122 463 124 462 C126 460 128 461 130 463 C132 466 135 470 138 473 C153 493 168 514 182 534 C187 539 191 545 194 550 C196 553 198 556 199 560 C201 564 198 567 193 567 L193 567 Z " />
<glyph glyph-name="numbersign" unicode="&#x23;" horiz-adv-x="424" d="M150 344 C127 343 103 342 79 341 C62 340 45 339 28 339 C25 338 21 338 18 338 C15 337 13 335 12 333 C12 330 14 328 17 327 C19 326 20 326 23 326 C29 325 36 325 42 325 C73 325 104 326 135 327 C137 327 138 327 140 327 C130 308 119 290 109 272 C88 272 68 272 47 272 C42 272 36 272 31 272 C27 272 24 271 24 268 C24 266 25 265 29 264 C35 262 41 261 48 260 C64 259 80 259 96 258 C98 258 99 258 101 258 C100 256 99 254 98 253 C93 243 88 234 82 224 C62 187 43 151 26 113 C22 103 19 93 15 84 C14 80 14 76 14 73 C14 68 19 65 23 67 C26 68 28 70 30 72 C32 74 31 77 28 78 C27 78 26 78 24 79 C27 85 29 90 31 96 C43 124 58 151 73 178 C87 204 102 229 116 255 C118 257 119 259 122 259 C144 259 165 260 187 260 C188 260 189 260 190 260 C189 258 188 256 187 254 C167 220 146 185 126 150 C110 122 94 95 80 66 C78 60 75 53 73 47 C72 45 72 43 73 40 C74 37 78 36 80 38 C82 40 84 42 84 44 C84 47 85 50 86 53 C90 59 93 66 96 72 C118 109 140 147 162 183 C177 208 193 233 208 257 C210 260 211 261 214 261 C236 262 257 262 278 263 C282 263 285 263 289 261 C289 261 290 261 291 261 C293 261 294 262 295 264 C296 267 295 269 292 270 C289 271 285 272 281 272 C263 273 244 273 225 273 C223 273 221 273 219 273 C220 275 221 277 222 278 C232 295 243 311 254 327 C256 331 258 332 262 332 C285 331 308 331 331 331 C334 331 336 330 338 330 C339 328 340 325 341 324 C344 322 346 324 349 326 C349 326 350 327 350 328 C353 331 353 336 348 338 C346 339 343 341 340 341 C331 342 323 343 314 343 C300 344 285 344 271 344 C269 345 268 345 266 345 C267 347 268 348 269 349 C285 372 300 394 316 416 C321 423 327 429 332 436 C334 438 336 440 339 439 C341 439 342 440 343 441 C344 444 343 445 341 446 C339 447 336 448 333 447 C330 446 326 444 324 442 C317 436 310 429 304 422 C283 399 264 375 247 349 C245 347 243 345 240 345 C219 345 198 345 178 344 C176 344 174 344 172 344 C173 346 173 347 174 348 C195 380 216 412 237 445 C237 446 238 447 239 448 C242 451 244 454 247 458 C248 460 248 463 246 465 C244 467 242 468 239 467 C237 466 236 465 234 464 C233 462 231 460 229 457 C202 423 176 388 154 350 C153 348 152 346 150 344 L150 344 Z M234 331 C233 330 233 329 233 329 C222 311 211 294 200 276 C199 274 197 273 195 273 C173 273 151 273 129 272 C129 272 129 272 128 273 C128 274 129 275 129 276 C139 293 149 309 159 325 C161 327 162 329 165 329 C187 330 209 331 231 331 C232 331 233 331 234 331 L234 331 Z " />
<glyph glyph-name="dollar" unicode="&#x24;" horiz-adv-x="376" d="M374 515 C368 518 362 519 356 519 C350 519 343 519 337 520 C338 521 338 523 339 525 C349 543 359 561 368 579 C374 590 379 600 381 611 C381 613 381 614 381 615 C377 621 372 622 367 616 C362 610 358 605 354 599 C352 595 351 591 355 588 C354 587 354 587 354 586 C340 563 326 541 313 518 C311 516 310 515 307 514 C298 512 288 509 279 506 C236 491 197 471 160 445 C144 434 129 423 116 408 C110 402 105 394 102 386 C97 374 100 362 111 354 C114 352 118 349 122 348 C129 344 137 341 145 338 C160 332 176 326 192 320 C194 319 195 318 197 318 C197 317 197 316 197 316 C184 293 172 269 159 246 C158 245 156 244 155 244 C144 242 134 238 123 234 C75 212 31 184 -10 150 C-20 142 -29 133 -36 122 C-42 114 -46 105 -48 94 C-50 79 -43 68 -29 62 C-26 61 -23 60 -20 60 C-9 58 2 59 13 61 C31 64 48 70 64 77 C65 78 66 78 68 78 C67 75 66 73 65 71 C48 39 31 6 17 -28 C14 -34 11 -41 9 -48 C8 -51 8 -54 9 -57 C9 -60 13 -62 17 -61 C21 -60 23 -57 25 -54 C26 -51 25 -49 23 -46 C26 -40 29 -33 32 -27 C50 12 70 49 90 86 C92 89 94 91 97 93 C131 111 162 132 190 158 C210 176 228 196 242 220 C250 231 256 244 258 258 C262 280 255 298 238 312 C235 314 231 317 227 319 C226 320 225 321 223 322 C224 324 225 325 226 327 C249 366 271 405 294 445 C305 464 316 483 327 502 C327 504 329 506 330 506 C340 508 350 510 360 508 C375 506 381 499 376 484 C374 478 371 471 367 465 C360 453 351 440 342 428 C325 406 307 384 289 361 C286 356 282 351 279 346 C277 344 276 342 276 340 C275 335 279 330 285 330 C289 329 292 332 293 337 C293 339 294 340 295 342 C299 348 304 355 309 361 C325 383 342 405 358 427 C367 440 375 453 382 468 C385 475 388 483 388 491 C388 502 383 510 374 515 L374 515 Z M84 108 C83 106 81 104 78 102 C60 93 40 85 20 79 C8 76 -4 74 -17 75 C-20 76 -23 76 -26 78 C-31 80 -34 85 -33 91 C-33 95 -31 100 -29 105 C-25 116 -17 125 -9 134 C4 148 19 159 34 170 C62 190 91 209 122 224 C130 227 138 230 147 234 C148 234 150 234 153 235 C151 232 150 230 150 229 C128 189 106 149 84 108 L84 108 Z M239 278 C241 272 240 265 238 259 C235 246 228 234 221 223 C207 203 189 185 170 168 C153 152 135 138 116 126 C115 124 113 123 110 122 C111 124 112 125 112 126 C130 157 147 189 165 220 C166 222 167 223 169 224 C173 225 174 229 174 232 C174 237 177 242 180 246 C191 265 202 284 213 304 C213 305 214 306 215 308 C226 300 236 292 239 278 L239 278 Z M204 331 C203 332 202 333 200 333 C184 339 167 346 151 352 C145 354 139 356 133 359 C130 361 126 362 123 365 C115 370 114 375 118 383 C122 391 127 397 133 402 C148 417 164 429 182 440 C215 461 249 480 286 494 C291 495 295 497 300 498 C268 442 236 387 204 331 L204 331 Z " />
<glyph glyph-name="percent" unicode="&#x25;" horiz-adv-x="371" d="M421 540 C421 540 421 539 421 539 C420 537 418 535 417 533 C409 526 401 518 393 510 C345 465 297 420 250 374 C162 288 76 201 -11 114 C-34 91 -57 67 -79 43 C-84 38 -88 32 -92 27 C-93 25 -94 23 -95 20 C-96 17 -93 14 -90 13 C-87 12 -84 13 -83 16 C-81 19 -80 22 -77 25 C-72 31 -66 37 -60 43 C-32 71 -3 99 25 127 C128 229 234 328 340 428 C368 455 397 482 423 511 C429 517 434 523 440 530 C442 533 444 537 445 541 C448 550 443 558 433 559 C430 559 427 559 424 558 C416 556 409 554 401 552 C373 541 345 530 317 518 C272 499 227 479 181 459 C179 458 177 457 174 456 C176 459 177 460 178 461 C179 463 181 466 183 468 C185 472 185 477 181 480 C178 483 173 483 169 480 C168 478 166 476 164 475 C155 464 146 453 137 442 C135 439 132 438 129 436 C122 433 114 429 107 425 C104 424 102 422 100 420 C95 415 97 408 104 406 C105 406 107 405 109 405 C107 403 106 401 105 400 C97 388 89 376 82 364 C75 351 69 338 65 324 C64 319 63 314 63 310 C64 298 74 291 85 294 C88 294 91 295 93 297 C97 299 100 300 103 303 C123 318 140 336 154 356 C159 364 162 372 164 381 C166 390 163 398 156 404 C153 407 149 409 146 410 C144 411 143 412 142 413 C145 417 148 422 152 426 C153 428 154 429 156 430 C207 453 258 476 309 499 C338 512 369 524 399 534 C406 536 414 538 421 540 L421 540 Z M87 317 C88 320 88 322 89 324 C92 332 96 341 100 350 C110 367 122 384 133 401 C139 400 144 398 148 395 C151 393 152 390 152 387 C151 383 150 380 149 377 C146 372 143 367 140 363 C126 346 111 332 93 321 C91 320 90 319 87 317 L87 317 Z M69 70 C69 55 79 47 93 51 C102 52 109 57 116 62 C127 71 138 82 146 94 C150 99 154 105 157 112 C162 123 159 132 150 139 C147 142 144 144 141 145 C127 151 115 146 108 133 C106 131 105 128 102 126 C91 115 82 103 75 89 C72 83 69 77 69 70 L69 70 Z M115 113 C119 109 122 111 124 114 C126 116 127 117 128 118 C132 122 135 127 134 132 C142 129 144 125 141 118 C139 113 136 108 133 104 C124 92 114 82 103 74 C99 71 94 69 89 68 C88 71 89 74 90 76 C96 90 105 102 115 113 L115 113 Z " />
<glyph glyph-name="ampersand" unicode="&#x26;" horiz-adv-x="343" d="M232 452 C233 454 234 456 235 457 C247 475 258 493 269 511 C274 520 279 528 283 537 C285 539 286 543 287 546 C288 550 286 554 283 555 C280 556 276 555 273 552 C273 552 272 551 272 550 C268 545 265 540 261 535 C243 508 225 481 207 454 C206 452 205 451 202 450 C167 446 133 436 101 422 C91 418 82 414 74 407 C70 404 66 400 63 395 C59 387 59 379 66 371 C68 368 72 365 75 362 C80 359 86 356 91 354 C105 348 119 344 132 339 C134 339 135 338 136 338 C136 337 136 336 135 335 C122 312 109 289 95 265 C94 263 92 261 90 260 C70 248 50 237 31 224 C23 219 15 212 7 206 C3 203 0 199 -3 194 C-9 185 -5 175 6 172 C11 171 17 171 22 171 C29 171 36 172 44 173 C43 171 42 169 41 168 C33 152 24 136 16 121 C10 107 5 94 -1 81 C-2 77 -3 74 -3 71 C-4 67 -2 64 1 64 C4 63 6 65 7 69 C10 77 13 86 18 94 C30 118 43 141 55 165 C57 169 59 174 62 176 C65 178 70 178 75 179 C75 179 75 179 75 180 C129 192 184 204 238 217 C255 220 273 224 289 227 C295 223 297 223 302 227 C302 227 303 227 303 228 C305 229 306 232 306 234 C305 237 303 239 300 240 C297 240 293 240 290 240 C280 238 270 237 260 235 C206 225 151 214 97 203 C90 202 83 200 75 199 C76 201 77 203 78 204 C85 216 92 228 99 241 C101 244 104 247 107 249 C130 262 153 275 175 288 C182 292 188 297 194 302 C197 305 200 308 202 311 C206 318 206 325 201 331 C198 334 195 337 191 339 C185 342 178 344 171 347 C169 348 167 348 165 349 C168 355 172 360 175 365 C189 387 204 409 218 431 C219 433 221 435 223 435 C230 436 238 436 245 432 C251 430 253 426 252 420 C252 417 251 413 250 410 C246 399 241 388 236 378 C234 376 233 373 232 370 C231 367 233 364 235 362 C238 360 242 360 244 362 C246 364 247 365 248 367 C256 380 263 394 268 410 C269 416 270 422 268 428 C265 440 257 446 246 449 C242 450 237 451 232 452 L232 452 Z M146 355 C130 359 114 364 99 371 C94 373 89 376 85 379 C79 383 79 385 85 390 C89 393 94 397 99 399 C112 406 127 411 141 416 C156 420 171 425 187 429 C188 429 189 430 191 430 C176 405 161 380 146 355 L146 355 Z M155 333 C166 329 177 326 188 319 C185 316 183 314 180 312 C175 308 169 304 164 301 C151 293 138 286 124 279 C124 278 123 278 122 278 C123 282 147 323 155 333 L155 333 Z M75 229 C74 228 74 228 74 227 C68 217 63 208 58 198 C56 196 55 194 52 194 C43 193 34 191 26 190 C23 190 20 190 16 190 C18 191 18 193 19 193 C24 197 29 202 34 205 C47 214 61 222 74 230 C74 230 75 230 75 229 L75 229 Z " />
<glyph glyph-name="quotesingle" unicode="&#x27;" horiz-adv-x="174" d="M193 580 C193 585 192 588 189 590 C186 591 183 591 181 588 C178 586 176 583 174 580 C167 567 159 554 152 541 C147 532 143 522 138 511 C136 507 135 502 134 497 C134 494 135 492 138 491 C140 490 142 491 144 494 C145 495 145 497 146 498 C149 504 151 511 155 517 C161 528 167 538 174 549 C179 557 184 564 189 572 C191 575 192 578 193 580 L193 580 Z " />
<glyph glyph-name="parenleft" unicode="&#x28;" horiz-adv-x="257" d="M308 572 C303 573 299 572 294 571 C287 568 280 565 274 561 C252 549 233 533 215 516 C161 464 120 404 87 337 C67 295 54 251 41 206 C33 177 26 149 19 120 C11 80 3 37 7 15 C8 10 9 6 12 2 C14 -1 17 -3 21 -2 C24 -2 26 0 26 2 C27 5 25 7 23 7 C20 8 19 10 19 12 C18 17 18 22 18 26 C19 49 23 72 28 94 C32 114 37 133 42 153 C50 186 60 218 71 249 C90 302 116 353 146 401 C174 444 206 483 243 519 C256 531 269 543 285 553 C290 556 295 558 300 560 C303 561 306 561 308 559 C310 557 312 559 313 561 C316 565 314 571 308 572 L308 572 Z " />
<glyph glyph-name="parenright" unicode="&#x29;" horiz-adv-x="253" d="M229 544 C229 547 229 549 230 552 C231 556 228 559 224 558 C221 558 219 556 218 554 C217 551 217 549 216 547 C215 536 213 526 212 515 C210 485 204 456 194 428 C179 383 159 340 136 298 C100 234 61 171 22 109 C5 84 -12 58 -30 34 C-37 25 -45 16 -54 9 C-55 8 -56 7 -57 5 C-59 2 -56 -2 -51 -2 C-50 -1 -48 -1 -46 1 C-35 9 -26 18 -18 29 C-4 47 9 65 22 83 C72 157 119 232 165 309 C179 333 192 358 203 385 C224 436 233 489 229 544 L229 544 Z " />
<glyph glyph-name="asterisk" unicode="&#x2a;" horiz-adv-x="240" d="M260 459 C260 460 259 462 258 462 C255 464 253 465 250 466 C243 467 236 465 229 464 C210 459 191 453 171 448 C170 448 168 447 166 447 C169 453 174 459 178 465 C183 473 189 482 194 491 C195 492 196 494 197 495 C197 498 197 500 195 502 C193 504 190 504 187 502 C185 500 183 498 181 495 C175 486 168 476 162 466 C161 464 160 463 159 460 C157 463 157 465 156 467 C153 475 150 483 146 491 C145 494 144 496 142 498 C140 500 138 501 136 500 C133 499 132 497 132 494 C132 492 133 489 133 487 C137 473 141 460 146 447 C147 445 147 443 148 441 C146 440 144 440 142 439 C124 433 106 427 88 420 C84 419 80 417 76 415 C74 413 73 411 74 409 C75 407 77 406 79 406 C82 407 85 407 88 408 C103 413 117 418 131 423 C133 423 135 424 138 425 C136 422 135 421 135 419 C127 404 118 390 111 375 C108 370 106 364 104 359 C103 357 103 354 103 351 C102 349 103 347 106 346 C108 346 109 348 109 350 C112 356 113 362 117 367 C128 387 140 406 152 426 C152 427 153 427 154 429 C155 426 156 425 157 423 C167 401 178 378 191 357 C195 350 200 345 204 339 C205 338 206 337 208 337 C209 336 211 337 213 338 C213 338 214 340 214 342 C214 343 213 344 212 345 C208 351 203 358 200 364 C190 384 182 403 173 422 C171 426 169 430 167 435 C169 436 169 436 170 436 C188 442 206 448 224 453 C231 455 238 456 245 458 C249 458 252 458 254 455 C256 454 258 453 259 455 C260 456 260 458 260 459 L260 459 Z " />
<glyph glyph-name="plus" unicode="&#x2b;" horiz-adv-x="259" d="M110 295 C110 293 109 292 109 291 C104 282 99 273 94 264 C75 227 56 191 40 153 C36 144 32 134 29 125 C28 122 27 119 27 116 C27 112 29 109 32 109 C36 109 40 113 39 117 C38 120 39 123 40 126 C43 133 46 140 49 147 C66 179 82 210 98 242 C107 259 117 275 126 292 C128 296 131 297 135 297 C138 297 142 298 146 298 C163 299 181 300 199 300 C202 301 205 300 209 300 C209 298 208 297 209 296 C210 295 211 293 212 293 C215 293 218 297 219 300 C220 304 219 306 215 307 C214 308 211 309 209 309 C204 310 199 310 194 310 C176 310 159 309 141 309 C140 309 139 309 136 309 C138 311 139 313 140 314 C153 337 166 359 179 382 C183 388 186 395 189 402 C190 404 190 406 190 408 C191 410 189 412 187 413 C185 414 182 414 181 412 C179 411 178 409 177 408 C174 402 170 395 166 389 C150 363 134 336 118 309 C118 309 117 308 117 308 C98 306 79 305 61 303 C43 301 26 298 8 295 C6 295 5 294 3 294 C1 293 0 292 0 289 C0 287 2 286 4 286 C5 286 6 286 7 286 C12 286 17 286 22 287 C48 289 74 291 100 294 C103 294 106 294 110 295 L110 295 Z " />
<glyph glyph-name="comma" unicode="&#x2c;" horiz-adv-x="134" d="M-46 126 C-46 123 -45 121 -42 121 C-40 120 -38 121 -37 123 C-36 123 -36 124 -35 125 C-31 131 -27 138 -22 144 C-6 162 10 181 26 199 C29 203 32 206 34 209 C35 211 36 214 36 216 C36 222 31 225 25 222 C23 221 21 219 20 217 C15 212 10 206 6 200 C-8 183 -21 166 -34 149 C-38 144 -41 137 -44 132 C-45 130 -45 128 -46 126 L-46 126 Z " />
<glyph glyph-name="hyphen" unicode="&#x2d;" horiz-adv-x="197" d="M119 288 C119 289 118 291 116 292 C113 294 110 294 107 294 C98 295 88 295 79 295 C64 295 48 294 32 293 C29 293 27 292 25 291 C22 291 21 289 21 287 C21 284 22 283 25 282 C27 281 30 282 32 282 C46 282 61 284 74 285 C85 286 95 287 106 286 C108 287 111 287 113 285 C115 283 118 283 119 288 L119 288 Z " />
<glyph glyph-name="period" unicode="&#x2e;" horiz-adv-x="165" d="M16 197 C20 197 22 199 23 203 C25 206 26 210 23 213 C21 215 19 216 16 215 C11 214 7 207 8 203 C9 199 12 196 16 197 L16 197 Z " />
<glyph glyph-name="slash" unicode="&#x2f;" horiz-adv-x="348" d="M405 542 C403 545 400 546 396 546 C394 545 393 544 391 543 C387 540 383 538 380 535 C341 502 303 468 268 432 C198 360 131 287 64 212 C26 169 -12 125 -47 80 C-58 66 -69 52 -77 36 C-80 32 -82 28 -83 25 C-84 18 -82 14 -78 14 C-74 14 -72 16 -71 19 C-66 29 -59 38 -52 47 C-38 65 -24 83 -9 100 C67 188 145 273 227 356 C277 406 329 456 380 505 C385 508 388 513 391 517 C395 520 398 523 401 527 C403 529 405 530 406 532 C407 536 407 539 405 542 L405 542 Z " />
<glyph glyph-name="zero" unicode="0" horiz-adv-x="208" d="M-5 158 C-4 155 -4 150 -3 145 C-3 142 -1 138 1 135 C3 131 7 128 11 128 C13 129 15 128 17 126 C21 121 27 120 34 121 C41 122 48 126 54 131 C65 138 74 147 83 157 C119 196 149 239 175 285 C184 303 193 320 199 339 C203 353 206 368 204 383 C201 400 192 411 176 414 C170 415 163 415 157 414 C142 411 128 404 115 395 C88 376 67 351 50 322 C30 287 14 249 4 210 C-1 193 -4 177 -5 158 L-5 158 Z M29 138 C27 142 27 146 28 149 C29 166 34 182 40 197 C51 227 66 256 81 284 C92 304 103 324 114 344 C115 344 115 345 115 345 C117 348 116 351 114 353 C112 354 109 354 107 351 C106 351 106 350 105 349 C100 343 95 336 90 330 C88 328 87 326 87 323 C87 322 86 320 85 318 C66 287 48 256 33 223 C25 203 17 183 13 161 C12 156 11 150 11 145 C10 143 11 142 11 139 C8 142 8 145 7 147 C6 158 7 168 9 178 C14 208 25 237 37 265 C48 289 60 312 76 333 C90 351 105 368 123 381 C132 388 141 394 151 398 C158 400 164 402 171 402 C181 401 188 396 191 386 C193 377 192 368 190 358 C187 344 181 330 175 316 C147 263 113 213 71 169 C64 161 55 154 47 147 C44 144 40 142 36 140 C34 139 32 139 29 138 L29 138 Z " />
<glyph glyph-name="one" unicode="1" horiz-adv-x="163" d="M216 536 C213 535 209 533 206 530 C195 522 185 514 173 506 C147 487 121 467 92 451 C89 449 88 446 89 443 C90 440 93 439 97 440 C99 440 101 441 103 442 C108 444 113 447 118 450 C135 462 153 475 171 487 C180 494 189 501 199 508 C199 508 199 508 200 507 C199 506 198 504 197 502 C165 457 134 411 106 364 C75 311 47 257 19 203 C-5 157 -28 110 -48 61 C-55 45 -61 29 -65 13 C-66 7 -66 0 -66 -6 C-66 -10 -64 -14 -59 -15 C-56 -16 -48 -14 -46 -11 C-46 -9 -45 -7 -46 -5 C-46 -3 -48 -2 -50 -2 C-52 -2 -53 -2 -54 -3 C-54 -1 -54 1 -54 3 C-51 13 -48 22 -45 31 C-33 63 -18 93 -3 123 C44 216 96 306 152 395 C173 430 195 465 217 500 C221 506 224 512 227 518 C228 521 229 524 230 526 C230 535 224 539 216 536 L216 536 Z " />
<glyph glyph-name="two" unicode="2" horiz-adv-x="223" d="M9 175 C9 175 9 175 9 176 C10 177 11 177 12 178 C45 207 75 238 102 273 C124 301 144 330 159 361 C167 376 174 391 177 408 C179 417 180 425 177 434 C173 446 163 452 151 450 C146 449 142 448 138 445 C132 443 127 439 122 435 C97 416 78 392 63 364 C60 358 58 352 56 347 C55 342 54 338 54 333 C53 330 55 327 56 324 C57 322 60 321 62 323 C64 324 66 326 64 329 C63 331 63 333 64 335 C65 339 67 342 68 345 C81 374 100 399 125 420 C130 424 136 428 142 432 C145 433 148 434 151 435 C157 436 160 434 162 428 C163 422 162 416 161 410 C157 395 151 381 144 367 C128 338 109 311 89 285 C54 240 15 200 -30 166 C-37 161 -43 157 -51 154 C-62 149 -73 143 -84 137 C-87 135 -89 132 -92 130 C-94 127 -95 123 -93 120 C-91 117 -87 115 -83 116 C-80 117 -78 117 -75 119 C-65 124 -55 129 -45 135 C-38 140 -30 144 -22 147 C-9 152 4 156 17 160 C70 176 124 188 178 197 C194 200 211 202 228 202 C232 202 236 201 241 201 C245 200 246 198 246 194 C246 191 247 188 249 188 C252 187 254 189 255 193 C256 198 255 203 251 207 C248 209 244 211 241 212 C232 214 223 214 213 213 C197 212 180 210 164 208 C119 201 75 191 31 180 C24 178 17 177 9 175 L9 175 Z " />
<glyph glyph-name="three" unicode="3" horiz-adv-x="247" d="M230 484 C227 485 223 487 219 487 C212 488 206 488 199 487 C151 483 104 472 57 462 C53 461 51 458 52 454 C52 451 55 449 59 449 C67 450 75 451 83 452 C114 458 146 465 178 469 C189 471 200 471 211 472 C214 472 218 472 221 469 C220 464 217 460 213 457 C203 447 193 438 183 429 C164 413 144 397 125 381 C119 376 112 370 107 364 C104 361 101 357 99 353 C95 344 98 335 108 332 C112 330 117 329 122 329 C133 327 143 325 154 323 C163 322 171 319 178 313 C187 307 191 299 189 288 C188 281 186 275 183 270 C177 261 172 252 165 244 C154 230 142 216 129 203 C100 172 71 142 41 113 C11 83 -20 53 -50 24 C-51 23 -52 22 -53 22 C-54 19 -54 16 -53 14 C-51 12 -48 11 -45 12 C-43 12 -42 13 -40 15 C-35 19 -29 24 -23 28 C32 78 86 129 139 182 C154 197 169 212 182 229 C191 241 199 253 204 267 C206 273 208 279 209 284 C211 301 206 314 193 325 C184 331 175 335 165 338 C152 343 138 344 125 347 C123 347 121 348 118 348 C120 350 121 352 123 353 C131 361 139 368 147 375 C165 390 183 405 201 420 C211 429 220 438 228 449 C232 454 235 459 237 465 C239 473 237 480 230 484 L230 484 Z " />
<glyph glyph-name="four" unicode="4" horiz-adv-x="259" d="M293 482 C289 485 285 484 282 481 C279 479 277 477 275 474 C266 464 258 454 248 444 C198 391 144 342 86 296 C75 287 62 278 49 270 C46 268 42 266 39 264 C38 265 38 265 38 265 C39 268 39 270 40 273 C47 290 56 305 66 319 C104 376 145 431 186 486 C194 496 202 507 210 518 C213 522 213 526 210 529 C207 531 203 531 199 527 C198 526 198 525 197 525 C194 521 190 517 187 513 C153 476 123 437 93 397 C73 371 54 344 37 315 C29 302 22 289 17 275 C16 270 15 266 14 261 C13 248 24 239 37 242 C45 243 51 247 57 251 C67 258 77 265 86 273 C117 297 145 324 173 351 C194 371 214 391 235 410 C236 411 237 413 239 413 C238 411 237 409 236 407 C225 388 214 369 204 349 C173 286 143 223 114 160 C97 126 83 91 68 56 C65 48 62 39 60 31 C59 29 59 26 60 24 C60 20 63 18 66 18 C69 18 71 20 72 24 C73 28 74 32 76 35 C78 41 80 46 83 52 C122 137 163 222 207 305 C230 348 255 390 279 433 C284 442 289 451 294 461 C295 464 297 468 297 472 C298 476 296 480 293 482 L293 482 Z " />
<glyph glyph-name="five" unicode="5" horiz-adv-x="197" d="M294 481 C293 483 291 485 289 486 C284 486 280 487 276 487 C245 487 215 487 185 487 C180 487 175 488 170 488 C169 488 169 489 169 489 C171 491 174 492 176 493 C179 495 181 496 180 499 C180 501 178 503 175 503 C173 503 170 503 168 502 C163 498 158 495 153 491 C150 488 147 487 143 486 C136 486 128 486 121 485 C117 485 115 483 114 480 C114 476 116 474 120 472 C123 472 125 471 128 471 C129 471 130 470 131 470 C130 469 129 468 129 467 C120 458 112 450 104 441 C85 421 66 400 49 378 C43 370 38 361 32 353 C30 349 29 344 29 339 C29 333 33 328 39 326 C41 326 44 325 47 325 C51 326 56 326 60 327 C74 330 87 332 101 335 C107 336 114 337 121 335 C124 334 126 332 126 328 C126 325 126 321 125 318 C122 310 120 302 116 294 C109 281 102 267 94 254 C65 206 34 159 2 112 C-18 81 -38 49 -58 18 C-61 14 -63 10 -65 6 C-66 4 -67 2 -66 0 C-66 -3 -62 -6 -59 -4 C-54 -1 -50 3 -49 9 C-48 11 -47 13 -46 15 C-5 74 36 133 77 192 C96 218 115 244 130 273 C135 283 140 293 144 304 C147 312 149 320 148 329 C147 343 137 353 123 354 C116 354 110 354 103 353 C88 351 74 348 59 345 C56 345 54 345 50 344 C52 347 53 349 54 351 C59 358 63 365 68 371 C85 391 101 410 118 430 C128 442 139 455 149 467 C151 469 153 470 155 470 C164 471 173 471 181 472 C199 473 217 473 235 474 C249 475 264 475 278 476 C281 476 284 477 287 475 C289 473 291 474 293 475 C294 477 294 479 294 481 L294 481 Z " />
<glyph glyph-name="six" unicode="6" horiz-adv-x="247" d="M248 506 C238 506 228 503 219 499 C203 492 189 483 175 472 C153 455 133 435 114 414 C81 377 53 336 28 293 C11 264 -4 234 -15 203 C-22 180 -27 158 -27 134 C-27 123 -25 112 -20 103 C-13 88 -2 81 14 81 C15 81 17 81 19 81 C18 78 17 76 17 74 C13 64 10 53 8 43 C6 36 6 28 7 21 C8 13 12 7 19 4 C22 2 25 3 26 5 C27 7 27 10 24 12 C19 15 17 20 17 26 C18 31 18 36 20 41 C23 55 28 68 34 81 C35 84 36 85 38 86 C47 90 56 94 64 99 C96 120 121 147 142 178 C148 187 154 197 158 208 C160 216 162 224 161 232 C159 247 147 255 133 250 C125 248 120 244 114 239 C105 231 98 222 92 212 C69 180 49 146 33 110 C30 104 26 102 20 102 C18 102 16 102 14 102 C7 102 2 105 0 111 C-2 115 -3 119 -4 122 C-6 137 -4 152 -2 166 C3 190 12 213 23 235 C56 304 98 367 151 423 C167 440 184 455 203 469 C212 476 222 482 233 486 C238 488 244 490 250 489 C255 489 258 487 259 482 C260 479 260 475 259 472 C258 460 254 449 249 438 C239 413 226 389 212 366 C207 357 201 347 196 338 C194 336 193 333 193 331 C192 328 193 325 196 324 C198 322 201 322 203 325 C206 328 209 331 211 334 C229 361 246 389 260 419 C264 429 269 440 272 451 C275 458 277 467 277 475 C277 492 267 505 248 506 L248 506 Z M51 117 C67 147 85 175 105 202 C111 210 118 217 126 225 C129 228 133 231 138 233 C143 236 147 234 147 227 C146 222 145 216 143 210 C141 204 138 198 134 192 C114 161 88 135 56 116 C55 115 53 114 51 113 C51 113 51 113 49 113 C50 115 51 116 51 117 L51 117 Z " />
<glyph glyph-name="seven" unicode="7" horiz-adv-x="275" d="M312 529 C308 536 301 540 294 541 C281 543 269 542 257 540 C225 535 195 525 166 512 C154 507 142 501 131 494 C124 489 118 485 113 478 C111 474 109 470 108 465 C108 455 115 451 123 450 C125 450 126 451 127 452 C128 454 127 456 126 457 C125 458 124 458 123 458 C120 460 120 461 122 464 C124 468 126 471 129 474 C136 479 142 484 150 488 C162 494 175 500 188 505 C213 514 238 522 265 525 C273 526 281 527 289 525 C296 523 298 521 295 514 C293 507 290 500 286 494 C278 481 269 468 259 456 C238 429 216 403 195 377 C177 353 159 329 140 305 C139 303 137 301 134 301 C111 300 88 298 64 297 C58 296 52 295 47 294 C43 294 40 290 40 286 C40 283 42 279 46 278 C49 277 53 277 56 277 C76 280 96 282 116 284 C118 285 121 285 124 284 C123 282 122 281 121 280 C76 220 32 161 -13 102 C-30 78 -47 53 -64 28 C-69 22 -72 15 -76 8 C-77 5 -77 2 -77 -1 C-77 -6 -73 -8 -69 -7 C-64 -6 -59 -2 -60 2 C-60 2 -60 3 -60 4 C-61 5 -61 6 -62 7 C-55 16 -49 26 -42 35 C-14 72 14 109 43 146 C78 192 115 238 151 283 C153 287 156 288 160 288 C170 289 180 290 190 291 C200 291 209 294 218 291 C219 291 221 292 223 293 C224 294 224 297 223 298 C221 301 218 302 216 303 C212 303 209 304 205 304 C195 304 185 303 175 303 C173 303 170 303 167 303 C169 305 170 307 171 308 C198 342 226 376 253 410 C269 430 285 450 298 472 C303 481 307 489 311 498 C313 501 313 505 314 508 C315 512 315 516 315 520 C314 523 314 527 312 529 L312 529 Z " />
<glyph glyph-name="eight" unicode="8" horiz-adv-x="225" d="M221 440 C223 448 225 455 224 463 C224 476 216 485 203 485 C196 486 190 484 184 482 C171 478 159 471 147 463 C125 448 105 431 86 412 C68 394 51 375 38 354 C31 344 25 333 22 320 C17 301 22 286 38 275 C41 272 44 270 47 269 C56 264 65 260 74 256 C79 253 84 251 89 249 C87 247 86 246 85 244 C67 226 49 209 32 190 C9 166 -10 139 -25 110 C-31 100 -35 90 -38 78 C-39 72 -40 65 -39 58 C-37 48 -32 42 -22 39 C-15 37 -8 37 -1 39 C16 42 31 49 45 59 C80 82 108 112 128 149 C136 161 141 174 143 188 C146 205 144 221 133 235 C127 242 121 248 113 253 C112 254 110 256 108 257 C109 258 110 259 111 259 C130 278 150 296 170 315 C180 324 191 333 201 342 C203 343 206 345 208 347 C210 342 212 342 214 345 C215 347 216 349 216 350 C217 353 214 355 211 354 C209 354 206 352 204 351 C198 346 192 342 186 337 C158 314 132 290 106 265 C104 263 103 261 102 260 C101 261 100 261 100 261 C88 267 76 272 65 278 C58 281 52 285 46 290 C38 296 36 304 38 313 C39 317 40 322 42 326 C47 338 55 349 63 360 C89 392 119 422 153 446 C164 454 176 462 188 467 C192 468 196 469 200 470 C206 471 208 468 208 463 C208 459 208 456 207 452 C203 441 199 429 195 417 C192 410 190 402 188 394 C187 391 187 387 188 385 C189 381 193 378 197 379 C199 380 201 380 204 381 C207 383 207 385 205 388 C204 389 203 389 202 390 C203 393 204 396 205 398 C210 412 216 426 221 440 L221 440 Z M96 245 C104 241 110 236 115 230 C126 219 129 206 127 191 C125 180 122 170 117 161 C103 135 85 112 64 92 C50 79 34 67 17 58 C8 54 -1 50 -11 50 C-14 50 -16 50 -18 51 C-23 51 -26 55 -27 60 C-28 66 -27 72 -26 78 C-22 94 -14 109 -5 124 C13 153 33 179 56 203 C68 216 80 229 93 241 C94 242 95 244 96 245 L96 245 Z " />
<glyph glyph-name="nine" unicode="9" horiz-adv-x="214" d="M234 438 C225 426 216 414 208 402 C161 332 115 261 70 190 C48 156 27 121 6 87 C2 80 -1 73 -4 67 C-6 63 -6 60 -7 56 C-7 54 -6 52 -4 51 C-2 49 0 49 1 50 C3 51 4 53 3 55 C2 57 3 59 4 61 C6 65 8 69 10 73 C18 86 26 100 34 113 C93 205 154 295 216 385 C235 413 254 442 273 470 C277 476 286 486 279 492 C271 499 268 490 258 481 C233 456 208 433 184 409 C189 423 195 449 170 454 C154 457 137 448 121 437 C88 415 61 388 39 356 C29 342 19 320 20 308 C21 299 27 293 36 292 C50 290 72 301 84 310 C98 320 111 330 124 340 C136 350 146 359 158 369 C165 366 166 366 169 374 C171 379 174 384 179 389 L234 438 Z M38 309 C40 323 47 337 53 345 C75 376 101 403 132 425 C144 433 160 440 167 440 C175 440 174 429 171 422 C168 411 165 401 161 390 C160 388 159 387 158 386 C132 363 105 341 75 323 C66 316 44 307 38 309 L38 309 Z " />
<glyph glyph-name="colon" unicode="&#x3a;" horiz-adv-x="135" d="M49 192 C55 188 59 189 61 194 C62 199 60 204 56 207 C51 210 46 210 42 207 C39 204 37 200 37 196 C36 193 37 190 40 189 C42 187 45 188 47 189 C48 190 48 191 49 192 L49 192 Z M87 274 C87 274 87 274 87 274 C87 271 87 268 88 265 C90 262 93 260 96 261 C99 262 101 265 100 268 C99 272 98 275 96 278 C95 280 93 281 91 281 C89 281 87 279 87 276 C87 275 87 274 87 274 L87 274 Z " />
<glyph glyph-name="semicolon" unicode="&#x3b;" horiz-adv-x="144" d="M80 223 C80 226 77 229 75 228 C73 228 71 227 69 226 C67 224 65 222 63 219 C46 197 29 174 14 149 C13 148 13 146 14 145 C16 143 18 143 19 144 C21 146 23 148 24 150 C39 169 54 188 69 207 C72 211 75 216 78 220 C79 221 79 223 80 223 L80 223 Z M92 291 C86 291 81 287 81 283 C81 279 83 276 86 276 C90 277 93 277 96 278 C100 280 101 285 98 287 C96 289 93 290 92 291 L92 291 Z " />
<glyph glyph-name="less" unicode="&#x3c;" horiz-adv-x="219" d="M134 305 C132 310 128 313 121 312 C119 312 116 311 114 311 C74 299 35 284 -2 266 C-8 263 -14 259 -20 255 C-25 252 -28 248 -30 243 C-33 237 -32 231 -28 226 C-25 223 -22 220 -18 218 C-12 215 -5 212 2 209 C22 203 43 196 62 187 C72 183 81 178 91 173 C94 171 97 169 99 165 C98 164 97 163 96 162 C94 159 94 157 95 155 C97 153 99 153 102 154 C111 159 113 168 107 176 C104 179 100 182 97 184 C89 189 80 195 71 199 C50 209 28 219 7 228 C2 231 -3 233 -8 236 C1 244 75 278 91 281 C92 279 93 277 94 274 C97 279 102 281 106 283 C109 284 111 285 114 286 C118 288 123 290 127 292 C133 295 136 300 134 305 L134 305 Z " />
<glyph glyph-name="equal" unicode="&#x3d;" horiz-adv-x="170" d="M83 255 C80 256 77 257 74 257 C65 258 55 258 46 258 C30 258 15 257 -1 257 C-3 257 -6 257 -8 256 C-11 255 -12 254 -12 251 C-12 248 -10 246 -8 246 C-5 246 -3 246 -1 246 C13 246 27 248 41 248 C52 249 62 249 73 249 C75 249 78 249 80 247 C82 244 85 246 86 250 C86 252 85 254 83 255 L83 255 Z M99 287 C96 288 93 289 90 289 C81 290 71 290 62 290 C47 290 31 290 16 289 C13 289 11 288 8 288 C6 287 4 286 4 283 C4 280 6 279 9 278 C11 278 13 278 16 278 C30 279 43 280 57 280 C68 281 79 281 89 281 C92 282 94 281 96 279 C98 277 102 278 102 282 C102 284 101 286 99 287 L99 287 Z " />
<glyph glyph-name="greater" unicode="&#x3e;" horiz-adv-x="232" d="M155 256 C153 259 150 261 147 263 C129 277 111 290 93 303 C83 310 73 316 63 321 C55 324 48 327 40 328 C36 328 33 326 32 323 C31 321 33 318 36 316 C39 314 42 313 45 311 C55 306 64 302 73 296 C95 282 115 267 133 250 C135 249 136 247 138 245 C135 243 132 241 129 240 C112 231 94 222 77 213 C52 200 26 187 1 173 C-2 172 -5 170 -8 168 C-9 166 -11 165 -11 163 C-13 160 -12 158 -9 157 C-7 155 -5 156 -4 158 C-2 159 0 161 2 162 C5 164 9 166 13 167 C49 184 84 201 122 215 C130 218 138 222 146 226 C150 229 154 232 156 236 C160 243 160 250 155 256 L155 256 Z " />
<glyph glyph-name="question" unicode="&#x3f;" horiz-adv-x="360" d="M442 612 C439 614 435 615 431 616 C420 619 410 618 399 617 C377 615 356 609 336 602 C292 586 252 565 213 540 C176 516 141 489 111 457 C105 451 100 444 95 438 C93 435 91 432 91 428 C91 424 93 422 95 420 C98 419 101 419 104 421 C105 422 106 424 107 425 C116 435 125 445 134 455 C175 496 222 530 273 558 C302 574 332 587 364 596 C380 601 398 604 416 604 C422 603 427 602 433 600 C439 598 441 594 439 588 C438 584 436 581 434 578 C429 571 425 564 420 558 C398 535 377 512 355 488 C318 449 281 410 248 368 C183 289 120 208 59 125 C47 108 35 91 24 73 C21 68 19 63 17 58 C16 56 16 53 16 50 C17 48 18 46 21 46 C24 46 25 48 26 50 C28 55 30 60 32 64 C38 73 44 81 51 90 C106 164 162 236 222 306 C265 357 310 406 354 456 C378 482 401 508 424 534 C432 544 439 556 447 567 C450 572 453 579 454 586 C457 597 452 607 442 612 L442 612 Z M-14 -10 C-17 -9 -19 -10 -21 -12 C-25 -18 -29 -23 -33 -29 C-33 -30 -34 -32 -34 -33 C-34 -35 -34 -37 -31 -38 C-29 -39 -28 -38 -26 -36 C-21 -31 -17 -26 -12 -21 C-11 -20 -10 -18 -10 -17 C-10 -14 -11 -11 -14 -10 L-14 -10 Z " />
<glyph glyph-name="at" unicode="&#x40;" horiz-adv-x="410" d="M237 279 C221 256 203 223 206 193 C208 186 213 182 221 182 C239 180 266 208 281 224 C339 285 438 421 430 494 C425 540 372 550 333 539 C267 525 209 476 160 427 C79 341 -46 157 -14 28 C2 -14 40 -29 83 -21 C106 -17 128 -9 148 3 C182 23 210 49 233 80 C254 109 273 139 291 170 C291 173 294 175 291 178 C287 182 284 176 282 173 C277 166 272 158 266 150 C248 123 230 96 209 71 C171 27 113 -12 51 -8 C27 -5 7 11 0 35 C-27 123 49 257 99 331 C132 381 171 425 217 463 C256 494 306 530 361 533 C386 533 413 524 420 496 C428 413 262 204 222 198 C225 225 241 252 256 278 C267 297 279 316 291 335 C293 337 295 344 291 347 C287 351 283 347 280 343 C260 317 234 294 203 265 C210 279 221 302 216 319 C214 326 209 330 202 330 C191 333 177 321 163 311 C121 275 62 212 54 170 C53 161 57 151 71 154 C86 157 102 166 120 179 C154 204 185 232 237 279 L237 279 Z M201 313 C201 298 190 284 189 268 C188 262 188 260 192 255 C155 225 120 194 77 173 C79 187 94 204 101 215 C118 238 136 259 156 279 C158 282 198 317 201 313 L201 313 Z " />
<glyph glyph-name="A" unicode="A" horiz-adv-x="697" d="M152 56 C143 39 137 28 132 17 C131 15 128 8 134 9 C137 9 138 12 140 16 C150 35 159 47 171 65 C178 75 186 89 188 93 C193 102 185 112 177 108 C171 106 159 95 152 89 C136 74 124 62 108 47 C132 87 161 122 190 159 C192 161 194 162 197 162 C232 163 267 163 302 162 C358 159 425 149 420 74 C416 44 407 14 392 -13 C378 -40 363 -68 348 -95 C344 -100 340 -109 347 -114 C352 -117 358 -116 363 -108 C402 -51 436 11 475 80 C525 168 570 258 617 347 C641 343 668 336 688 314 C699 303 689 288 682 277 C681 275 680 272 682 271 C684 269 687 270 689 272 C692 276 695 280 697 284 C705 300 703 313 691 325 C675 343 648 350 623 358 C645 405 670 452 690 499 C705 534 744 629 729 662 C726 672 718 676 708 675 C678 671 635 635 607 611 C546 558 487 503 429 446 C396 414 364 380 332 347 C329 344 326 342 322 341 C312 339 301 336 291 333 C202 311 115 284 30 252 C0 239 -37 226 -58 206 C-70 194 -75 176 -58 166 C-31 151 33 155 73 157 C104 158 136 160 167 161 C124 109 83 55 47 -3 C40 -17 30 -30 25 -46 C24 -54 31 -61 39 -61 C49 -59 57 -50 63 -42 C89 -12 117 18 152 56 L152 56 Z M426 52 C428 61 429 70 430 78 C437 152 367 171 296 172 C265 173 233 173 202 173 C240 221 281 267 323 312 C327 318 332 323 337 328 C339 330 341 331 344 332 C378 340 411 347 446 352 C492 359 541 359 589 352 C536 251 480 152 426 52 L426 52 Z M594 363 C555 369 515 371 476 369 C436 367 398 358 358 350 C423 419 493 488 576 563 C612 593 647 624 691 649 C696 651 709 658 710 649 C710 628 705 609 698 588 C686 553 672 519 656 486 C636 447 612 398 594 363 L594 363 Z M309 323 C265 275 221 227 180 176 C178 174 175 173 172 173 C132 171 92 170 52 169 C20 167 -26 167 -52 178 C-57 181 -58 185 -55 189 C-38 210 6 230 38 242 C127 274 216 302 309 323 L309 323 Z " />
<glyph glyph-name="B" unicode="B" horiz-adv-x="610" d="M1 -173 C38 -196 92 -188 134 -174 C204 -151 262 -95 318 -34 C389 47 456 135 510 232 C521 253 532 275 538 299 C539 299 539 300 539 301 C559 304 578 310 602 312 C605 312 608 313 610 312 C608 309 607 308 605 306 C603 304 603 301 605 300 C607 298 609 298 611 300 C614 303 617 305 619 309 C624 318 615 325 605 324 C584 323 563 319 542 315 C542 321 542 326 542 332 C540 350 529 364 512 369 C492 374 470 370 446 363 C405 352 366 336 328 318 C358 353 390 385 419 420 C449 455 478 490 505 527 C525 554 546 585 552 620 C556 642 544 659 522 664 C484 672 438 655 398 642 C402 653 406 663 409 674 C410 679 411 686 411 691 C410 701 401 705 394 699 C373 680 360 658 351 640 C349 635 347 629 352 623 C350 622 348 622 346 621 C286 596 228 566 172 532 C127 505 85 476 45 442 C38 436 31 429 24 422 C19 417 16 410 21 404 C26 399 32 402 38 405 C54 416 72 426 90 435 C108 443 126 452 148 453 C158 453 163 449 165 440 C168 421 160 398 153 380 C141 350 130 320 118 290 C109 268 95 230 100 212 C103 201 112 196 123 198 C136 201 146 212 156 223 C171 240 183 257 196 275 C224 316 250 359 275 402 C315 471 354 541 386 614 C388 617 389 618 392 619 C411 625 430 631 448 636 C471 643 494 646 518 642 C538 638 525 609 519 597 C496 551 461 510 419 463 C379 417 338 373 298 328 C287 316 277 304 267 292 C260 287 258 276 264 269 C270 263 278 267 285 270 C293 276 302 282 310 287 C350 312 393 332 438 346 C459 353 510 368 520 337 C522 328 521 319 518 310 C493 305 468 296 439 288 C397 275 357 257 317 238 C247 205 180 165 119 116 C56 64 -42 -28 -31 -121 C-28 -143 -17 -160 1 -173 L1 -173 Z M513 294 C503 267 488 242 473 217 C417 130 354 45 273 -43 C231 -88 181 -137 115 -158 C88 -166 58 -172 28 -163 C5 -156 -9 -137 -11 -113 C-17 -38 61 39 116 87 C181 142 253 186 330 223 C377 246 424 265 473 282 C486 286 500 290 513 294 L513 294 Z M123 232 C127 264 140 293 149 325 C156 348 164 371 171 394 C176 410 180 427 176 444 C173 458 162 466 148 467 C128 467 111 461 92 454 C138 491 188 522 240 549 C277 569 315 587 354 604 C331 560 306 517 281 474 C243 409 202 345 161 281 C150 265 137 247 124 232 C123 232 123 232 123 232 L123 232 Z M388 675 C383 661 377 649 371 635 C368 629 367 628 359 627 C358 631 359 634 360 637 C366 650 376 664 388 675 L388 675 Z " />
<glyph glyph-name="C" unicode="C" horiz-adv-x="606" d="M340 319 C331 310 322 289 321 275 C319 263 328 254 340 255 C361 260 377 276 395 293 C435 333 468 378 497 427 C526 477 581 597 506 638 C438 676 351 632 287 589 C164 500 78 368 14 216 C-21 129 -64 -15 24 -80 C72 -116 137 -113 193 -89 C263 -54 322 1 381 58 C430 107 479 156 528 205 C556 232 583 260 609 289 C613 293 618 298 606 300 C545 238 483 178 421 117 C362 59 301 0 225 -49 C180 -78 126 -96 71 -80 C-36 -42 -10 81 17 165 C61 303 141 438 253 539 C311 592 400 660 488 631 C548 611 530 534 509 488 C477 419 432 358 375 306 C372 303 360 294 349 287 C359 310 375 335 390 362 C396 372 402 379 401 388 C400 395 393 398 386 394 C383 392 381 390 379 387 C362 372 346 352 334 330 C331 323 333 322 340 319 L340 319 Z " />
<glyph glyph-name="D" unicode="D" horiz-adv-x="544" d="M572 609 C556 636 528 638 501 631 C451 616 412 581 373 552 C309 501 250 447 191 391 C145 347 100 302 55 258 C39 241 20 226 3 211 C18 242 26 262 40 285 C66 330 93 374 120 419 C150 468 179 517 208 567 C229 603 260 662 258 689 C257 698 249 703 240 700 C217 693 183 658 176 633 C174 626 178 620 185 619 C188 618 192 617 195 616 C197 615 199 615 200 617 C202 619 202 622 200 624 C197 627 192 629 189 630 C202 653 219 669 239 684 C239 673 224 644 215 627 C194 590 171 555 148 519 C118 474 88 429 59 384 C34 344 10 304 -11 262 C-22 240 -33 218 -33 196 C-33 179 -22 169 -6 171 C10 173 35 196 45 208 C67 231 88 254 110 277 C187 360 269 440 355 514 C399 552 444 590 496 611 C518 620 549 622 558 596 C572 553 555 506 542 468 C517 403 484 342 448 282 C447 281 445 279 443 278 C415 265 388 252 360 238 C305 211 251 182 200 149 C118 95 41 39 -11 -36 C-35 -72 -59 -118 -49 -159 C-44 -179 -31 -193 -11 -197 C73 -213 201 -87 256 -26 C305 28 350 87 391 148 C419 189 446 230 471 273 C472 274 473 276 474 277 C480 279 486 281 494 282 C492 279 491 277 490 275 C489 272 489 270 491 269 C493 267 496 267 498 270 C500 273 503 276 504 280 C506 287 503 292 495 293 C492 294 488 293 483 293 C484 295 485 297 486 299 C500 323 513 348 526 373 C558 436 605 554 572 609 L572 609 Z M262 16 C202 -56 72 -195 -5 -181 C-20 -178 -30 -169 -33 -154 C-39 -120 -22 -84 -5 -58 C38 12 106 64 169 107 C232 152 298 190 367 226 C388 237 412 249 433 258 C380 174 325 93 262 16 L262 16 Z " />
<glyph glyph-name="E" unicode="E" horiz-adv-x="437" d="M282 434 C312 472 349 540 352 579 C353 595 343 605 328 607 C259 614 147 516 99 473 C78 453 53 430 43 401 C39 387 42 374 54 364 C72 346 111 344 143 336 C152 334 184 326 177 316 C168 297 152 282 136 263 C77 196 22 127 -20 40 C-35 8 -53 -42 -41 -72 C-36 -85 -26 -92 -12 -93 C29 -94 107 -20 150 22 C223 94 297 164 373 232 C381 240 424 279 438 289 C443 293 443 299 437 300 C437 300 400 268 382 251 C344 217 305 183 267 149 C210 96 153 44 94 -6 C67 -30 21 -70 -7 -72 C-16 -73 -21 -69 -23 -61 C-30 -24 5 40 31 81 C79 163 189 277 201 310 C209 328 203 343 185 351 C150 365 105 365 74 380 C66 385 64 389 68 397 C79 416 92 432 111 450 C140 478 170 504 201 528 C226 547 289 594 328 590 C337 589 336 578 334 569 C322 527 302 488 273 445 C270 442 265 435 270 431 C273 429 277 428 282 434 L282 434 Z " />
<glyph glyph-name="F" unicode="F" horiz-adv-x="455" d="M711 549 C693 559 674 562 655 565 C572 574 488 574 407 571 C308 571 68 555 10 520 C0 514 -7 510 -6 500 C-4 492 7 492 13 492 C80 492 139 498 195 485 C250 471 270 433 259 378 C255 359 249 341 242 324 C238 313 233 302 229 291 C198 288 172 285 147 282 C136 282 122 281 113 279 C79 273 46 265 13 257 C8 255 3 253 3 247 C5 238 11 239 19 241 C41 246 63 250 85 255 C130 263 175 271 220 275 C208 253 195 230 183 207 C138 121 96 34 57 -55 C55 -62 51 -71 58 -76 C71 -83 77 -66 80 -59 C140 56 199 168 259 279 C266 279 273 280 281 280 C302 280 332 278 344 270 C351 265 344 257 338 254 C333 251 327 248 322 245 C319 243 314 242 316 238 C316 235 322 237 324 238 C338 245 348 249 354 257 C359 264 358 271 352 277 C346 283 336 287 324 289 C303 293 285 293 267 293 C270 299 273 304 276 310 C319 389 365 468 417 543 C420 547 422 552 421 558 C506 559 574 560 643 554 C664 551 687 551 704 541 C710 537 711 534 707 528 C706 525 704 523 702 520 C701 518 701 515 702 513 C704 512 707 512 709 515 C712 518 714 521 716 524 C722 534 720 544 711 549 L711 549 Z M400 557 C357 502 348 492 339 481 C338 479 336 477 337 475 C338 473 337 471 336 470 C314 437 273 380 265 356 C287 438 258 482 185 497 C124 509 66 503 9 503 C74 539 304 557 400 557 L400 557 Z " />
<glyph glyph-name="G" unicode="G" horiz-adv-x="480" d="M-91 -134 C-89 -161 -63 -172 -39 -166 C11 -155 55 -118 95 -83 C133 -47 167 -7 198 34 C230 74 258 116 286 159 C288 162 290 164 293 165 C322 177 390 201 418 177 C420 172 418 166 425 167 C430 168 430 174 429 179 C428 183 427 186 421 189 C383 209 333 197 304 185 C383 313 460 448 521 583 C536 615 550 648 562 681 C566 690 573 706 562 710 C552 715 550 709 541 701 C531 689 521 677 511 665 C452 591 391 518 329 447 C328 445 326 444 325 443 C325 452 329 459 328 469 C326 477 321 482 313 482 C295 481 271 459 250 439 C218 408 190 373 165 337 C147 311 97 240 100 210 C100 199 108 190 119 193 C130 196 137 201 147 210 C165 225 180 243 195 260 C227 298 259 336 290 373 C292 375 294 377 297 377 C301 377 303 380 303 383 C303 388 305 391 308 394 C329 419 350 443 371 468 C425 533 480 598 534 663 C525 636 512 611 500 586 C473 528 442 471 411 415 C367 335 322 256 273 178 C272 175 270 173 266 172 C221 156 177 138 134 118 C102 103 72 87 43 66 C-18 25 -99 -52 -91 -134 L-91 -134 Z M256 151 C221 98 185 45 144 -4 C119 -33 94 -61 65 -86 C35 -112 -20 -152 -55 -152 C-67 -152 -74 -146 -76 -134 C-83 -66 -1 13 52 53 C84 76 119 94 155 110 C188 124 222 139 256 151 L256 151 Z M313 467 C312 462 312 459 311 455 C306 440 300 425 295 409 C294 407 292 405 290 403 C262 371 234 339 206 308 C182 283 160 255 132 233 C139 248 146 263 154 277 C180 320 208 362 240 401 C257 423 293 462 313 467 L313 467 Z " />
<glyph glyph-name="H" unicode="H" horiz-adv-x="523" d="M620 706 C614 711 607 708 602 703 C542 635 483 536 437 455 C419 421 371 330 349 283 C307 285 265 286 221 284 C260 363 300 440 340 517 C348 517 349 520 349 525 C347 530 353 538 354 542 C375 582 395 612 421 657 C424 663 426 669 421 674 C411 681 402 669 396 659 C320 532 251 411 188 287 C186 283 183 281 179 281 C140 274 104 269 69 262 C39 256 -14 246 -31 239 C-34 238 -35 235 -35 232 C-34 229 -32 227 -28 227 C12 232 69 248 113 230 C136 221 133 197 127 177 C123 163 116 150 109 137 C84 95 63 59 45 23 C40 14 35 2 45 -4 C54 -11 63 -2 68 4 C92 37 115 78 135 116 C162 167 188 218 214 269 C215 272 218 274 221 274 C263 276 304 278 345 274 C303 186 261 98 221 8 C193 -55 168 -114 155 -164 C154 -171 153 -183 163 -183 C166 -183 171 -180 172 -177 C173 -173 171 -171 168 -169 C168 -169 168 -168 168 -167 C181 -129 195 -92 211 -56 C261 55 314 165 369 273 C399 271 431 270 453 254 C457 251 458 248 455 244 C453 241 453 239 455 237 C457 236 459 239 459 239 C465 247 464 254 457 260 C434 278 398 278 373 281 C448 427 525 567 619 693 C622 697 624 700 620 706 L620 706 Z M142 202 C140 219 133 229 123 236 C104 247 88 248 67 249 C104 258 140 265 179 270 C167 247 155 224 142 202 L142 202 Z " />
<glyph glyph-name="I" unicode="I" horiz-adv-x="343" d="M558 619 C539 630 444 634 390 638 C397 651 404 663 406 672 C407 678 401 682 395 680 C389 678 382 672 379 670 C366 661 354 651 341 642 C339 640 337 639 334 639 C307 640 280 640 254 640 C185 640 119 632 61 622 C57 621 55 619 55 616 C54 613 56 609 59 609 C72 607 103 613 146 617 C210 623 266 627 321 627 C314 622 308 618 301 615 C301 616 301 617 301 619 C299 623 294 624 291 621 C288 618 287 607 290 603 C291 602 294 600 296 600 C298 600 301 600 303 601 C306 602 309 604 312 606 C320 613 328 619 337 625 C338 626 339 628 341 628 C347 628 353 628 360 628 C211 426 84 210 -22 -17 C-57 -19 -88 -21 -119 -26 C-150 -31 -179 -38 -208 -47 C-212 -49 -215 -52 -213 -56 C-210 -62 -198 -58 -195 -57 C-110 -36 -64 -34 -28 -31 C-39 -60 -55 -88 -52 -113 C-51 -121 -46 -127 -38 -127 C-33 -127 -29 -126 -24 -125 C-20 -124 -19 -121 -20 -118 C-21 -115 -24 -114 -27 -114 C-35 -115 -38 -116 -39 -110 C-40 -101 -23 -53 -10 -30 C47 -28 116 -22 171 -32 C171 -33 171 -34 170 -34 C169 -36 170 -38 172 -39 C173 -41 175 -40 177 -39 C182 -34 183 -26 176 -24 C129 -9 52 -16 -3 -16 C106 209 247 413 381 624 C383 627 384 627 387 627 C448 625 508 621 550 614 C556 613 556 610 556 607 C555 605 555 603 557 603 C559 602 561 603 562 604 C567 609 563 617 558 619 L558 619 Z M370 641 C368 639 367 639 365 639 C362 639 359 639 356 639 C359 643 375 655 382 659 C378 653 374 647 370 641 L370 641 Z " />
<glyph glyph-name="J" unicode="J" horiz-adv-x="440" d="M352 225 C316 218 286 208 251 198 C293 268 333 340 369 413 C403 484 439 567 439 630 C439 659 426 689 399 696 C365 704 330 688 303 673 C273 657 245 637 218 616 C158 570 102 518 51 462 C34 443 -28 373 -28 357 C-28 352 -25 350 -20 351 C-12 353 -4 358 1 361 C1 361 5 363 5 368 C5 373 -3 372 -5 371 C62 461 140 540 228 608 C254 628 280 646 308 662 C338 677 363 687 388 685 C407 684 423 664 423 644 C423 568 378 478 346 418 C306 340 262 264 217 189 C216 186 214 184 211 183 C184 173 157 163 130 151 C92 135 57 115 26 88 C-21 47 -57 -2 -80 -59 C-91 -90 -100 -124 -90 -153 C-79 -178 -52 -179 -30 -169 C-7 -159 28 -127 48 -102 C75 -70 100 -37 123 -2 C164 57 203 119 240 180 C242 184 245 186 249 188 C269 194 283 199 302 204 C341 215 382 226 411 221 C419 220 420 216 417 209 C417 207 417 206 418 205 C419 204 421 204 422 206 C426 211 427 216 421 222 C408 235 364 227 352 225 L352 225 Z M72 -39 C42 -81 11 -124 -29 -150 C-44 -160 -68 -168 -76 -149 C-96 -99 -42 -6 -12 30 C23 75 68 109 118 135 C148 150 179 160 207 172 C166 100 119 30 72 -39 L72 -39 Z " />
<glyph glyph-name="K" unicode="K" horiz-adv-x="485" d="M661 651 C630 649 600 627 576 610 C557 596 540 583 528 566 C523 559 524 554 527 547 C528 543 533 542 536 544 C539 546 540 549 539 553 C538 555 537 556 536 557 C552 580 599 613 632 630 C640 634 651 638 658 638 C648 613 568 546 532 516 C440 443 345 374 247 309 C203 280 158 253 111 228 C149 296 187 363 225 429 C287 535 349 640 412 743 C416 749 420 756 423 762 C428 771 426 774 421 777 C415 781 412 777 407 771 C375 733 345 694 315 655 C298 634 254 581 257 570 C258 567 260 565 263 565 C268 565 269 574 271 576 C285 598 310 632 332 654 C280 575 230 494 184 411 C148 346 113 280 77 214 C76 211 74 209 71 207 C56 202 41 196 26 190 C23 189 20 189 16 189 C-5 195 -46 198 -63 185 C-69 180 -69 171 -61 167 C-37 156 -1 166 21 171 C29 175 44 168 52 166 C51 163 50 162 49 160 C21 104 -7 49 -33 -7 C-44 -33 -64 -72 -62 -92 C-61 -102 -55 -106 -46 -103 C-35 -98 -27 -89 -21 -81 C-18 -78 -18 -73 -21 -71 C-24 -68 -28 -68 -31 -71 C-35 -73 -38 -77 -41 -80 C-37 -65 -29 -50 -23 -35 C7 31 41 95 75 159 C103 150 132 140 158 127 C243 87 327 44 387 -18 C401 -34 414 -51 405 -71 C403 -75 404 -78 407 -79 C409 -80 412 -79 414 -74 C426 -51 408 -25 394 -9 C339 48 269 86 204 120 C159 143 120 159 81 172 C86 181 91 190 96 199 C96 201 98 201 100 202 C147 225 192 251 236 279 C360 356 476 443 586 539 C610 560 668 610 672 638 C673 646 669 651 661 651 L661 651 Z M-40 178 C-40 178 -40 178 -40 179 C-34 179 -28 180 -22 180 C-22 179 -22 179 -22 178 C-28 178 -34 178 -40 178 L-40 178 Z M59 179 C56 180 54 180 51 181 C55 183 59 184 62 185 C61 183 60 181 59 179 L59 179 Z " />
<glyph glyph-name="L" unicode="L" horiz-adv-x="410" d="M413 25 C335 74 138 32 10 -16 C40 21 78 78 110 128 C199 267 285 409 370 550 C390 583 424 643 425 661 C426 669 419 675 410 673 C398 670 390 664 379 657 C347 635 281 585 271 559 C270 553 272 548 279 549 C283 550 288 552 293 553 C296 554 297 556 297 558 C296 561 294 562 291 561 C289 561 287 560 285 560 C306 585 348 622 392 651 C397 654 403 657 411 659 C396 621 372 586 349 549 C262 413 178 275 79 122 C43 67 7 13 -39 -41 C-45 -46 -50 -53 -44 -60 C-38 -66 -27 -61 -21 -55 C17 -30 58 -11 102 1 C193 27 346 50 404 19 C416 12 421 2 420 -13 C420 -16 418 -22 423 -25 C429 -25 429 -18 430 -12 C430 3 426 17 413 25 L413 25 Z " />
<glyph glyph-name="M" unicode="M" horiz-adv-x="607" d="M289 186 C298 216 308 243 316 268 C342 338 368 407 394 477 C409 519 423 562 432 605 C436 628 442 659 430 681 C425 691 416 697 403 697 C352 694 282 619 244 580 C244 591 244 602 238 612 C231 624 219 627 205 623 C185 617 155 593 141 570 C139 566 136 561 141 559 C144 558 146 560 149 564 C165 583 184 602 209 609 C215 610 218 609 220 603 C222 589 222 579 221 563 C221 559 219 556 216 553 C196 531 175 510 155 488 C73 397 -6 301 -67 184 C-89 139 -133 40 -112 -3 C-106 -17 -93 -25 -78 -24 C-35 -24 18 40 47 81 C126 194 180 328 223 465 C232 494 239 523 243 553 C243 557 245 560 248 563 C292 604 358 673 400 678 C423 680 418 641 416 627 C408 572 377 496 352 431 C329 372 306 313 287 253 C278 228 264 178 264 166 C261 155 272 147 282 156 C317 191 345 232 383 281 C422 329 462 376 504 420 C525 442 567 483 586 487 C589 488 591 487 591 483 C589 457 569 397 551 349 C504 219 439 -2 459 -60 C463 -68 472 -73 483 -66 C486 -64 487 -60 486 -57 C483 -53 479 -52 474 -54 C479 17 505 134 538 235 C552 277 567 319 581 361 C593 398 608 460 605 487 C602 500 595 501 585 500 C567 496 531 462 508 438 C455 383 405 324 355 264 C333 238 311 212 289 186 L289 186 Z M214 527 C207 494 190 448 174 405 C129 292 82 175 9 74 C-1 60 -69 -26 -91 7 C-107 42 -74 124 -55 166 C-5 271 68 365 148 455 C168 478 192 504 214 527 L214 527 Z " />
<glyph glyph-name="N" unicode="N" horiz-adv-x="410" d="M443 594 C402 576 353 519 317 479 C262 418 210 354 158 290 C133 259 107 227 81 196 C67 179 50 162 39 156 C37 164 43 192 48 207 C56 232 65 255 76 279 C103 338 133 395 165 450 C194 501 247 585 252 608 C254 618 247 624 237 624 C213 623 189 612 172 601 C166 598 144 585 152 577 C155 574 164 575 164 583 C181 594 212 612 239 611 C235 596 203 548 185 519 C146 458 109 396 77 332 C57 291 39 251 27 208 C21 186 16 159 21 146 C25 137 33 133 42 136 C52 139 70 155 80 168 C99 191 117 214 136 237 C186 304 237 369 291 433 C321 468 352 502 384 535 C399 550 435 582 452 581 C452 566 425 509 411 481 C351 363 304 251 261 136 C241 80 221 24 207 -33 C203 -48 196 -80 202 -90 C206 -97 215 -97 220 -91 C225 -86 219 -81 214 -81 C218 -48 229 -11 239 20 C265 97 295 173 327 247 C353 307 380 364 408 423 C431 470 461 532 467 574 C469 590 457 600 443 594 L443 594 Z " />
<glyph glyph-name="O" unicode="O" horiz-adv-x="495" d="M28 -42 C26 -37 25 -33 24 -29 C15 22 14 72 24 134 C44 251 97 365 182 466 C232 521 299 576 378 585 C416 588 452 573 466 534 C507 397 393 197 324 93 C294 49 242 -20 194 -33 C182 -35 174 -32 168 -22 C122 46 208 218 240 281 C259 318 299 375 319 390 C323 393 328 396 333 398 C344 403 346 388 345 378 C340 332 318 291 305 244 C303 239 303 228 311 228 C314 229 316 231 315 234 C327 281 349 322 356 371 C359 389 355 415 329 410 C323 407 317 406 310 400 C289 388 258 345 236 309 C186 228 96 39 152 -37 C163 -51 177 -57 195 -54 C234 -49 289 8 323 55 C408 175 534 401 483 542 C459 600 401 614 343 600 C265 579 201 528 147 460 C71 361 25 250 6 127 C-1 73 3 14 19 -39 C19 -44 26 -51 31 -48 C37 -45 32 -39 28 -42 L28 -42 Z " />
<glyph glyph-name="P" unicode="P" horiz-adv-x="410" d="M18 33 C0 -1 -27 -44 -44 -75 C-36 -34 -29 -17 -18 12 C26 121 77 228 137 342 C171 407 207 470 248 531 C251 534 251 538 248 542 C243 547 239 543 235 539 C208 507 174 457 147 412 C111 353 78 292 48 230 C15 163 -15 95 -40 25 C-53 -10 -63 -45 -70 -81 C-72 -92 -78 -115 -61 -119 C-51 -123 -42 -111 -37 -104 C-29 -92 -22 -80 -15 -67 C8 -25 31 17 54 60 C137 219 238 365 356 500 C383 532 439 590 462 591 C463 580 459 546 452 524 C441 489 428 455 413 422 C374 337 330 245 263 176 C250 163 232 148 212 145 C201 143 195 148 194 159 C189 210 292 306 341 315 C341 308 337 300 334 292 C333 290 330 286 334 284 C338 282 339 284 341 287 C344 293 347 300 350 307 C354 317 352 327 340 327 C286 327 167 214 177 154 C179 142 187 132 199 129 C231 121 264 151 288 174 C344 234 383 309 419 387 C440 432 457 478 470 525 C476 545 480 578 477 594 C475 604 467 610 459 608 C435 603 398 568 377 545 C308 468 244 387 184 303 C123 216 69 126 18 33 L18 33 Z " />
<glyph glyph-name="Q" unicode="Q" horiz-adv-x="512" d="M85 -62 C87 -72 98 -84 117 -85 C148 -85 176 -54 209 -21 C212 -18 215 -16 218 -15 C247 -8 276 -2 305 2 C331 6 376 9 393 -2 C399 -6 401 -12 400 -18 C399 -25 395 -33 390 -39 C389 -41 389 -43 391 -44 C392 -46 394 -45 395 -43 C400 -36 405 -28 407 -19 C408 -9 405 -1 397 4 C376 18 330 15 292 10 C271 7 250 2 229 0 C246 18 262 37 277 55 C341 132 396 214 445 300 C488 381 551 498 521 590 C507 632 468 649 423 645 C327 629 251 547 189 474 C93 359 7 220 -34 71 C-45 26 -63 -58 2 -74 C29 -80 57 -71 85 -62 L85 -62 Z M81 -43 C59 -49 30 -61 6 -52 C-37 -36 -22 30 -15 63 C16 183 103 328 159 405 C218 486 340 638 446 630 C475 629 496 615 507 588 C529 511 493 430 456 357 C411 270 355 190 294 113 C264 76 234 40 201 6 C196 1 192 -3 187 -8 C184 -11 181 -13 177 -14 C154 -21 130 -31 106 -35 C106 76 199 238 263 332 C290 370 330 418 365 435 C375 441 378 434 380 427 C380 411 375 395 369 379 C367 370 361 360 365 351 C366 346 372 344 377 346 C381 348 383 354 380 359 C379 369 386 392 389 403 C391 411 392 420 391 429 C389 442 379 450 365 448 C323 438 272 379 234 327 C179 248 72 67 81 -39 C81 -40 81 -41 81 -43 L81 -43 Z M152 -39 C147 -47 116 -69 110 -54 C124 -49 138 -44 152 -39 L152 -39 Z " />
<glyph glyph-name="R" unicode="R" horiz-adv-x="450" d="M257 528 C257 517 251 507 249 496 C247 492 245 489 242 487 C217 466 193 444 169 422 C108 363 52 300 2 231 C-48 161 -97 84 -119 -2 C-123 -19 -125 -37 -118 -57 C-113 -66 -103 -71 -93 -69 C-55 -63 -22 -16 -1 14 C12 32 24 50 36 68 C38 70 40 72 43 73 C64 77 88 78 114 80 C188 81 333 76 396 25 C405 15 402 7 400 -6 C399 -9 399 -11 401 -12 C404 -13 405 -12 406 -9 C413 6 414 21 401 33 C337 90 162 94 78 93 C205 177 328 288 423 410 C459 455 508 520 510 576 C509 596 496 607 477 610 C451 614 414 602 384 585 C342 563 303 535 265 506 C266 513 268 520 268 527 C267 535 261 539 254 535 C239 527 222 507 210 489 C209 487 207 484 206 481 C206 479 206 478 208 477 C210 477 212 478 212 480 C213 484 215 487 217 490 C230 506 241 517 257 528 L257 528 Z M58 100 C116 197 171 296 219 399 C232 424 243 451 255 477 C255 479 257 481 258 482 C300 516 343 547 391 572 C417 586 452 603 478 598 C510 591 487 542 476 522 C461 494 443 467 423 442 C384 391 341 343 296 297 C235 236 133 150 58 100 L58 100 Z M0 55 C-18 25 -42 -12 -76 -40 C-82 -45 -100 -57 -103 -42 C-106 -25 -101 0 -95 20 C-68 107 -14 187 55 277 C92 323 132 367 175 408 C192 425 208 441 233 460 C216 427 201 393 177 350 C128 262 77 176 24 91 C21 86 18 85 14 84 C-5 81 -23 77 -41 71 C-49 68 -65 63 -62 51 C-57 37 -31 46 -19 49 C-13 51 -7 53 0 55 L0 55 Z " />
<glyph glyph-name="S" unicode="S" horiz-adv-x="495" d="M490 660 C448 665 372 620 327 594 C249 545 58 426 21 338 C16 321 22 308 36 298 C58 284 98 281 133 278 C188 271 260 271 310 243 C356 216 336 153 312 107 C310 104 308 102 305 99 C234 53 163 7 99 -59 C78 -80 39 -130 44 -154 C45 -163 52 -170 61 -171 C76 -173 97 -163 110 -155 C129 -143 146 -129 162 -114 C202 -78 238 -38 271 4 C294 34 315 66 332 99 C335 104 338 108 343 111 C384 136 425 160 468 180 C482 186 495 191 509 195 C516 197 522 198 529 198 C537 198 542 195 544 187 C545 187 545 185 546 185 C547 181 548 180 552 183 C552 184 552 185 552 186 C552 187 551 187 551 188 C549 198 540 205 530 206 C523 206 517 205 511 204 C492 200 473 192 455 184 C418 166 381 146 345 124 C360 168 374 223 327 257 C279 291 205 294 137 300 C108 302 76 305 54 313 C41 319 38 325 44 338 C82 412 249 521 322 570 C362 597 455 652 487 647 C493 646 495 643 495 637 C492 612 438 534 403 485 C373 444 344 402 318 355 C316 350 309 335 319 333 C326 331 332 335 331 344 C338 364 358 388 375 412 C401 450 426 488 452 526 C474 556 509 611 508 640 C508 651 501 659 490 660 L490 660 Z M298 82 C273 39 240 -1 208 -37 C181 -65 154 -92 124 -117 C109 -130 77 -149 62 -151 C67 -118 108 -75 122 -60 C174 -5 234 40 298 82 L298 82 Z " />
<glyph glyph-name="T" unicode="T" horiz-adv-x="413" d="M413 611 C409 603 403 596 400 589 C399 585 396 585 393 584 C276 584 160 564 37 532 C-1 522 -67 497 -74 466 C-87 417 4 415 42 413 C111 408 175 396 168 310 C162 254 130 185 103 126 C86 86 68 47 53 7 C46 -12 35 -42 38 -59 C39 -70 49 -76 58 -72 C65 -69 71 -63 76 -56 C191 118 303 369 409 572 C448 573 489 574 529 572 C552 571 624 565 620 533 C620 529 616 523 621 520 C626 519 629 531 629 536 C629 582 541 583 501 585 C473 587 444 586 417 586 C427 604 437 623 447 640 C450 645 455 653 447 657 C441 660 436 655 431 651 C424 643 391 614 395 606 C396 604 398 602 401 602 C405 602 406 603 413 611 L413 611 Z M390 571 C279 375 180 173 68 -22 C77 12 93 46 106 79 C132 145 163 209 180 283 C199 368 155 413 72 425 C38 430 -59 431 -53 459 C-47 484 -4 498 31 511 C144 546 265 567 390 571 L390 571 Z " />
<glyph glyph-name="U" unicode="U" horiz-adv-x="400" d="M138 -187 C147 -158 161 -126 178 -86 C230 35 286 153 344 272 C381 349 417 426 461 500 C480 525 500 549 519 575 C539 602 558 631 575 661 C579 670 585 680 587 693 C588 699 585 703 578 702 C570 700 565 695 554 684 C500 623 460 549 415 468 C407 451 396 436 384 422 C309 334 233 247 155 161 C124 128 92 95 60 64 C45 51 -4 8 -21 8 C-23 21 -9 72 3 100 C48 207 95 315 143 421 C152 442 164 468 165 489 C164 499 156 503 148 498 C130 489 97 455 94 438 C94 433 98 431 102 431 C105 432 109 432 112 431 C115 431 116 433 116 435 C117 437 115 439 112 439 C109 440 107 439 105 439 C111 452 140 482 150 485 C146 469 139 454 131 437 C89 343 42 252 2 157 C-13 124 -50 34 -39 3 C-37 -6 -30 -12 -21 -11 C-6 -11 11 2 24 12 C51 33 75 58 99 83 C147 131 191 181 235 232 C283 287 330 342 377 397 C367 372 354 347 342 323 C293 219 246 114 200 9 C179 -42 157 -91 139 -143 C132 -159 121 -193 122 -199 C123 -205 128 -208 133 -205 C137 -203 140 -197 138 -187 L138 -187 Z M569 676 C565 663 513 588 494 568 C498 577 553 662 569 676 L569 676 Z " />
<glyph glyph-name="V" unicode="V" horiz-adv-x="365" d="M141 411 C143 410 145 409 147 410 C149 412 148 414 147 416 C145 421 145 424 147 430 C153 449 159 468 164 487 C170 507 175 527 180 547 C181 552 185 564 176 566 C170 568 165 557 163 552 C152 526 145 499 141 472 C140 464 139 456 137 449 C106 360 77 271 50 182 C29 113 10 43 -1 -28 C-5 -50 -8 -90 0 -102 C5 -111 13 -112 22 -109 C38 -102 65 -62 88 -22 C155 90 224 201 296 309 C383 436 470 561 567 680 C565 673 564 670 563 664 C560 657 568 657 570 662 C572 668 574 675 577 682 C578 685 579 690 576 692 C572 695 568 692 565 689 C488 607 422 507 355 417 C259 284 168 149 73 -8 C58 -32 33 -73 17 -87 C14 -75 16 -50 20 -28 C27 14 36 56 48 97 C72 187 99 277 127 367 C132 382 136 396 141 411 L141 411 Z " />
<glyph glyph-name="W" unicode="W" horiz-adv-x="545" d="M159 217 C165 225 189 253 209 271 C204 224 193 177 182 114 C172 57 155 -58 181 -103 C190 -118 204 -123 221 -118 C255 -109 314 -21 341 24 C410 140 476 261 526 391 C563 494 581 647 523 685 C515 690 504 690 497 683 C488 674 485 663 478 649 C478 648 477 640 481 640 C486 640 487 643 489 647 C492 654 497 667 504 672 C508 676 512 677 517 673 C577 612 520 432 484 351 C432 235 371 124 303 17 C268 -39 236 -78 207 -90 C186 -69 194 31 203 99 C210 147 229 246 225 281 C222 290 214 293 206 289 C189 280 164 248 147 227 C103 172 62 116 21 59 C9 42 -5 24 -18 8 C-1 76 28 142 59 217 C103 322 153 423 210 522 C222 543 234 563 246 584 C248 587 253 595 249 598 C245 601 242 597 238 593 C215 564 175 525 164 494 C163 491 166 489 168 488 C171 488 173 490 174 493 C180 504 195 531 211 546 C189 510 168 475 148 438 C99 352 58 262 20 170 C3 129 -13 87 -26 44 C-32 26 -39 -3 -37 -11 C-35 -19 -28 -21 -20 -15 C-8 -5 16 23 31 44 C73 102 114 161 159 217 L159 217 Z " />
<glyph glyph-name="X" unicode="X" horiz-adv-x="466" d="M193 680 C192 662 188 638 185 619 C166 513 149 407 134 301 C134 298 133 295 130 292 C43 186 -45 79 -125 -39 C-144 -66 -190 -140 -186 -163 C-183 -174 -171 -177 -163 -170 C-161 -168 -160 -166 -161 -163 C-162 -160 -164 -159 -172 -159 C-175 -140 -93 -24 -80 -6 C-14 83 57 170 128 253 C121 160 107 68 118 -28 C121 -49 125 -74 141 -91 C164 -112 191 -95 212 -75 C270 -17 316 58 362 131 C385 170 435 258 467 287 C467 284 466 283 466 280 C466 277 467 275 470 275 C472 275 474 276 475 279 C476 283 476 291 475 295 C474 300 470 302 466 300 C447 293 393 206 377 182 C326 104 276 24 212 -49 C201 -62 175 -92 154 -76 C118 -15 141 179 153 280 C153 283 154 285 156 287 C160 291 164 296 168 301 C225 367 283 433 344 495 C378 532 423 574 461 604 C458 596 457 589 466 584 C468 583 471 581 472 584 C474 587 471 588 470 590 C462 594 475 608 479 613 C491 625 502 635 514 647 C516 650 518 653 516 657 C515 660 511 661 508 660 C489 653 468 636 454 624 C419 597 387 567 355 536 C287 470 220 402 160 328 C161 357 197 579 205 641 C207 655 209 678 206 688 C204 697 196 699 190 693 C159 656 98 527 107 480 C109 471 116 467 125 469 C128 469 130 471 129 474 C129 476 127 478 124 478 C122 478 120 478 118 478 C117 482 115 488 118 501 C133 571 159 621 193 680 L193 680 Z " />
<glyph glyph-name="Y" unicode="Y" horiz-adv-x="427" d="M397 380 C428 461 464 556 462 645 C461 663 446 673 428 662 C386 633 220 405 110 271 C87 243 54 203 34 190 C32 209 44 253 49 267 C74 343 112 420 156 500 C158 496 160 492 163 493 C166 494 168 496 168 500 C168 517 195 552 207 574 C209 577 211 584 206 587 C199 592 189 578 186 574 C136 499 93 420 54 332 C36 290 9 202 18 180 C21 171 29 169 37 172 C79 191 182 337 226 393 C273 453 319 514 368 572 C387 595 419 634 441 647 C444 590 425 529 406 473 C381 405 353 332 321 265 C306 234 288 200 273 170 C220 133 170 96 118 45 C87 12 36 -45 40 -91 C41 -106 51 -117 68 -115 C103 -112 150 -58 182 -20 C226 36 262 97 298 164 C300 168 303 169 306 168 C309 167 310 165 309 161 C307 154 304 147 300 141 C299 139 299 137 301 135 C303 134 305 135 307 137 C312 144 316 152 318 162 C320 170 313 176 306 179 C337 240 368 305 397 380 L397 380 Z M262 149 C233 96 202 44 165 -5 C139 -40 96 -87 68 -96 C62 -97 59 -95 59 -89 C58 -43 112 18 152 59 C170 77 231 130 262 149 L262 149 Z " />
<glyph glyph-name="Z" unicode="Z" horiz-adv-x="510" d="M137 329 C186 378 245 435 290 485 C327 525 403 607 403 658 C403 673 394 680 381 682 C365 688 328 672 306 660 C222 616 144 555 74 481 C63 469 46 453 42 435 C40 424 51 423 59 427 C63 430 66 434 72 434 C75 434 77 436 78 439 C79 442 78 445 74 449 C75 449 75 449 75 449 C80 455 85 461 90 467 C152 534 226 591 312 641 C330 651 359 663 377 662 C381 662 383 660 383 656 C380 622 335 572 303 536 C274 503 242 471 211 440 C179 408 148 376 116 344 C107 335 90 320 99 305 C106 295 120 301 130 304 C151 310 170 316 191 321 C232 331 420 380 435 304 C438 291 435 279 431 268 C431 267 430 266 429 266 C425 264 420 262 416 260 C335 221 258 175 183 126 C141 99 102 69 66 35 C40 9 -14 -38 -2 -83 C3 -98 15 -103 29 -104 C57 -106 109 -83 150 -59 C212 -21 268 26 321 77 C373 128 431 198 455 262 C455 263 456 264 457 264 C466 268 476 271 485 272 C488 272 495 273 494 267 C491 261 488 257 484 251 C482 249 482 244 484 243 C486 241 489 243 490 245 C496 252 500 258 503 266 C507 284 487 283 472 281 C467 280 463 278 458 277 C470 377 335 366 256 355 C216 349 176 340 137 329 L137 329 Z M425 249 C404 212 378 178 344 140 C312 104 277 72 241 41 C186 -5 127 -49 57 -74 C48 -77 21 -86 21 -67 C21 -50 43 -22 62 -2 C91 31 124 59 159 86 C208 126 261 159 316 191 C351 211 384 229 425 249 L425 249 Z " />
<glyph glyph-name="bracketleft" unicode="&#x5b;" horiz-adv-x="253" d="M266 536 C266 535 266 535 266 534 C272 534 278 534 285 534 C290 535 295 535 300 538 C303 539 304 542 301 544 C299 545 296 546 293 547 C290 548 286 549 282 549 C271 552 259 553 247 553 C229 552 214 546 203 531 C199 524 194 516 190 509 C165 464 140 420 118 374 C94 323 70 273 45 222 C23 177 -1 132 -24 88 C-28 79 -32 70 -36 61 C-38 55 -40 49 -41 43 C-44 29 -36 19 -22 18 C-16 18 -11 18 -5 19 C15 22 36 25 56 27 C59 28 62 28 64 26 C65 24 67 24 68 26 C69 27 70 29 69 30 C68 31 66 34 64 34 C62 36 60 36 57 36 C48 35 39 35 29 34 C16 33 2 32 -12 32 C-14 32 -17 32 -20 32 C-24 33 -25 34 -24 38 C-24 42 -23 45 -21 49 C-17 59 -12 68 -7 78 C32 150 70 224 106 299 C137 367 172 433 208 498 C212 507 218 515 223 524 C227 529 232 533 239 533 C248 534 257 535 266 536 L266 536 Z " />
<glyph glyph-name="backslash" unicode="&#x5c;" horiz-adv-x="326" d="M237 -39 C243 -38 243 -32 241 -26 C229 6 132 508 100 614 C99 618 97 626 91 625 C85 624 86 619 86 613 C88 601 90 590 93 578 C102 538 201 67 230 -34 C232 -38 234 -40 237 -39 L237 -39 Z " />
<glyph glyph-name="bracketright" unicode="&#x5d;" horiz-adv-x="275" d="M259 544 C259 534 253 516 247 502 C213 432 178 364 140 292 C100 217 61 143 26 66 C18 51 8 42 -5 36 C-29 25 -67 13 -76 -1 C-79 -4 -79 -9 -77 -13 C-76 -15 -74 -17 -72 -16 C-69 -15 -69 -13 -70 -11 C-77 4 -8 19 -4 20 C18 26 33 38 43 59 C92 155 144 249 196 344 C220 389 243 435 263 482 C271 502 280 527 278 546 C276 554 271 560 262 561 C240 561 219 558 196 554 C193 553 191 551 191 548 C191 545 194 542 197 542 C217 542 237 548 259 544 L259 544 Z " />
<glyph glyph-name="asciicircum" unicode="&#x5e;" horiz-adv-x="253" d="M160 497 C184 519 206 545 233 565 C221 536 198 496 198 478 C198 474 200 471 204 469 C206 468 208 467 210 469 C212 471 212 473 210 475 C207 477 211 487 214 493 C227 521 258 574 263 589 C264 597 259 602 252 600 C238 595 212 570 193 550 C172 529 141 501 126 478 C125 476 125 472 127 471 C129 469 134 471 136 473 C144 481 152 489 160 497 L160 497 Z " />
<glyph glyph-name="underscore" unicode="&#x5f;" horiz-adv-x="408" d="M333 210 C313 223 227 220 195 220 C111 217 36 213 -40 206 C-49 205 -57 205 -66 202 C-72 200 -75 198 -74 194 C-73 188 -48 194 -45 194 C33 200 108 205 182 208 C231 210 281 213 328 204 C325 202 323 200 321 199 C319 198 319 196 320 195 C321 193 323 193 324 193 C328 194 332 197 335 200 C337 204 336 208 333 210 L333 210 Z " />
<glyph glyph-name="grave" unicode="&#x60;" horiz-adv-x="180" d="M184 480 C188 482 186 486 185 489 C172 518 165 549 151 578 C149 582 146 582 143 581 C141 580 139 577 140 572 C151 542 166 513 178 484 C179 481 180 479 184 480 L184 480 Z " />
<glyph glyph-name="a" unicode="a" horiz-adv-x="203" d="M84 330 C74 316 59 296 45 279 C49 292 60 329 36 328 C1 325 -42 235 -35 204 C-32 196 -24 194 -17 196 C8 204 47 260 66 288 C62 270 54 253 57 233 C59 222 65 214 76 211 C94 206 123 227 145 245 C165 260 184 277 203 293 C205 295 209 298 203 300 C203 300 200 298 199 297 C177 280 156 264 135 247 C110 230 79 213 77 235 C75 258 88 289 100 321 C103 329 109 341 101 344 C95 347 88 335 84 330 L84 330 Z M37 313 C30 296 31 290 27 277 C26 275 25 272 24 270 C23 265 23 261 27 257 C20 246 -8 220 -17 217 C-18 238 19 309 37 313 L37 313 Z " />
<glyph glyph-name="b" unicode="b" horiz-adv-x="231" d="M-17 198 C-26 186 -35 174 -46 160 C-31 196 8 269 22 297 C23 299 24 301 25 301 C41 309 65 337 82 359 C106 391 183 497 189 534 C190 543 186 548 176 545 C157 537 130 507 114 485 C38 388 -28 254 -75 134 C-79 124 -81 117 -85 102 C-87 94 -84 92 -81 91 C-74 88 -71 96 -68 101 C-38 158 -1 211 43 258 C54 269 71 283 81 286 C97 292 92 269 90 260 C86 245 80 231 73 218 C71 212 68 207 62 206 C42 200 20 189 -1 175 C-15 165 -31 152 -35 133 C-38 118 -28 107 -12 108 C-4 108 7 113 15 119 C39 136 57 164 75 195 C77 199 79 201 82 202 C104 210 126 219 145 232 C175 252 200 271 229 292 C235 294 237 299 231 300 C231 300 187 271 166 256 C142 239 114 225 86 217 C95 236 105 268 101 284 C99 293 92 297 83 295 C70 291 59 282 48 272 C24 249 3 224 -17 198 L-17 198 Z M31 319 C79 407 124 479 179 530 C170 496 78 358 31 319 L31 319 Z M59 192 C45 170 32 150 11 132 C3 125 -7 119 -16 119 C-21 119 -24 122 -24 127 C-24 145 4 165 21 175 C35 183 43 187 59 192 L59 192 Z " />
<glyph glyph-name="c" unicode="c" horiz-adv-x="207" d="M207 300 C207 300 157 271 133 255 C99 234 65 212 29 193 C15 186 0 178 -16 176 C-23 175 -27 178 -28 185 C-34 254 58 357 109 390 C116 394 125 400 133 400 C137 400 139 398 139 394 C138 375 115 340 102 320 C99 315 91 307 96 302 C98 300 102 304 103 305 C121 329 147 372 147 391 C147 402 142 408 130 408 C114 408 89 392 78 383 C26 342 -50 253 -44 185 C-42 165 -27 155 -8 159 C14 165 33 177 52 189 C104 222 157 256 209 290 C213 292 216 299 207 300 L207 300 Z " />
<glyph glyph-name="d" unicode="d" horiz-adv-x="197" d="M307 597 C291 579 257 538 240 516 C184 440 118 357 71 300 C75 315 81 328 79 341 C76 351 70 356 58 352 C21 340 -28 263 -46 229 C-55 213 -65 188 -65 175 C-65 165 -57 160 -47 163 C-17 173 25 223 50 254 C80 291 109 328 138 366 C180 421 223 475 265 531 C247 499 225 468 207 435 C123 284 20 95 -45 -82 C-48 -91 -54 -108 -52 -114 C-51 -118 -47 -119 -43 -118 C-38 -116 -36 -113 -37 -108 C-37 -107 -38 -101 -37 -98 C-27 -71 -16 -44 -4 -18 C34 65 75 147 118 228 C155 297 191 367 230 435 C264 495 291 540 318 590 C322 597 314 605 307 597 L307 597 Z M66 336 C64 325 59 305 54 297 C51 292 54 289 60 286 C54 279 48 272 42 266 C14 234 -14 198 -50 178 C-48 192 -42 207 -36 219 C-13 265 16 313 58 340 C63 343 66 341 66 336 L66 336 Z " />
<glyph glyph-name="e" unicode="e" horiz-adv-x="220" d="M7 282 C12 272 19 270 28 274 C55 286 87 326 91 353 C92 362 86 370 76 367 C58 362 36 344 13 317 C-13 285 -48 219 -29 181 C-24 173 -17 168 -8 166 C11 161 33 171 50 181 C98 209 143 242 203 282 C209 286 216 290 223 292 C228 293 228 300 220 300 C220 300 204 291 192 283 C146 253 100 221 50 195 C32 184 -14 166 -19 197 C-22 223 -10 254 7 282 L7 282 Z M79 356 C79 339 42 291 20 286 C24 293 26 302 31 313 C39 327 63 354 79 356 L79 356 Z " />
<glyph glyph-name="f" unicode="f" horiz-adv-x="185" d="M-85 132 C-107 84 -130 37 -147 -18 C-151 -30 -154 -51 -151 -61 C-147 -70 -139 -73 -131 -69 C-115 -59 -93 -22 -82 3 C-67 35 -52 79 -63 121 C-64 124 -63 126 -62 128 C-50 153 -39 178 -27 203 C-26 206 -23 208 -20 210 C47 235 114 262 180 290 C187 285 195 299 185 300 C185 300 177 298 173 296 C154 289 135 282 116 275 C73 260 29 245 -14 229 C30 323 78 416 139 506 C142 510 144 513 148 516 C151 519 156 527 151 531 C144 536 125 508 119 500 C58 419 13 325 -40 222 C-42 218 -44 216 -47 215 C-74 204 -102 192 -129 181 C-137 178 -151 171 -157 166 C-163 161 -161 153 -155 151 C-134 145 -107 147 -85 132 L-85 132 Z M-71 108 C-65 86 -79 37 -94 8 C-103 -9 -120 -37 -131 -44 C-126 -16 -97 57 -71 108 L-71 108 Z M-53 196 C-63 178 -71 160 -80 143 C-97 155 -117 158 -138 161 C-133 165 -62 194 -53 196 L-53 196 Z " />
<glyph glyph-name="g" unicode="g" horiz-adv-x="265" d="M-240 -187 C-185 -193 -100 -125 -50 -71 C-16 -34 14 6 40 49 C68 95 94 142 117 191 C119 194 120 197 124 199 C169 228 213 258 262 290 C264 288 266 286 269 289 C272 292 274 299 265 300 C257 299 188 254 130 216 C159 289 196 360 213 441 C213 445 213 450 208 452 C201 454 199 450 196 447 C180 426 136 371 122 351 C126 368 124 393 97 390 C81 388 61 374 42 354 C3 311 -45 244 -50 188 C-50 174 -39 167 -26 172 C-15 177 -6 186 9 200 C37 228 62 257 86 288 C122 332 158 375 192 421 C173 363 132 273 99 200 C97 196 95 193 91 190 C40 156 -10 122 -58 84 C-123 32 -186 -24 -234 -96 C-246 -116 -263 -143 -260 -165 C-260 -177 -251 -186 -240 -187 L-240 -187 Z M85 171 C60 117 30 65 -8 7 C-33 -31 -61 -66 -95 -97 C-125 -126 -194 -178 -235 -175 C-242 -174 -246 -170 -246 -162 C-247 -145 -233 -120 -221 -101 C-181 -39 -127 11 -62 64 C-29 91 56 152 85 171 L85 171 Z M-31 189 C-30 207 -24 228 -14 246 C6 284 30 320 60 352 C74 368 120 401 110 355 C108 349 101 337 103 330 C104 327 102 325 100 322 C72 289 43 256 12 226 C-1 213 -15 200 -31 189 L-31 189 Z " />
<glyph glyph-name="h" unicode="h" horiz-adv-x="277" d="M70 311 C46 304 13 263 -9 239 C0 262 10 280 18 295 C21 301 24 306 30 310 C32 311 33 313 35 314 C111 395 226 536 232 601 C233 609 226 614 218 611 C190 600 151 554 125 516 C95 473 69 428 44 382 C12 325 -17 267 -69 160 C-71 153 -81 143 -71 137 C-64 132 -60 138 -57 144 C-54 149 -52 153 -49 158 C-31 188 36 288 73 299 C78 300 83 299 80 281 C76 254 68 216 73 196 C76 181 88 173 103 175 C122 179 138 191 163 208 C192 229 221 250 249 271 C261 280 265 283 277 291 C292 298 280 302 277 300 C231 269 187 235 135 204 C124 197 111 189 99 187 C93 186 88 188 86 196 C82 212 88 252 93 278 C94 284 94 290 93 296 C91 309 81 314 70 311 L70 311 Z M37 333 C66 393 103 455 139 511 C161 544 198 588 224 602 C218 547 100 390 37 333 L37 333 Z " />
<glyph glyph-name="i" unicode="i" horiz-adv-x="152" d="M20 335 C0 301 -29 251 -30 222 C-29 206 -18 198 -2 200 C20 205 39 220 58 234 C87 254 115 275 147 293 C149 294 151 294 153 294 C155 294 156 295 156 296 C156 298 155 300 152 300 C150 300 148 300 146 299 C110 280 76 258 31 231 C17 224 -10 209 -12 222 C-14 243 18 298 33 330 C36 334 40 341 34 345 C28 350 23 339 20 335 L20 335 Z M60 395 C56 392 54 386 59 383 C62 383 65 383 67 386 C68 388 68 393 66 395 C65 396 62 396 60 395 L60 395 Z " />
<glyph glyph-name="j" unicode="j" horiz-adv-x="120" d="M-13 222 C3 259 24 297 35 336 C38 350 40 358 32 359 C22 361 20 350 17 342 C0 294 -23 248 -47 203 C-49 201 -51 199 -53 197 C-114 161 -174 122 -232 76 C-256 57 -278 38 -298 16 C-316 -5 -333 -29 -334 -59 C-333 -83 -319 -96 -301 -99 C-232 -109 -161 -13 -124 38 C-88 90 -55 143 -25 199 C-24 203 -21 206 -17 208 C5 221 26 235 48 248 C72 263 96 277 120 291 C124 293 129 297 120 300 C75 278 22 242 -13 222 L-13 222 Z M-62 179 C-105 101 -152 24 -220 -44 C-236 -60 -258 -77 -283 -82 C-296 -84 -312 -83 -315 -66 C-317 -29 -291 -1 -263 27 C-202 84 -134 131 -62 179 L-62 179 Z M48 400 C51 400 53 402 53 408 C53 412 50 414 47 414 C44 414 41 411 41 407 C41 402 44 399 48 400 L48 400 Z " />
<glyph glyph-name="k" unicode="k" horiz-adv-x="305" d="M310 296 C310 298 308 300 305 300 C301 300 264 295 243 290 C140 266 76 251 -3 230 C77 277 155 334 214 402 C221 411 230 421 232 428 C234 435 227 441 220 438 C209 433 184 420 175 405 C173 402 173 399 175 396 C177 393 181 393 184 393 C167 371 24 260 8 258 C71 372 136 501 199 603 C199 596 200 595 200 593 C201 591 202 590 204 590 C207 591 208 592 208 595 C208 598 208 601 209 605 C212 614 215 622 217 630 C218 636 211 641 206 637 C195 629 175 596 165 581 C96 474 29 361 -28 247 C-30 241 -32 235 -37 230 C-52 215 -81 211 -99 205 C-107 203 -117 199 -115 190 C-113 182 -102 185 -98 187 C-81 192 -65 199 -49 206 C-80 142 -108 82 -137 17 C-141 7 -148 -10 -147 -22 C-146 -30 -138 -34 -132 -28 C-127 -23 -122 -16 -117 -10 C-115 -6 -116 -2 -120 0 C-121 0 -122 1 -123 1 C-88 72 -56 143 -18 211 C-17 214 -14 215 -12 215 C2 219 15 223 29 227 C96 246 164 265 232 281 C255 286 283 292 302 294 C300 292 298 290 299 288 C301 284 310 293 310 296 L310 296 Z M205 414 C199 408 193 401 187 396 C187 396 186 396 186 396 C189 404 198 409 205 414 L205 414 Z " />
<glyph glyph-name="l" unicode="l" horiz-adv-x="226" d="M250 626 C249 634 245 638 238 638 C222 638 205 621 195 611 C114 522 45 399 -7 285 C-25 245 -64 144 -43 105 C-22 66 56 130 73 145 C127 193 176 241 226 289 C233 296 233 299 226 300 C180 257 115 197 64 155 C41 136 -26 86 -31 119 C-38 166 -2 254 20 299 C21 300 23 302 24 303 C28 306 32 309 36 312 C110 372 208 521 228 557 C240 579 252 607 250 626 L250 626 Z M230 581 C219 558 205 536 191 515 C135 432 85 365 25 316 C72 421 132 520 204 602 C215 614 226 623 236 627 C239 628 241 628 241 624 C241 610 234 590 230 581 L230 581 Z " />
<glyph glyph-name="m" unicode="m" horiz-adv-x="405" d="M121 329 C146 359 176 398 202 422 C185 388 137 297 139 265 C140 258 146 253 157 256 C180 263 198 280 222 287 C232 289 235 288 241 278 C253 260 269 231 296 231 C306 231 314 233 323 238 C346 250 368 264 390 278 C398 283 405 287 409 295 C410 297 409 300 405 300 C405 300 398 292 393 289 C371 275 348 261 324 250 C307 241 290 240 275 256 C266 267 258 280 249 292 C244 298 237 301 229 300 C204 296 169 275 156 272 C158 295 203 377 228 435 C233 445 234 453 228 456 C222 462 216 456 210 451 C180 421 154 387 121 347 C77 292 23 224 -25 179 C-17 209 21 280 48 325 C63 349 79 373 95 397 C98 403 105 408 99 416 C90 425 84 415 77 408 C54 381 30 348 11 319 C-15 278 -56 207 -56 169 C-56 153 -41 146 -28 154 C-18 160 -8 173 2 185 C42 233 82 281 121 329 L121 329 Z " />
<glyph glyph-name="n" unicode="n" horiz-adv-x="277" d="M88 313 C88 288 86 258 101 240 C121 217 157 233 183 246 C212 261 241 276 271 292 C275 292 281 290 281 296 C281 298 280 300 277 300 C270 300 243 286 217 273 C191 261 164 243 135 239 C101 236 104 281 103 307 C103 311 103 314 102 318 C100 326 93 329 85 327 C76 324 69 318 61 311 C42 295 25 279 6 265 C10 282 43 335 62 370 C65 375 68 381 62 385 C58 388 55 386 51 382 C23 346 -11 286 -18 259 C-21 249 -19 242 -13 238 C-5 233 4 241 11 247 C23 257 34 268 46 279 C58 291 72 305 88 313 L88 313 Z " />
<glyph glyph-name="o" unicode="o" horiz-adv-x="310" d="M67 234 C55 210 41 186 43 156 C45 143 53 141 63 143 C96 151 136 203 155 236 C157 238 159 240 162 241 C167 242 172 243 177 244 C202 251 226 260 250 269 C268 277 286 284 304 291 C307 292 315 290 316 294 C317 298 315 300 310 300 C305 300 279 291 264 285 C232 272 195 261 166 254 C179 281 195 311 194 350 C193 374 179 390 156 395 C98 406 24 358 1 303 C-8 280 -2 262 19 249 C34 240 49 237 67 234 L67 234 Z M75 249 C54 252 9 261 14 292 C28 346 100 392 153 386 C172 383 183 368 183 351 C183 319 165 281 148 254 C147 252 145 251 144 250 C135 248 113 245 95 246 C111 275 131 306 155 335 C157 338 157 341 155 343 C153 345 150 345 147 342 C138 335 131 329 126 320 C125 317 125 317 124 316 C107 295 91 274 75 249 L75 249 Z M86 232 C103 233 119 234 136 235 C117 205 87 169 59 160 C59 184 73 207 86 232 L86 232 Z " />
<glyph glyph-name="p" unicode="p" horiz-adv-x="232" d="M147 434 C124 429 80 389 52 361 C62 389 75 417 85 447 C86 451 87 454 83 455 C80 456 77 454 75 451 C70 442 64 434 63 423 C63 420 62 419 61 417 C50 390 39 362 28 335 C27 333 25 330 24 328 C-30 265 -78 197 -122 128 C-151 82 -210 -21 -200 -68 C-196 -79 -187 -83 -177 -80 C-151 -71 -121 -30 -100 10 C-79 48 -60 88 -42 128 C-38 135 -33 136 -27 137 C-1 146 19 166 48 194 C50 196 53 198 56 199 C65 204 75 208 84 213 C135 237 183 265 234 291 C237 293 243 298 233 300 C226 298 206 288 176 273 C118 244 110 239 75 223 C105 264 134 307 155 355 C163 374 171 401 168 419 C166 430 159 437 147 434 L147 434 Z M-19 181 C-11 209 30 307 40 331 C42 334 43 337 46 340 C71 369 116 414 146 423 C153 425 157 423 157 415 C157 394 149 375 138 352 C114 302 83 255 47 213 C44 210 42 208 38 206 C19 198 2 191 -19 181 L-19 181 Z M13 301 C-4 255 -25 210 -44 165 C-50 158 -56 148 -54 142 C-75 97 -97 51 -121 7 C-135 -17 -152 -45 -176 -63 C-183 -68 -187 -66 -187 -57 C-187 3 -102 145 -66 196 C-42 231 -17 264 13 301 L13 301 Z M16 182 C2 169 -14 157 -33 149 C-32 154 -30 160 -26 162 C-16 169 -4 176 16 182 L16 182 Z " />
<glyph glyph-name="q" unicode="q" horiz-adv-x="276" d="M39 137 C41 141 43 144 46 146 C66 157 86 169 106 180 C165 214 221 250 275 291 C276 292 285 298 276 300 C273 298 270 296 266 293 C198 246 126 202 52 163 C63 187 126 302 149 341 C170 376 193 411 217 446 C219 450 222 454 217 458 C213 461 209 456 206 452 C188 425 131 349 101 319 C103 333 109 345 106 362 C104 373 95 379 83 379 C68 377 53 366 38 351 C7 320 -34 248 -28 217 C-26 209 -21 205 -12 206 C7 206 40 241 60 260 C82 284 105 308 126 333 C100 273 62 218 27 152 C26 150 25 147 23 146 C13 142 3 138 -6 134 C-9 132 -16 132 -14 126 C-12 122 -9 121 -5 123 C2 124 9 128 16 128 C-3 90 -19 52 -36 6 C-45 -20 -56 -54 -51 -80 C-48 -91 -39 -94 -29 -88 C-18 -81 -10 -68 -2 -56 C16 -29 30 0 44 30 C54 54 85 123 39 137 L39 137 Z M88 305 C73 288 -2 214 -15 220 C-14 253 18 312 48 344 C58 355 71 365 83 368 C98 370 97 353 95 344 C93 335 86 322 86 315 C86 310 85 309 88 305 L88 305 Z M-37 -78 C-42 -58 -28 -15 -17 15 C-4 47 20 100 35 129 C69 126 50 68 40 47 C24 13 6 -20 -15 -52 C-21 -61 -28 -70 -37 -78 L-37 -78 Z " />
<glyph glyph-name="r" unicode="r" horiz-adv-x="231" d="M231 289 C236 296 237 298 231 300 C231 300 205 266 195 255 C155 208 114 163 72 118 C51 96 8 52 -14 50 C-20 49 -23 52 -23 59 C-23 75 -16 90 -5 112 C11 146 33 179 39 220 C45 252 36 279 17 304 C33 329 57 366 55 395 C54 407 45 413 33 411 C9 406 -15 379 -25 358 C-34 340 -32 325 -16 311 C3 295 19 282 25 254 C31 224 21 193 6 162 C-9 129 -38 92 -37 56 C-36 44 -28 37 -15 36 C8 36 35 61 55 82 C104 134 152 187 196 243 C208 258 219 273 231 289 L231 289 Z M9 311 C3 316 -3 321 -9 327 C-16 334 -15 343 -12 350 C-5 367 9 393 34 403 C41 406 49 403 49 394 C49 367 26 329 9 311 L9 311 Z " />
<glyph glyph-name="s" unicode="s" horiz-adv-x="275" d="M275 300 C275 300 268 297 265 295 C198 258 103 195 38 153 C52 179 63 210 63 240 C63 275 36 284 13 302 C6 308 4 313 6 322 C12 356 74 407 111 417 C116 418 118 416 117 411 C107 376 83 342 71 322 C68 317 66 315 70 311 C78 303 89 322 93 327 C110 353 128 386 130 411 C131 424 122 432 109 429 C64 419 8 366 -5 328 C-9 313 -5 301 9 293 C30 280 51 272 53 244 C53 205 33 169 16 139 C14 136 12 133 9 131 C-22 108 -52 84 -73 55 C-77 50 -83 38 -78 33 C-69 23 -37 52 -32 57 C-10 77 6 100 22 125 C24 129 27 132 30 134 C105 189 198 248 276 292 C283 296 279 300 275 300 L275 300 Z M-68 42 C-62 53 -48 68 -39 77 C-30 86 -17 100 -4 106 C-16 88 -46 54 -68 42 L-68 42 Z " />
<glyph glyph-name="t" unicode="t" horiz-adv-x="122" d="M633 512 C630 509 627 508 623 506 C621 505 619 503 620 501 C621 499 623 498 625 499 C630 501 634 503 637 505 C642 508 645 514 637 519 C582 547 319 551 162 553 C187 596 211 640 235 684 C237 688 238 692 240 695 C242 699 241 702 238 703 C236 704 233 704 230 701 C230 700 230 700 230 700 C217 685 205 670 193 656 C192 654 190 652 189 649 C189 649 189 647 189 646 C190 646 192 646 193 647 C196 650 199 654 202 657 C203 658 204 658 205 659 C204 656 203 654 202 652 C183 620 160 585 141 553 C12 552 -219 533 -259 517 C-266 514 -276 510 -274 503 C-274 499 -267 499 -266 502 C-262 507 -254 509 -247 511 C-156 527 -18 531 132 537 C90 476 -69 167 -132 29 C-137 19 -146 -3 -145 -13 C-145 -19 -139 -22 -134 -19 C-130 -17 -117 -4 -122 0 C-125 3 -129 -2 -132 -3 C-126 11 -120 27 -113 41 C-32 210 65 373 154 538 C259 540 550 539 633 512 L633 512 Z " />
<glyph glyph-name="u" unicode="u" horiz-adv-x="197" d="M-10 222 C15 236 55 279 78 299 C72 281 68 256 74 241 C87 213 120 234 138 248 C160 264 178 279 200 295 C203 298 199 300 197 300 C197 300 165 278 146 265 C137 259 93 224 84 246 C80 258 82 271 87 291 C89 297 94 307 88 312 C84 314 81 313 78 311 C75 309 71 306 68 303 C44 282 -7 235 -14 234 C-8 261 16 300 36 337 C38 340 39 342 41 346 C42 349 42 352 40 353 C38 355 35 354 32 352 C28 349 25 345 21 342 C18 338 18 337 21 332 C1 304 -27 255 -28 232 C-28 220 -22 216 -10 222 L-10 222 Z " />
<glyph glyph-name="v" unicode="v" horiz-adv-x="288" d="M288 294 C289 295 294 299 288 300 C288 300 277 292 276 291 C249 271 231 257 203 238 C179 223 153 210 124 211 C104 212 90 222 82 241 C81 245 81 248 83 251 C110 291 135 332 158 375 C176 409 205 465 200 502 C198 516 189 521 177 519 C128 507 79 390 70 328 C67 305 65 282 69 258 C69 256 68 254 67 253 C44 218 -12 157 -21 159 C-27 166 -20 203 -15 221 C-2 258 13 294 31 328 C32 329 33 331 34 332 C39 331 39 331 39 336 C43 344 46 349 42 352 C36 357 29 347 24 341 C2 308 -16 272 -29 235 C-36 213 -45 181 -39 159 C-36 147 -24 142 -15 146 C12 156 48 203 74 237 C82 218 96 204 120 202 C149 199 178 213 203 230 C222 244 240 257 259 271 C268 278 278 286 288 294 L288 294 Z M78 267 C76 278 76 288 77 298 C82 365 130 487 177 511 C188 515 191 508 191 499 C189 462 166 415 141 371 C121 335 103 303 78 267 L78 267 Z " />
<glyph glyph-name="w" unicode="w" horiz-adv-x="330" d="M204 262 C228 303 258 354 265 396 C269 422 267 453 235 444 C219 438 205 425 193 411 C169 382 147 342 149 302 C149 281 162 265 182 254 C157 216 114 159 75 143 C67 140 63 143 60 151 C51 180 67 235 64 251 C63 256 58 260 52 257 C21 240 -7 212 -36 190 C-24 234 5 273 24 315 C25 319 31 327 25 330 C23 332 18 330 17 327 C12 319 6 311 1 303 C0 302 -1 301 -1 299 C0 292 -56 211 -56 181 C-56 173 -49 169 -43 171 C-25 175 27 231 53 244 C55 232 37 180 49 147 C54 133 65 126 78 130 C115 141 159 197 193 246 C195 249 198 251 203 250 C243 243 295 274 332 292 C336 292 338 300 330 300 C330 300 325 298 323 297 C286 281 247 257 204 262 L204 262 Z M190 265 C174 269 164 281 161 296 C155 328 170 365 189 391 C203 410 226 436 242 438 C269 441 253 389 249 378 C238 348 214 302 190 265 L190 265 Z " />
<glyph glyph-name="x" unicode="x" horiz-adv-x="233" d="M9 240 C9 280 24 321 36 363 C40 376 38 381 33 382 C29 383 26 381 24 377 C20 371 17 364 16 356 C16 353 15 349 14 346 C2 307 -11 268 -8 224 C-8 219 -9 216 -12 212 C-60 147 -121 79 -149 6 C-153 -2 -155 -16 -142 -17 C-139 -17 -136 -16 -133 -15 C-130 -14 -131 -10 -134 -11 C-136 -11 -138 -12 -140 -12 C-150 -12 -144 0 -142 7 C-112 74 -58 137 -5 206 C-3 201 -2 198 0 195 C11 174 30 170 56 179 C113 200 177 244 235 291 C241 296 240 300 233 300 C224 290 126 225 63 197 C49 191 25 183 16 202 C14 207 12 212 11 216 C9 220 10 223 13 226 C53 273 96 318 170 392 C177 399 183 404 187 412 C189 416 186 420 182 420 C178 420 174 419 169 417 C158 412 147 407 136 402 C133 401 131 399 133 396 C134 395 137 395 139 396 C150 400 160 406 172 409 C114 356 60 300 9 240 L9 240 Z " />
<glyph glyph-name="y" unicode="y" horiz-adv-x="270" d="M275 292 C278 294 276 300 270 300 C255 297 150 207 120 184 C148 251 184 320 192 395 C192 403 186 407 179 404 C172 400 164 394 158 388 C128 362 97 335 66 308 C43 288 21 269 -5 251 C0 277 28 316 41 338 C42 340 43 341 45 341 C47 341 49 342 48 344 C46 351 54 359 58 365 C60 367 65 374 59 377 C56 380 50 375 48 371 C23 335 -25 271 -24 243 C-24 234 -17 229 -8 231 C1 232 15 245 25 254 C62 287 99 321 136 354 C151 366 166 380 181 393 C179 363 135 242 101 172 C100 169 97 167 95 166 C69 146 42 127 16 107 C-22 78 -57 47 -89 12 C-115 -16 -155 -60 -153 -102 C-151 -114 -143 -120 -130 -118 C-111 -115 -78 -90 -58 -71 C-20 -35 13 5 42 48 C65 84 86 121 106 158 C107 161 109 164 112 166 C153 198 216 253 256 284 C260 287 264 290 268 292 C270 290 272 290 275 292 L275 292 Z M88 147 C63 98 34 49 0 5 C-32 -35 -86 -91 -131 -108 C-137 -109 -140 -107 -141 -100 C-144 -69 -107 -25 -81 5 C-53 35 -23 62 10 88 C35 108 61 129 88 147 L88 147 Z " />
<glyph glyph-name="z" unicode="z" horiz-adv-x="328" d="M184 457 C184 442 141 387 129 370 C108 340 69 291 65 271 C63 261 68 253 77 253 C101 253 123 264 150 266 C177 268 188 248 192 224 C193 222 191 220 190 219 C151 193 113 167 76 140 C23 100 -26 56 -71 7 C-96 -20 -127 -58 -132 -88 C-134 -103 -125 -113 -111 -113 C-86 -112 -56 -94 -30 -77 C36 -32 93 22 142 85 C170 122 197 161 204 213 C204 215 205 217 206 217 C243 241 280 270 323 289 C322 288 321 285 323 283 C324 282 327 282 329 284 C336 289 338 300 328 300 C312 299 235 250 204 228 C197 259 182 274 157 276 C147 277 136 275 126 273 C110 271 89 265 77 266 C84 289 134 356 168 403 C179 417 196 443 197 457 C199 466 193 472 184 470 C181 469 177 468 174 466 C166 461 157 456 149 449 C104 416 62 377 17 323 C9 313 -7 295 -6 280 C-6 275 -1 273 3 275 C8 277 14 281 8 286 C20 305 33 322 51 341 C80 373 111 403 145 430 C157 439 170 450 184 457 L184 457 Z M191 207 C184 172 166 141 141 106 C91 37 26 -24 -48 -72 C-67 -84 -90 -98 -111 -99 C-115 -99 -117 -97 -117 -92 C-115 -71 -94 -41 -78 -22 C-46 17 -10 52 28 85 C59 112 152 184 191 207 L191 207 Z " />
<glyph glyph-name="braceleft" unicode="&#x7b;" horiz-adv-x="264" d="M270 523 C268 535 258 541 247 537 C203 519 178 448 152 408 C109 343 72 328 65 314 C63 311 63 305 66 301 C70 294 80 300 85 301 C54 245 23 195 -4 142 C-25 103 -45 39 -35 15 C-28 -2 -7 2 7 9 C47 26 83 50 115 79 C119 83 117 86 117 87 C114 90 110 86 108 84 C83 63 56 46 26 32 C10 24 -23 5 -23 31 C-23 69 7 126 27 163 C43 193 94 268 101 296 C103 306 102 310 93 316 C133 347 159 379 181 416 C199 450 224 507 254 521 C255 517 256 515 257 512 C260 509 260 505 266 505 C274 505 271 519 270 523 L270 523 Z " />
<glyph glyph-name="bar" unicode="&#x7c;" horiz-adv-x="202" d="M248 617 C244 619 239 615 237 611 C219 576 -83 2 -89 -13 C-91 -19 -93 -25 -88 -29 C-82 -33 -76 -25 -73 -22 C-69 -18 -69 -16 -73 -11 C-54 29 241 576 251 598 C254 605 255 613 248 617 L248 617 Z " />
<glyph glyph-name="braceright" unicode="&#x7d;" horiz-adv-x="290" d="M320 558 C319 568 312 574 303 575 C285 575 267 568 254 559 C251 557 251 554 252 552 C254 549 257 550 261 552 C271 557 283 561 293 562 C313 564 300 540 295 531 C271 492 246 455 223 423 C207 400 194 372 202 347 C205 338 208 327 200 321 C173 307 149 292 140 261 C118 190 82 121 36 70 C6 38 -24 8 -60 -15 C-61 -13 -62 -12 -63 -11 C-69 -9 -71 -15 -69 -19 C-67 -27 -60 -28 -57 -27 C-37 -23 26 36 59 69 C116 127 141 199 163 266 C170 291 194 297 212 311 C218 315 221 321 221 328 C221 336 219 344 216 351 C210 373 223 391 234 407 C260 444 288 476 308 516 C316 531 322 544 320 558 L320 558 Z " />
<glyph glyph-name="asciitilde" unicode="&#x7e;" horiz-adv-x="264" d="M53 320 C48 301 44 269 53 254 C60 243 73 245 83 249 C107 260 129 273 150 290 C153 292 165 302 160 306 C157 309 152 301 147 297 C127 283 105 271 83 262 C74 259 66 258 64 264 C60 282 67 300 68 320 C67 331 58 336 48 331 C25 317 9 297 -10 278 C-13 275 -16 269 -11 266 C-7 263 -4 266 0 270 C3 273 5 275 8 277 C12 280 7 280 9 283 C19 294 38 311 53 320 L53 320 Z " />
<glyph glyph-name="cent" unicode="&#xa2;" horiz-adv-x="285" d="M271 495 C274 502 276 508 276 514 C275 518 273 521 270 522 C263 524 262 519 258 515 C253 508 249 501 245 494 C244 493 243 491 244 490 C244 489 245 488 246 487 C246 486 246 485 245 484 C232 463 220 441 207 419 C205 415 202 411 197 409 C195 408 194 407 193 406 C177 396 163 383 150 370 C122 340 97 306 75 271 C58 243 43 214 33 183 C27 163 22 143 23 122 C24 110 26 100 34 91 C35 89 36 88 35 86 C27 69 20 52 12 34 C2 9 -8 -16 -13 -43 C-13 -47 -11 -50 -7 -52 C-3 -54 6 -50 7 -46 C8 -45 7 -42 6 -41 C5 -40 3 -40 2 -40 C1 -40 0 -41 -2 -41 C5 -18 14 5 24 27 C31 45 40 62 48 79 C48 80 48 82 50 81 C60 79 69 81 79 85 C89 89 98 94 108 100 C127 114 144 130 156 150 C157 151 158 153 159 155 C159 157 159 160 156 161 C154 162 152 162 150 160 C149 159 148 158 147 157 C138 144 126 134 113 125 C96 115 79 105 59 102 C62 110 66 118 70 126 C116 221 170 312 223 403 C224 405 225 404 226 404 C230 402 230 398 230 395 C231 387 229 380 226 373 C219 351 209 331 198 311 C196 309 195 306 192 306 C191 306 191 306 191 306 C184 301 180 295 179 287 C178 281 184 276 191 278 C193 279 195 281 197 283 C200 286 204 290 206 294 C217 310 225 327 232 345 C238 359 244 373 245 388 C246 400 243 411 231 416 C234 423 238 430 242 437 C252 456 263 475 271 495 L271 495 Z M47 114 C42 132 46 149 50 167 C58 197 72 224 86 251 C108 291 133 327 162 361 C170 369 179 379 187 384 C135 297 91 206 47 114 L47 114 Z " />
<glyph glyph-name="sterling" unicode="&#xa3;" horiz-adv-x="525" d="M521 523 C517 536 507 542 494 538 C485 536 479 531 472 526 C461 516 452 506 443 496 C418 465 396 433 374 400 C353 370 332 339 311 308 C311 307 309 306 308 306 C285 303 262 301 239 298 C216 294 192 291 169 287 C148 284 128 279 108 273 C99 271 90 267 81 267 C79 267 77 265 77 263 C77 261 79 259 81 259 C84 259 87 259 90 260 C104 263 116 267 130 269 C145 273 161 276 176 280 C189 282 201 284 214 286 C229 288 243 291 258 293 C267 294 276 295 285 296 C292 297 298 297 304 298 C304 297 304 297 303 296 C283 267 262 238 241 209 C218 177 192 146 165 117 C162 114 160 112 156 112 C132 112 108 111 84 107 C65 104 47 99 29 91 C10 82 -6 70 -19 53 C-26 45 -30 36 -32 26 C-34 16 -32 8 -24 1 C-18 -4 -10 -5 -2 -6 C10 -6 22 -4 34 0 C56 6 77 16 96 28 C127 48 155 71 181 97 C183 99 186 100 189 100 C214 99 240 98 265 97 C303 94 341 91 379 89 C393 88 406 86 419 82 C424 81 428 80 431 75 C432 73 434 73 435 74 C437 75 438 77 437 78 C435 81 434 84 431 86 C427 88 424 90 419 91 C405 95 391 97 377 99 C347 102 318 105 288 107 C262 109 236 110 210 111 C206 111 201 112 196 112 C196 112 196 113 196 113 C199 116 202 119 205 123 C243 164 277 210 310 256 C320 271 329 285 339 300 C340 301 341 302 342 302 C359 303 376 305 394 301 C395 300 396 302 397 302 C396 303 396 304 395 305 C395 306 394 306 393 306 C385 309 376 309 367 309 C360 309 353 309 346 309 C346 310 346 310 347 310 C367 342 387 373 408 404 C426 432 445 461 466 488 C473 498 482 508 492 517 C494 519 498 521 501 523 C504 524 506 523 507 520 C508 518 509 514 510 511 C511 503 510 495 508 487 C502 456 491 427 476 399 C473 392 469 384 466 377 C465 375 464 374 464 372 C465 369 468 368 470 370 C472 371 474 373 475 375 C478 379 480 384 483 389 C500 421 513 456 521 492 C523 502 524 513 521 523 L521 523 Z M134 86 C111 65 87 45 60 30 C45 22 30 15 14 12 C7 10 -1 9 -8 10 C-18 12 -21 16 -19 26 C-17 33 -13 40 -8 47 C4 63 21 74 40 82 C56 89 73 93 90 96 C109 98 129 100 148 99 C144 95 139 90 134 86 L134 86 Z " />
<glyph glyph-name="yen" unicode="&#xa5;" horiz-adv-x="356" d="M232 367 C211 337 182 302 161 270 C159 267 157 267 154 267 C144 267 134 268 124 268 C89 267 55 266 21 264 C16 264 12 264 8 264 C5 263 3 262 2 260 C2 257 2 255 4 253 C6 252 8 251 10 251 C15 249 19 248 24 248 C36 248 48 248 60 248 C89 248 117 249 146 250 C138 236 129 224 120 212 C119 209 117 208 113 208 C86 206 59 204 33 202 C29 202 26 202 23 201 C21 201 19 199 19 198 C19 197 20 195 21 193 C22 192 24 191 26 191 C28 190 31 190 34 189 C44 189 54 189 64 189 C79 189 92 190 106 190 C96 176 87 161 78 147 C62 121 46 94 34 66 C30 57 26 47 23 37 C21 32 21 27 21 21 C22 16 24 11 29 8 C32 6 35 7 36 9 C38 11 38 14 35 16 C33 19 32 22 33 25 C33 28 34 31 35 34 C38 46 43 57 49 67 C71 110 97 150 124 189 C126 192 128 192 131 193 C140 193 149 194 158 194 C183 195 209 196 234 197 C239 197 244 196 248 196 C249 194 249 193 249 192 C250 189 252 188 254 189 C258 189 261 193 262 197 C262 200 261 203 257 205 C254 206 252 208 249 208 C239 209 229 210 219 210 C192 210 165 209 138 209 C147 221 156 235 166 248 C167 250 170 251 172 251 C214 251 256 251 297 247 C305 246 312 246 320 243 C320 242 320 242 320 241 C319 239 320 237 322 236 C323 235 325 236 327 237 C334 240 334 248 327 252 C323 254 318 256 314 257 C293 261 272 262 251 263 C228 266 203 264 180 267 C190 279 200 292 210 304 C280 392 354 477 429 560 C430 562 432 563 432 564 C434 567 434 572 432 574 C429 576 425 577 422 574 C421 574 419 572 418 571 C410 563 402 556 394 548 C360 514 328 479 297 444 C291 437 284 431 278 425 C246 400 215 374 174 352 C168 349 138 332 135 346 C133 356 137 373 142 385 C149 401 156 415 165 429 C185 462 210 493 236 522 C238 524 240 527 244 529 C243 527 242 523 245 520 C250 520 258 535 260 540 C263 547 259 553 252 553 C242 551 232 543 224 535 C187 502 157 463 134 419 C123 399 110 372 112 348 C113 328 126 317 145 319 C173 322 207 351 232 367 L232 367 Z " />
<glyph glyph-name="copyright" unicode="&#xa9;" horiz-adv-x="430" d="M401 399 C400 404 395 406 391 403 C389 401 387 400 387 398 C386 397 386 395 386 394 C387 393 389 393 390 392 C391 392 391 393 392 393 C392 392 392 391 392 390 C389 364 384 338 376 312 C368 283 357 255 345 227 C323 176 292 130 249 94 C227 76 204 60 177 50 C151 41 124 36 96 42 C83 45 71 50 62 60 C55 69 50 79 48 91 C43 115 44 139 48 163 C50 176 53 189 56 202 C62 227 70 252 81 277 C115 354 163 423 224 481 C240 498 259 513 279 524 C297 534 315 540 335 541 C358 541 377 527 381 504 C384 490 383 476 380 463 C379 455 377 448 375 441 C374 438 375 435 377 433 C380 431 382 431 384 432 C386 433 387 435 388 436 C392 443 393 450 394 456 C396 471 397 486 394 501 C389 530 369 548 339 551 C321 552 304 549 287 542 C264 532 244 518 225 502 C191 473 161 440 134 404 C103 361 76 316 56 267 C40 228 29 188 25 146 C23 126 23 106 28 87 C32 71 38 57 50 46 C64 31 81 25 101 23 C113 21 125 21 137 23 C161 26 182 33 202 44 C235 62 264 85 289 112 C320 145 344 182 363 223 C376 252 387 282 392 314 C394 325 396 336 398 347 C400 361 401 375 402 390 C402 393 402 396 401 399 L401 399 Z M302 363 C297 353 291 344 284 336 C282 334 280 333 279 331 C277 329 277 327 278 325 C279 323 281 322 284 323 C285 324 286 324 286 325 C293 329 299 335 304 342 C317 360 326 379 333 400 C336 408 338 416 338 424 C337 435 330 443 318 444 C311 444 304 441 297 437 C285 430 275 420 265 410 C233 377 204 341 179 302 C163 277 148 252 137 224 C132 211 127 197 126 183 C126 178 126 173 126 169 C128 152 140 141 157 141 C166 141 173 144 181 147 C195 154 208 164 219 175 C246 202 269 233 288 267 C290 271 292 277 294 282 C295 286 293 290 290 292 C287 295 283 294 280 291 C279 291 279 290 278 290 C271 282 262 274 255 266 C251 262 249 258 246 253 C244 251 244 248 246 245 C246 244 246 243 246 242 C231 226 216 209 201 193 C193 184 183 176 171 170 C167 168 162 166 157 165 C153 164 151 166 149 170 C149 171 148 173 148 174 C147 183 149 192 151 201 C155 216 161 230 167 244 C195 299 230 349 271 394 C281 404 291 413 303 421 C307 423 311 425 316 426 C319 427 320 426 320 423 C320 418 320 414 319 409 C316 393 309 378 302 363 L302 363 Z " />
<glyph glyph-name="registered" unicode="&#xae;" horiz-adv-x="467" d="M118 9 C148 8 175 11 204 27 C244 50 278 81 306 117 C332 150 353 187 372 224 C377 233 380 243 384 252 C384 254 385 256 384 259 C384 263 380 266 376 263 C373 262 370 259 367 256 C366 255 366 253 367 252 C368 251 369 251 371 250 C371 250 372 251 373 251 C373 250 373 250 373 250 C371 247 370 244 369 242 C359 221 347 201 334 181 C312 145 286 112 253 85 C234 69 215 55 193 44 C172 34 150 28 126 30 C112 31 100 36 90 44 C76 54 67 67 60 82 C49 107 45 134 44 162 C43 186 45 209 49 233 C52 253 57 272 63 292 C77 339 97 384 122 427 C150 476 184 520 227 558 C248 577 272 593 298 605 C322 616 347 622 374 619 C389 617 402 612 414 602 C432 588 439 568 441 545 C442 521 437 498 430 475 C418 437 402 401 387 365 C381 353 376 341 371 329 C371 327 370 324 370 322 C370 319 373 317 375 316 C378 315 380 316 382 319 C386 325 390 332 393 339 C405 365 414 393 424 421 C435 452 445 483 449 516 C450 533 450 549 445 566 C438 591 422 610 398 620 C375 628 352 628 329 624 C306 620 285 610 265 599 C229 578 200 551 173 521 C141 486 116 446 93 405 C63 348 39 288 30 224 C28 209 26 193 25 177 C25 158 25 139 28 120 C32 96 39 75 52 55 C67 30 89 14 118 9 L118 9 Z M181 307 C180 306 180 305 180 304 C169 282 159 260 149 238 C148 236 147 234 146 232 C145 225 151 218 159 219 C163 220 165 222 167 226 C170 231 173 237 176 243 C187 264 197 286 208 307 C209 309 210 310 212 310 C217 310 222 310 227 311 C248 311 268 309 289 306 C305 304 320 300 334 295 C341 292 349 289 355 283 C358 279 358 276 356 272 C354 269 351 267 348 264 C346 262 346 259 347 257 C349 255 352 255 355 257 C357 259 360 260 362 263 C364 266 367 269 368 273 C370 280 368 286 363 291 C356 300 346 305 336 309 C300 322 262 328 223 329 C222 329 221 329 219 329 C219 330 219 330 219 330 C220 332 222 334 223 335 C257 354 288 377 316 403 C330 415 342 428 353 443 C358 449 362 455 364 463 C365 467 366 471 365 476 C362 483 355 487 345 485 C335 483 326 478 317 472 C302 462 290 449 277 436 C277 435 276 434 275 434 C275 434 275 434 275 434 C275 435 276 436 276 437 C280 443 283 448 286 454 C289 458 288 462 285 464 C282 466 279 466 275 464 C274 463 272 462 271 460 C266 453 260 446 255 438 C235 408 217 378 201 346 C200 344 199 343 198 342 C188 337 179 332 169 327 C168 326 167 326 166 326 C158 325 149 324 141 322 C128 320 115 317 103 312 C99 310 95 308 92 305 C89 302 87 298 89 294 C90 290 94 287 98 287 C104 287 109 288 115 289 C131 292 146 298 162 304 C167 306 174 306 181 307 L181 307 Z M346 468 C344 465 344 463 342 461 C337 454 332 447 326 441 C302 416 275 395 246 374 C247 375 247 375 247 376 C264 399 282 422 303 441 C312 450 322 458 333 464 C337 465 341 467 345 469 C346 468 346 468 346 468 L346 468 Z " />
<glyph glyph-name="germandbls" unicode="&#xdf;" horiz-adv-x="351" d="M351 300 C346 298 341 295 336 293 C282 264 228 234 175 203 C173 203 172 202 170 201 C170 206 171 211 172 216 C173 240 164 258 144 271 C136 276 128 279 120 281 C104 284 88 285 71 286 C130 314 187 347 238 389 C264 410 289 433 310 459 C319 471 327 483 333 497 C337 505 339 513 339 522 C339 534 334 544 324 550 C317 555 310 557 301 557 C288 557 276 554 263 549 C249 544 236 536 223 527 C190 505 160 479 131 451 C77 398 28 340 -16 278 C-18 275 -20 273 -24 272 C-30 271 -37 269 -43 266 C-46 265 -49 263 -51 261 C-56 257 -54 250 -48 249 C-46 248 -45 248 -43 248 C-41 248 -39 248 -36 248 C-37 246 -39 244 -40 242 C-54 221 -66 198 -77 175 C-85 158 -93 141 -98 123 C-99 119 -100 114 -100 109 C-100 103 -97 99 -92 98 C-88 97 -84 99 -81 104 C-79 107 -78 110 -77 113 C-59 164 -33 210 -4 255 C-2 257 0 259 2 259 C7 261 12 263 17 265 C41 276 76 274 99 271 C112 269 124 266 135 259 C148 251 155 239 156 224 C156 213 153 203 150 193 C148 189 146 186 142 184 C115 167 88 150 60 132 C46 123 32 113 19 101 C12 95 5 88 1 80 C-1 76 -3 72 -4 68 C-6 58 0 50 10 49 C17 48 24 49 31 50 C43 53 54 59 64 66 C85 78 102 95 118 113 C136 133 152 155 162 181 C164 184 166 186 169 188 C215 215 262 243 308 270 C322 277 335 285 349 292 C355 295 354 298 351 300 L351 300 Z M15 280 C62 348 116 410 176 465 C199 486 222 505 248 520 C259 527 270 533 283 536 C292 538 300 540 309 537 C317 534 321 529 321 521 C321 515 319 510 318 505 C314 496 309 487 303 479 C287 457 269 439 249 421 C196 373 136 334 71 304 L15 280 Z M125 149 C111 129 95 111 77 95 C66 84 53 75 40 68 C33 65 26 62 19 62 C17 61 14 61 11 62 C9 62 7 63 8 66 C9 69 10 72 12 74 C17 82 23 88 29 94 C42 105 57 115 72 125 C92 138 112 152 133 165 C134 165 134 166 135 166 C136 166 136 166 136 165 C132 160 129 154 125 149 L125 149 Z " />
<glyph glyph-name="quoteleft" unicode="&#x2018;" horiz-adv-x="174" d="M193 580 C193 585 192 588 189 590 C186 591 183 591 181 588 C178 586 176 583 174 580 C167 567 159 554 152 541 C147 532 143 522 138 511 C136 507 135 502 134 497 C134 494 135 492 138 491 C140 490 142 491 144 494 C145 495 145 497 146 498 C149 504 151 511 155 517 C161 528 167 538 174 549 C179 557 184 564 189 572 C191 575 192 578 193 580 L193 580 Z " />
<glyph glyph-name="quoteright" unicode="&#x2019;" horiz-adv-x="174" d="M193 580 C193 585 192 588 189 590 C186 591 183 591 181 588 C178 586 176 583 174 580 C167 567 159 554 152 541 C147 532 143 522 138 511 C136 507 135 502 134 497 C134 494 135 492 138 491 C140 490 142 491 144 494 C145 495 145 497 146 498 C149 504 151 511 155 517 C161 528 167 538 174 549 C179 557 184 564 189 572 C191 575 192 578 193 580 L193 580 Z " />
<glyph glyph-name="quotedblleft" unicode="&#x201c;" horiz-adv-x="207" d="M238 559 C238 560 238 561 238 562 C233 565 230 565 226 562 C223 558 220 555 217 551 C197 519 176 486 156 454 C154 452 154 450 156 448 C157 447 159 447 161 449 C163 451 165 454 167 456 C189 488 210 519 232 551 C234 554 236 556 238 559 L238 559 Z M193 567 C192 567 190 566 188 565 C186 563 185 561 183 559 C163 529 144 498 124 468 C122 465 122 463 124 462 C126 460 128 461 130 463 C132 466 135 470 138 473 C153 493 168 514 182 534 C187 539 191 545 194 550 C196 553 198 556 199 560 C201 564 198 567 193 567 L193 567 Z " />
<glyph glyph-name="quotedblright" unicode="&#x201d;" horiz-adv-x="207" d="M238 559 C238 560 238 561 238 562 C233 565 230 565 226 562 C223 558 220 555 217 551 C197 519 176 486 156 454 C154 452 154 450 156 448 C157 447 159 447 161 449 C163 451 165 454 167 456 C189 488 210 519 232 551 C234 554 236 556 238 559 L238 559 Z M193 567 C192 567 190 566 188 565 C186 563 185 561 183 559 C163 529 144 498 124 468 C122 465 122 463 124 462 C126 460 128 461 130 463 C132 466 135 470 138 473 C153 493 168 514 182 534 C187 539 191 545 194 550 C196 553 198 556 199 560 C201 564 198 567 193 567 L193 567 Z " />
</font>
</svg>
