<?xml version="1.0" encoding="UTF-8"?>
<svg xmlns="http://www.w3.org/2000/svg" xmlns:xlink="http://www.w3.org/1999/xlink" version="1.2" >
<font id="Jacksons Sans">
<font-face  font-family="Jacksons Sans" units-per-em="1000" ascent="750" descent="-250" font-style="normal" font-weight="250" font-stretch="normal" cap-height="688" x-height="760" underline-position="-75" underline-thickness="50" />
<missing-glyph  horiz-adv-x="119" d="" />
<glyph glyph-name="NULL" d="" />
<glyph glyph-name="nonmarkingreturn" unicode="&#xd;" horiz-adv-x="119" d="" />
<glyph glyph-name="space" unicode="&#x20;" horiz-adv-x="119" d="" />
<glyph glyph-name="dollar" unicode="&#x24;" horiz-adv-x="373" d="M261 455 Q261 464 258 474 Q256 482 251 490.5 Q246 499 237 506 L237 284 Q246 282 252.5 280 Q259 278 264 276 Q269 273 273 271 Q292 262 306 248 Q318 236 328 216.5 Q338 197 338 168 L338 52 Q338 47 336.5 29 Q335 11 325.5 -10 Q316 -31 295.5 -50.5 Q275 -70 237 -77 L237 -84 L237 -100 L159 -100 L159 -84 L159 -77 Q120 -70 99.5 -50 Q79 -30 69.5 -9 Q60 12 58.5 30 Q57 48 57 52 L57 150 L135 150 L135 52 Q135 42 138 33 Q140 25 145 16.5 Q150 8 159 1 L159 219 Q149 221 141 224.5 Q133 228 127 230 Q120 233 114 235 Q97 243 85 255 Q74 266 65.5 281 Q57 296 57 318 L57 455 Q57 459 58.5 477 Q60 495 69.5 516 Q79 537 99.5 556.5 Q120 576 159 584 L159 607 L237 607 L237 584 Q275 577 295.5 557.5 Q316 538 325.5 517 Q335 496 336.5 478 Q338 460 338 455 L338 348 L261 348 L261 455 Z M135 322 Q136 317 139 313 Q141 309 146 305 Q151 301 159 297 L159 506 Q150 499 145 490.5 Q140 482 138 474 Q135 464 135 455 L135 322 Z M261 172 Q261 178 258 184 Q253 196 237 204 L237 1 Q246 7 251 16 Q256 25 258 33 Q261 43 261 52 L261 172 Z " />
<glyph glyph-name="percent" unicode="&#x25;" horiz-adv-x="494" d="M39 347 L39 494 Q39 512 46 527 Q53 542 65 553 Q77 564 92.5 570.5 Q108 577 125 577 Q141 577 156.5 570.5 Q172 564 183.5 553 Q195 542 202 527 Q209 512 209 494 L209 347 Q209 329 202 314 Q195 299 183.5 288 Q172 277 157 271 Q142 265 125 265 Q108 265 92.5 271 Q77 277 65 288 Q53 299 46 314 Q39 329 39 347 Z M337 595 L416 595 L168 -87 L88 -87 L337 595 Z M142 488 Q142 495 136.5 499 Q131 503 126 503 Q110 503 110 488 L110 343 Q110 337 115 332.5 Q120 328 126 328 Q133 328 137.5 332.5 Q142 337 142 343 L142 488 Z M288 -4 L288 144 Q288 179 312.5 202.5 Q337 226 373 226 Q407 226 432 202.5 Q457 179 457 144 L457 -4 Q457 -22 450 -37 Q443 -52 431.5 -63 Q420 -74 405 -80.5 Q390 -87 373 -87 Q338 -87 313 -63.5 Q288 -40 288 -4 Z M387 142 Q387 147 382.5 151 Q378 155 372 155 Q365 155 360 151 Q355 147 355 142 L355 -5 Q355 -19 372 -19 Q378 -19 382.5 -14.5 Q387 -10 387 -5 L387 142 Z " />
<glyph glyph-name="ampersand" unicode="&#x26;" horiz-adv-x="417" d="M364 225 L334 225 L334 73 L334 47 Q332 20 320 -3.5 Q308 -27 288.5 -43.5 Q269 -60 244.5 -69.5 Q220 -79 193 -79 Q167 -79 142.5 -70 Q118 -61 98.5 -44.5 Q79 -28 67 -5 Q55 18 53 45 L53 195 Q55 218 62 231.5 Q69 245 77 251 Q87 258 99 260 Q87 261 77 269 Q69 276 62 289.5 Q55 303 53 328 L53 463 Q55 490 67 513 Q79 536 98.5 552.5 Q118 569 142.5 578.5 Q167 588 193 588 Q220 588 244.5 578.5 Q269 569 288.5 552.5 Q308 536 320 512.5 Q332 489 334 462 L334 455 L334 454 L334 399 L256 399 L256 454 L255 454 Q255 479 236 495 Q217 511 193 511 Q169 511 149.5 495 Q130 479 130 453 L130 356 Q131 350 133.5 341 Q136 332 142.5 323.5 Q149 315 161 309.5 Q173 304 193 304 L256 304 L256 317 L334 317 L334 303 L364 304 L364 225 Z M256 225 L192 225 Q173 225 161 219.5 Q149 214 142.5 205.5 Q136 197 133.5 188 Q131 179 130 173 L130 55 Q130 30 149.5 13.5 Q169 -3 193 -3 Q218 -3 237 13.5 Q256 30 256 55 L256 73 L256 225 Z " />
<glyph glyph-name="quotesingle" unicode="&#x27;" horiz-adv-x="183" d="M156 584 L76 448 L20 448 L77 584 L156 584 L156 584 Z " />
<glyph glyph-name="parenleft" unicode="&#x28;" horiz-adv-x="167" d="M141 -151 Q110 -148 89 -136 Q68 -124 54.5 -107.5 Q41 -91 34 -72 Q27 -53 23.5 -36.5 Q20 -20 19.5 -7.5 Q19 5 19 9 L19 497 Q19 502 21 526 Q23 550 34 577.5 Q45 605 70 628.5 Q95 652 141 657 L141 569 Q124 564 115.5 552 Q107 540 102 528 Q97 514 96 497 L96 9 Q97 -8 102 -23 Q107 -36 115.5 -48 Q124 -60 141 -65 L141 -151 Z " />
<glyph glyph-name="parenright" unicode="&#x29;" horiz-adv-x="181" d="M28 -65 Q45 -60 53.5 -48 Q62 -36 67 -23 Q72 -8 73 9 L73 497 Q72 514 67 528 Q62 540 53.5 552 Q45 564 28 569 L28 657 Q74 652 99 628.5 Q124 605 135.5 577.5 Q147 550 148.5 526 Q150 502 150 497 L150 9 Q150 5 149.5 -7.5 Q149 -20 146 -36.5 Q143 -53 135.5 -72 Q128 -91 114.5 -107.5 Q101 -124 80 -136.5 Q59 -149 28 -152 L28 -65 Z " />
<glyph glyph-name="asterisk" unicode="&#x2a;" horiz-adv-x="227" d="M155 406 Q166 399 178.5 392.5 Q191 386 203 379 Q195 367 188.5 357 Q182 347 174 336 L139 363 L139 318 L85 318 L86 363 Q67 349 61 344 Q55 339 51 337 L22 379 L70 406 L22 434 Q30 446 36.5 455.5 Q43 465 51 477 L85 451 L85 495 L138 495 L138 449 Q145 454 155.5 462 Q166 470 174 477 Q182 466 189 456 Q196 446 203 435 L155 406 Z " />
<glyph glyph-name="plus" unicode="&#x2b;" horiz-adv-x="388" d="M349 261 L236 261 L236 147 L157 147 L157 261 L43 261 L43 340 L157 340 L157 452 L236 452 L236 340 L349 340 L349 261 L349 261 Z " />
<glyph glyph-name="comma" unicode="&#x2c;" horiz-adv-x="179" d="M155 18 L75 -118 L19 -118 L77 18 L155 18 L155 18 Z " />
<glyph glyph-name="hyphen" unicode="&#x2d;" horiz-adv-x="307" d="M37 259 L37 338 L272 338 L272 259 L37 259 L37 259 Z " />
<glyph glyph-name="period" unicode="&#x2e;" horiz-adv-x="119" d="M22 -77 L22 20 L99 20 L99 -77 L22 -77 L22 -77 Z " />
<glyph glyph-name="slash" unicode="&#x2f;" horiz-adv-x="356" d="M102 -99 L24 -99 L256 612 L335 612 L102 -99 L102 -99 Z " />
<glyph glyph-name="zero" unicode="0" horiz-adv-x="389" d="M197 587 Q232 587 256 578 Q280 569 295.5 555.5 Q311 542 319.5 526 Q328 510 332 495 Q336 480 336.5 469 Q337 458 337 454 L337 54 Q337 50 336.5 39 Q336 28 332 13 Q328 -2 319.5 -18 Q311 -34 295.5 -47.5 Q280 -61 256 -70 Q232 -79 197 -79 Q144 -79 115 -60 Q86 -41 73 -17.5 Q60 6 58 27.5 Q56 49 56 54 L56 454 Q56 457 56.5 468 Q57 479 61 494 Q65 509 73.5 525 Q82 541 97.5 555 Q113 569 137 578 Q161 587 197 587 Z M197 516 Q173 516 160.5 506 Q148 496 142 485 Q135 471 134 454 L134 212 L254 482 Q249 495 236 505.5 Q223 516 197 516 Z M197 -9 Q221 -9 233.5 0.5 Q246 10 252 22 Q259 36 260 54 L260 304 L139 30 Q144 16 156.5 3.5 Q169 -9 197 -9 Z " />
<glyph glyph-name="one" unicode="1" horiz-adv-x="179" d="M117 587 L139 587 L139 -79 L62 -79 L62 512 L39 512 L39 587 L62 587 L117 587 L117 587 Z " />
<glyph glyph-name="three" unicode="3" horiz-adv-x="352" d="M319 329 Q317 304 309.5 290.5 Q302 277 294 270 Q284 262 272 261 Q284 259 294 252 Q302 245 309.5 232 Q317 219 319 195 L319 46 Q317 19 304.5 -4 Q292 -27 273 -43.5 Q254 -60 229.5 -69.5 Q205 -79 179 -79 L178 -79 Q151 -79 126.5 -69.5 Q102 -60 83 -43.5 Q64 -27 51.5 -3.5 Q39 20 38 47 L38 74 L38 165 L116 165 L116 74 L116 56 Q116 31 135 14.5 Q154 -2 178 -2 L179 -2 Q203 -2 222 14.5 Q241 31 241 56 L241 174 Q241 180 238.5 189 Q236 198 229 206.5 Q222 215 210 220.5 Q198 226 179 226 L156 226 L157 304 L179 304 Q198 304 210 309.5 Q222 315 229 323 Q236 331 238.5 339.5 Q241 348 241 355 L241 452 Q241 477 222 493.5 Q203 510 179 510 L178 510 Q154 510 135.5 494 Q117 478 116 453 L116 358 L38 358 L38 453 L38 454 L38 460 Q39 488 51.5 511 Q64 534 83 551 Q102 568 126.5 577.5 Q151 587 178 587 L179 587 Q205 587 229.5 577.5 Q254 568 273 551.5 Q292 535 304.5 512 Q317 489 319 462 L319 329 L319 329 Z " />
<glyph glyph-name="four" unicode="4" horiz-adv-x="391" d="M365 243 L365 165 L335 165 L335 -79 L258 -79 L258 165 L39 165 L39 238 L246 587 L335 587 L335 243 L365 243 Z M258 243 L258 471 L130 243 L258 243 Z " />
<glyph glyph-name="two" unicode="2" horiz-adv-x="375" d="M124 71 L124 -2 L328 -2 L328 -79 L47 -79 L47 87 Q47 102 52.5 121 Q58 140 71.5 158 Q85 176 108 190.5 Q131 205 166 213 Q177 215 191.5 219.5 Q206 224 219 233.5 Q232 243 241.5 260 Q251 277 251 304 L251 454 Q251 472 245 486 Q240 498 226.5 507.5 Q213 517 188 516 Q164 516 151 506 Q138 496 132 485 Q125 471 124 454 L124 359 L47 359 L47 454 Q47 457 47.5 468 Q48 479 52 494 Q56 509 64 525 Q72 541 88 555 Q104 569 128 578 Q152 587 188 587 Q223 587 247 578 Q271 569 286.5 555.5 Q302 542 310.5 526 Q319 510 323 495 Q327 480 327.5 469 Q328 458 328 454 L328 283 Q328 260 320 238 Q312 216 298 197.5 Q284 179 263 165.5 Q242 152 217 148 Q168 140 146.5 121.5 Q125 103 124 71 Z " />
<glyph glyph-name="five" unicode="5" horiz-adv-x="380" d="M129 509 L129 365 Q137 367 148 370 Q157 372 168 374 Q179 376 193 376 Q254 375 293.5 345 Q333 315 333 255 L333 54 Q333 50 332.5 39 Q332 28 328 13 Q324 -2 315.5 -18 Q307 -34 291.5 -47.5 Q276 -61 252 -70 Q228 -79 193 -79 Q139 -79 110.5 -60 Q82 -41 69 -17.5 Q56 6 54 27.5 Q52 49 52 54 L52 109 L129 109 L129 54 Q130 36 137 22 Q143 10 155.5 0.5 Q168 -9 192 -9 Q216 -9 229 0.5 Q242 10 248 22 Q255 36 255 54 L255 226 Q255 241 253.5 254.5 Q252 268 246 278 Q240 288 227.5 294 Q215 300 193 299 Q168 298 155 292 Q142 286 137 278 Q130 269 130 258 L52 258 L52 587 L333 587 L333 509 L129 509 Z " />
<glyph glyph-name="six" unicode="6" horiz-adv-x="383" d="M196 -79 Q161 -79 136.5 -70 Q112 -61 96.5 -47.5 Q81 -34 72.5 -18 Q64 -2 60 13 Q56 28 55.5 39 Q55 50 55 54 L55 339 L55 345 L55 454 Q55 458 55.5 469 Q56 480 60 495 Q64 510 72.5 526 Q81 542 96.5 555.5 Q112 569 136.5 578 Q161 587 196 587 Q231 587 255.5 578 Q280 569 295.5 555 Q311 541 319.5 525 Q328 509 332 494 Q336 479 336.5 468 Q337 457 337 454 L337 410 L259 410 L259 454 Q258 471 251 485 Q245 497 232 507 Q219 517 196 517 Q172 517 159 507 Q146 497 140 485 Q133 471 133 454 L133 335 Q133 325 140 316 Q145 308 158 301.5 Q171 295 196 294 Q226 293 251.5 284.5 Q277 276 296 262 Q315 248 326 229 Q337 210 337 189 L337 54 Q337 49 335 27.5 Q333 6 320 -17.5 Q307 -41 278 -60 Q249 -79 196 -79 Z M196 218 Q173 220 157.5 223.5 Q142 227 133 230 L133 54 Q133 36 140 22 Q146 10 159 0.5 Q172 -9 196 -9 Q219 -9 232 0.5 Q245 10 251 22 Q258 36 259 54 L259 185 Q257 193 250 200 Q244 206 231 211 Q218 216 196 218 Z " />
<glyph glyph-name="seven" unicode="7" horiz-adv-x="359" d="M328 587 L328 492 Q278 429 239 344 Q222 308 206.5 263 Q191 218 178 165 Q165 112 157.5 51 Q150 -10 150 -79 L70 -79 Q70 59 97.5 167.5 Q125 276 158 352 Q197 441 247 509 L33 509 L33 587 L328 587 Z " />
<glyph glyph-name="eight" unicode="8" horiz-adv-x="381" d="M338 327 Q336 302 328.5 288.5 Q321 275 313 268 Q303 260 292 259 Q303 257 313 250 Q321 244 328.5 231 Q336 218 338 194 L338 45 Q336 18 324 -5 Q312 -28 292.5 -44.5 Q273 -61 248.5 -70 Q224 -79 198 -79 Q171 -79 146.5 -69.5 Q122 -60 102.5 -43.5 Q83 -27 71 -3.5 Q59 20 57 47 L57 192 Q59 217 66.5 230 Q74 243 82 250 Q92 257 104 259 Q92 260 82 268 Q74 275 66.5 289 Q59 303 57 329 L57 461 Q59 488 71 511.5 Q83 535 102.5 551.5 Q122 568 146.5 577.5 Q171 587 198 587 Q224 587 248.5 577.5 Q273 568 292.5 551.5 Q312 535 324 512.5 Q336 490 338 463 L338 327 Z M260 172 Q260 179 257.5 188 Q255 197 248.5 205 Q242 213 230 219 Q218 225 199 225 L197 225 Q178 225 166 219 Q154 213 147.5 205 Q141 197 138.5 188 Q136 179 135 172 L135 56 Q135 30 154 14 Q173 -2 198 -2 Q222 -2 241 14 Q260 30 260 56 L260 172 Z M260 452 Q260 478 241 494 Q222 510 198 510 Q173 510 154 494 Q135 478 135 452 L135 356 Q136 349 138.5 340 Q141 331 147.5 322.5 Q154 314 166 308.5 Q178 303 198 303 Q217 303 229 308.5 Q241 314 248 322.5 Q255 331 257.5 340 Q260 349 260 356 L260 452 Z " />
<glyph glyph-name="nine" unicode="9" horiz-adv-x="372" d="M182 587 Q217 587 241.5 578 Q266 569 281.5 555.5 Q297 542 305.5 526 Q314 510 318 495 Q322 480 322.5 469 Q323 458 323 454 L323 54 Q323 50 322.5 39 Q322 28 318 13 Q314 -2 305.5 -18 Q297 -34 281.5 -47.5 Q266 -61 241.5 -70 Q217 -79 182 -79 Q129 -79 100 -60 Q71 -41 58 -17.5 Q45 6 43 27.5 Q41 49 41 54 L41 98 L119 98 L119 54 Q120 36 127 22 Q133 10 145.5 0.5 Q158 -9 182 -9 Q206 -9 219 0.5 Q232 10 238 22 Q245 36 245 54 L245 157 Q245 173 239 185 Q234 196 221 204.5 Q208 213 182 214 Q153 215 127.5 223.5 Q102 232 82.5 246 Q63 260 52 279 Q41 298 41 319 L41 454 Q41 457 41.5 468 Q42 479 46 494 Q50 509 58.5 525 Q67 541 82.5 555 Q98 569 122 578 Q146 587 182 587 Z M183 290 Q206 288 221.5 285 Q237 282 245 278 L245 454 Q245 471 238 485 Q232 497 219 507 Q206 517 182 517 Q158 517 145.5 507 Q133 497 127 485 Q120 471 119 454 L119 323 Q120 315 128 308 Q134 302 147 297 Q160 292 183 290 Z " />
<glyph glyph-name="colon" unicode="&#x3a;" horiz-adv-x="157" d="M44 405 L44 501 L122 501 L122 405 L44 405 L44 405 Z M44 101 L44 198 L122 198 L122 101 L44 101 L44 101 Z " />
<glyph glyph-name="semicolon" unicode="&#x3b;" horiz-adv-x="218" d="M181 196 L101 60 L45 60 L102 196 L181 196 L181 196 Z M103 403 L103 500 L181 500 L181 403 L103 403 L103 403 Z " />
<glyph glyph-name="less" unicode="&#x3c;" horiz-adv-x="410" d="M359 152 L53 267 L53 333 L359 448 L359 367 L164 300 Q212 283 263 266 Q314 249 359 233 L359 152 Z " />
<glyph glyph-name="equal" unicode="&#x3d;" horiz-adv-x="318" d="M36 323 L36 401 L285 401 L285 323 L36 323 L36 323 Z M36 201 L36 279 L285 279 L285 201 L36 201 L36 201 Z " />
<glyph glyph-name="greater" unicode="&#x3e;" horiz-adv-x="389" d="M48 233 Q93 249 144 266 Q195 283 243 300 L48 367 L48 448 L354 333 L354 267 L48 152 L48 233 Z " />
<glyph glyph-name="question" unicode="&#x3f;" horiz-adv-x="369" d="M187 -3 L187 -79 L109 -79 L109 -3 L187 -3 Z M335 283 Q335 258 324 243.5 Q313 229 297 220 Q281 211 262 206 Q243 201 226.5 194.5 Q210 188 198.5 178 Q187 168 187 150 L187 40 L108 40 Q108 62 108 83 Q108 104 108 121.5 Q108 139 108.5 151.5 Q109 164 109 168 Q111 210 148 239.5 Q185 269 257 283 L257 355 L257 455 Q257 472 250 486 Q244 497 231 507 Q218 517 194 517 Q170 517 157.5 507 Q145 497 139 486 Q132 472 131 455 L131 410 L54 410 L54 455 Q54 459 56 480.5 Q58 502 71 525.5 Q84 549 112.5 568 Q141 587 194 587 Q247 587 275.5 568.5 Q304 550 317.5 526.5 Q331 503 333 481.5 Q335 460 335 455 L335 283 Z " />
<glyph glyph-name="at" unicode="&#x40;" horiz-adv-x="417" d="M210 546 Q272 546 305.5 531 Q339 516 354.5 497.5 Q370 479 372.5 461.5 Q375 444 375 440 L375 121 Q375 116 372.5 99 Q370 82 354.5 63.5 Q339 45 305.5 30 Q272 15 210 15 Q147 15 113.5 30 Q80 45 65 64 Q50 83 47.5 100 Q45 117 45 121 L45 440 Q45 444 47.5 461 Q50 478 65 497 Q80 516 113.5 531 Q147 546 210 546 Z M329 440 Q322 457 307 470 Q294 481 271 491 Q248 501 210 501 Q175 501 152 491 Q129 481 115 470 Q99 457 91 440 L91 121 Q98 103 113 90 Q126 79 149 69.5 Q172 60 210 60 Q245 60 268 69.5 Q291 79 305 90 Q321 103 329 121 L329 440 Z M210 459 Q238 459 253.5 449 Q269 439 276 426.5 Q283 414 284 402.5 Q285 391 285 388 L285 329 L285 326 L285 173 Q285 170 284 158.5 Q283 147 276 134 Q269 121 253.5 111 Q238 101 210 101 Q181 101 165.5 111.5 Q150 122 143 134.5 Q136 147 135 158.5 Q134 170 134 173 L134 245 Q134 268 156 284 Q178 300 210 302 Q223 302 230 305.5 Q237 309 240 313 Q244 317 244 324 L244 388 Q244 397 240 405 Q237 411 230 416.5 Q223 422 210 422 Q197 422 190 416.5 Q183 411 180 405 Q176 397 176 388 L134 388 Q134 391 135 402 Q136 413 143 426 Q150 439 165.5 449 Q181 459 210 459 Z M210 139 Q223 139 230 144 Q237 149 240 156 Q244 163 244 173 L243 267 Q238 265 230 263.5 Q222 262 210 261 Q198 260 191 257 Q184 254 181 251 Q177 247 176 243 L176 173 Q176 163 180 156 Q183 149 190 144 Q197 139 210 139 Z " />
<glyph glyph-name="bracketleft" unicode="&#x5b;" horiz-adv-x="214" d="M52 626 Q63 640 82 648.5 Q101 657 132 657 L184 657 L184 584 L157 584 Q134 584 121 579.5 Q108 575 108 550 L108 -46 Q108 -59 111 -65.5 Q114 -72 119.5 -75 Q125 -78 133.5 -78.5 Q142 -79 153 -79 L184 -79 L184 -151 L132 -151 Q78 -151 53 -120 Q32 -96 32 -54 L32 545 Q32 568 36.5 590 Q41 612 52 626 Z " />
<glyph glyph-name="backslash" unicode="&#x5c;" horiz-adv-x="343" d="M17 609 L95 609 L328 -102 L250 -102 L17 609 L17 609 Z " />
<glyph glyph-name="bracketright" unicode="&#x5d;" horiz-adv-x="211" d="M165 626 Q177 612 181.5 590 Q186 568 186 545 L186 -54 Q186 -96 165 -120 Q139 -151 86 -151 L34 -151 L34 -79 L64 -79 Q75 -79 83.5 -78.5 Q92 -78 98 -75 Q104 -72 107 -65.5 Q110 -59 110 -46 L110 550 Q110 575 96.5 579.5 Q83 584 61 584 L34 584 L34 657 L86 657 Q117 657 135.5 648.5 Q154 640 165 626 Z " />
<glyph glyph-name="asciicircum" unicode="&#x5e;" horiz-adv-x="247" d="M169 584 L226 403 L163 403 L129 528 Q129 527 123.5 508 Q118 489 111 466 Q103 439 94 404 L31 404 L90 584 L169 584 Z " />
<glyph glyph-name="underscore" unicode="&#x5f;" horiz-adv-x="418" d="M22 -77 L22 -10 L396 -10 L396 -77 L22 -77 L22 -77 Z " />
<glyph glyph-name="braceleft" unicode="&#x7b;" horiz-adv-x="277" d="M91 337 L91 546 Q91 569 95.5 591 Q100 613 111 627 Q122 641 140.5 649.5 Q159 658 190 658 L243 658 L243 585 L215 585 Q192 585 179.5 580.5 Q167 576 167 551 L167 327 Q167 319 165 309 Q163 299 158 290 Q153 281 144.5 274.5 Q136 268 121 266 Q133 261 143 252 Q151 244 158.5 231 Q166 218 166 198 L167 199 L167 -46 Q167 -59 170 -65.5 Q173 -72 178.5 -75 Q184 -78 192.5 -78.5 Q201 -79 212 -79 L243 -79 L243 -151 L190 -151 Q137 -151 111 -120 Q91 -95 91 -54 L91 192 Q91 208 74.5 215.5 Q58 223 29 224 L29 306 Q46 305 60 308 Q71 310 81 316.5 Q91 323 91 337 Z " />
<glyph glyph-name="bar" unicode="&#x7c;" horiz-adv-x="143" d="M108 -106 L31 -106 L31 611 L108 611 L108 -106 L108 -106 Z " />
<glyph glyph-name="grave" unicode="&#x60;" horiz-adv-x="208" d="M20 584 L123 584 L181 448 L109 448 L20 584 L20 584 Z " />
<glyph glyph-name="braceright" unicode="&#x7d;" horiz-adv-x="283" d="M184 337 Q184 323 193.5 316.5 Q203 310 215 308 Q228 305 246 306 L246 224 Q184 222 184 192 L184 -54 Q184 -96 163 -120 Q137 -151 85 -151 L32 -151 L32 -79 L63 -79 Q74 -79 82.5 -78.5 Q91 -78 96.5 -75 Q102 -72 105 -65.5 Q108 -59 108 -46 L108 199 L108 198 Q108 218 115 231 Q122 244 130 252 Q140 261 153 266 Q124 270 116 290 Q108 310 108 327 L108 550 Q108 575 94.5 579.5 Q81 584 59 584 L32 584 L32 657 L85 657 Q115 657 133.5 648.5 Q152 640 163 626 Q175 612 179.5 590 Q184 568 184 545 L184 337 L184 337 Z " />
<glyph glyph-name="asciitilde" unicode="&#x7e;" horiz-adv-x="382" d="M44 288 Q60 305 77 318 Q91 329 108.5 339 Q126 349 143 349 Q159 349 172.5 344.5 Q186 340 199 334.5 Q212 329 224.5 324.5 Q237 320 251 320 Q260 320 269.5 325 Q279 330 287 337 Q297 344 306 354 L354 306 Q338 288 320 274 Q305 262 287.5 252 Q270 242 255 242 Q236 241 222.5 245.5 Q209 250 198 256 Q187 262 175.5 266.5 Q164 271 150 271 Q138 270 127 264.5 Q116 259 108 252 Q98 244 90 235 L44 288 Z " />
<glyph glyph-name="Euro" unicode="&#x20ac;" horiz-adv-x="346" d="M189 -9 Q213 -9 226 -1.5 Q239 6 245 16 Q252 27 253 42 L330 42 Q330 37 328 17.5 Q326 -2 312.5 -23.5 Q299 -45 270.5 -62 Q242 -79 190 -79 Q137 -79 108 -60 Q79 -41 66 -17.5 Q53 6 51 27 Q49 48 49 53 L49 159 L28 159 L28 227 L49 227 L49 283 L28 283 L28 351 L49 351 L49 455 Q49 459 51 480.5 Q53 502 66 525.5 Q79 549 108 568 Q137 587 190 587 Q225 587 249 579 Q273 571 288.5 559 Q304 547 312.5 532 Q321 517 325 504 Q329 491 329.5 480.5 Q330 470 330 466 L253 466 Q252 480 245 491 Q239 501 226 509 Q213 517 189 517 Q165 517 152.5 507 Q140 497 134 486 Q127 472 126 455 L127 351 L291 351 L291 283 L127 283 L126 227 L291 227 L291 159 L127 159 L126 53 Q127 35 134 22 Q140 10 152.5 0.5 Q165 -9 189 -9 Z " />
<glyph glyph-name="Zcaron" unicode="&#x17d;" horiz-adv-x="441" d="M382 506 L134 0 L382 0 L382 -77 L39 -77 L39 0 L287 506 L39 506 L39 584 L382 584 L382 506 Z M172 597 L113 697 L176 697 Q185 677 193 662 Q196 655 199.5 649 Q203 643 205 638 Q208 632 211 627 L245 698 L308 698 L251 597 L172 597 Z " />
<glyph glyph-name="Lslash" unicode="&#x141;" horiz-adv-x="340" d="M186 238 L186 1 L318 1 L318 -77 L186 -77 L108 -77 L108 178 L72 150 L16 161 L108 232 L108 584 L186 584 L186 292 L262 352 L318 341 L186 238 L186 238 Z " />
<glyph glyph-name="Scaron" unicode="&#x160;" horiz-adv-x="331" d="M230 455 Q230 472 223 486 Q217 498 204 508 Q191 518 167 518 Q143 518 130.5 508 Q118 498 112 486 Q105 472 104 455 L104 324 Q105 316 113 309 Q119 303 132 298 Q145 293 168 291 Q188 289 202.5 286 Q217 283 226 280 Q237 276 243 273 Q261 264 275 250 Q287 238 297.5 218.5 Q308 199 308 170 L308 54 Q308 50 307.5 39 Q307 28 303 13 Q299 -2 290.5 -18 Q282 -34 266.5 -47.5 Q251 -61 227 -70 Q203 -79 168 -79 Q114 -79 85.5 -60 Q57 -41 44 -17.5 Q31 6 29 27.5 Q27 49 27 54 L27 152 L104 152 L104 54 Q105 36 112 22 Q118 10 130.5 0.5 Q143 -9 167 -9 Q191 -9 204 0.5 Q217 10 223 22 Q230 36 230 54 L230 174 Q230 184 224 193 Q219 201 205.5 207 Q192 213 167 215 Q151 216 136.5 219.5 Q122 223 110 227 Q96 231 83 237 Q67 245 55 257 Q44 268 35.5 283 Q27 298 27 320 L27 455 Q27 458 27.5 469 Q28 480 32 495 Q36 510 44 526 Q52 542 68 556 Q84 570 108 579 Q132 588 168 588 Q203 588 227 579 Q251 570 266.5 556.5 Q282 543 290.5 527 Q299 511 303 496 Q307 481 307.5 470 Q308 459 308 455 L308 349 L230 349 L230 455 Z M128 601 L70 701 L133 701 Q142 681 150 666 Q153 659 156 653 Q159 647 161 642 Q164 636 167 631 L202 702 L265 702 L208 601 L128 601 Z " />
<glyph glyph-name="OE" unicode="&#x152;" horiz-adv-x="488" d="M453 1 L453 -77 L214 -77 Q197 -80 178 -80 Q125 -80 96.5 -61 Q68 -42 55 -18 Q42 6 40 27 Q38 48 38 53 L38 454 Q38 457 38.5 468 Q39 479 42.5 494 Q46 509 54.5 525 Q63 541 78.5 555 Q94 569 118 578 Q142 587 178 587 Q197 587 214 584 L453 584 L453 506 L277 506 L277 237 L371 237 L371 159 L277 159 L277 1 L453 1 Z M178 -10 Q190 -10 199 -7 L199 514 Q194 516 189 516 Q184 516 178 516 Q154 516 141.5 506 Q129 496 123 485 Q116 471 115 454 L115 53 Q116 35 123 21 Q129 9 141.5 -0.5 Q154 -10 178 -10 Z " />
<glyph glyph-name="Ydieresis" unicode="&#x178;" horiz-adv-x="436" d="M143 622 L143 693 L211 693 L211 622 L143 622 L143 622 Z M228 622 L228 693 L297 693 L297 622 L228 622 L228 622 Z M324 584 L220 302 L116 584 L31 584 L181 197 L181 -77 L259 -77 L259 197 L409 584 L324 584 L324 584 Z " />
<glyph glyph-name="Agrave" unicode="&#xc0;" horiz-adv-x="398" d="M235 584 L373 -77 L294 -77 L273 25 L129 25 L109 -77 L30 -77 L163 584 L235 584 Z M145 103 L258 103 L199 390 L145 103 Z M226 609 L170 609 L90 702 L168 702 L226 609 Z " />
<glyph glyph-name="Aacute" unicode="&#xc1;" horiz-adv-x="398" d="M234 584 L372 -77 L293 -77 L272 25 L127 25 L108 -77 L29 -77 L162 584 L234 584 Z M144 103 L257 103 L198 390 L144 103 Z M303 702 L223 609 L167 609 L225 702 L303 702 Z " />
<glyph glyph-name="Acircumflex" unicode="&#xc2;" horiz-adv-x="398" d="M373 -77 L294 -77 L273 25 L128 25 L109 -77 L30 -77 L163 584 L235 584 L373 -77 Z M258 103 L199 390 L145 103 L258 103 Z M199 675 Q199 674 193.5 663.5 Q188 653 182 640 Q174 625 165 605 L102 605 L160 706 L240 706 L297 605 L234 605 L199 675 Z " />
<glyph glyph-name="Atilde" unicode="&#xc3;" horiz-adv-x="398" d="M376 -77 L296 -77 L275 25 L131 25 L112 -77 L32 -77 L165 584 L237 584 L376 -77 Z M260 103 L201 390 L147 103 L260 103 Z M172 634 Q158 633 144 622 Q137 617 131 611 L101 646 Q112 657 123 666 Q133 674 144 680 Q155 686 166 686 Q177 686 186 683 Q195 680 203.5 676 Q212 672 220.5 669.5 Q229 667 238 667 Q244 667 250.5 670.5 Q257 674 262 679 Q268 684 275 690 L307 658 Q295 647 284 637 Q274 629 262.5 622 Q251 615 241 615 Q229 615 220 618 Q211 621 203.5 624.5 Q196 628 188.5 631 Q181 634 172 634 Z " />
<glyph glyph-name="Adieresis" unicode="&#xc4;" horiz-adv-x="398" d="M122 614 L122 685 L190 685 L190 614 L122 614 L122 614 Z M207 614 L207 685 L275 685 L275 614 L207 614 L207 614 Z M232 584 L160 584 L27 -77 L107 -77 L126 25 L270 25 L291 -77 L371 -77 L232 584 L232 584 Z M142 102 L196 389 L255 102 L142 102 L142 102 Z " />
<glyph glyph-name="Aring" unicode="&#xc5;" horiz-adv-x="398" d="M375 -77 L295 -77 L274 25 L130 25 L111 -77 L31 -77 L164 583 Q150 592 141.5 607.5 Q133 623 133 642 Q133 671 153.5 691.5 Q174 712 203 712 Q232 712 252.5 691.5 Q273 671 273 642 Q273 622 263.5 605.5 Q254 589 237 580 L375 -77 Z M203 690 Q183 690 169 676 Q155 662 155 642 Q155 622 169 608 Q183 594 203 594 Q223 594 237 608 Q251 622 251 642 Q251 662 237 676 Q223 690 203 690 Z M260 103 L200 390 L146 103 L260 103 Z " />
<glyph glyph-name="AE" unicode="&#xc6;" horiz-adv-x="474" d="M271 507 L271 236 L365 236 L365 159 L271 159 L271 0 L448 0 L448 -77 L194 -77 L194 24 L123 24 L104 -77 L24 -77 L158 584 L448 584 L448 507 L271 507 Z M139 102 L194 102 L194 389 L139 102 Z " />
<glyph glyph-name="Ccedilla" unicode="&#xc7;" horiz-adv-x="329" d="M169 -9 Q193 -9 205.5 0.5 Q218 10 224 22 Q231 35 232 53 L309 53 Q309 48 307 28.5 Q305 9 294 -13 Q283 -35 259.5 -54.5 Q236 -74 192 -78 Q198 -83 207.5 -89 Q217 -95 228 -108 Q234 -116 234.5 -130.5 Q235 -145 226.5 -159.5 Q218 -174 200 -185.5 Q182 -197 151 -198 L152 -168 Q177 -166 190 -158 Q203 -150 203 -133 Q203 -126 198 -121 Q193 -116 185.5 -111.5 Q178 -107 170.5 -102 Q163 -97 157 -90 Q152 -86 151 -78 Q120 -76 99 -66 Q78 -56 64 -42.5 Q50 -29 43 -13.5 Q36 2 32.5 16 Q29 30 28.5 40 Q28 50 28 53 L28 455 Q28 459 30 480.5 Q32 502 45 525.5 Q58 549 86.5 568 Q115 587 169 587 Q221 587 249.5 568.5 Q278 550 291.5 526.5 Q305 503 307 482 Q309 461 309 455 L232 455 Q231 472 224 486 Q218 497 205.5 507 Q193 517 169 517 Q145 517 132.5 507 Q120 497 114 486 Q107 472 106 455 L106 53 Q107 35 114 22 Q120 10 132.5 0.5 Q145 -9 169 -9 Z " />
<glyph glyph-name="Egrave" unicode="&#xc8;" horiz-adv-x="327" d="M292 1 L292 -77 L38 -77 L38 584 L292 584 L292 506 L115 506 L115 237 L209 237 L209 159 L115 159 L115 1 L292 1 L292 1 Z M189 614 L133 614 L54 708 L132 708 L189 614 Z " />
<glyph glyph-name="Eacute" unicode="&#xc9;" horiz-adv-x="359" d="M298 1 L298 -77 L44 -77 L44 584 L298 584 L298 506 L122 506 L122 237 L216 237 L216 159 L122 159 L122 1 L298 1 L298 1 Z M274 708 L194 614 L138 614 L196 708 L274 708 Z " />
<glyph glyph-name="Ecircumflex" unicode="&#xca;" horiz-adv-x="359" d="M300 1 L300 -77 L45 -77 L45 584 L300 584 L300 506 L123 506 L123 237 L217 237 L217 159 L123 159 L123 1 L300 1 Z M171 681 Q171 680 165.5 669.5 Q160 659 153 646 Q145 631 136 611 L73 611 L132 712 L211 712 L268 611 L205 611 L171 681 Z " />
<glyph glyph-name="Edieresis" unicode="&#xcb;" horiz-adv-x="359" d="M312 1 L312 -77 L58 -77 L58 584 L312 584 L312 506 L136 506 L136 237 L230 237 L230 159 L136 159 L136 1 L312 1 L312 1 Z M106 625 L106 697 L174 697 L174 625 L106 625 L106 625 Z M191 625 L191 697 L259 697 L259 625 L191 625 L191 625 Z " />
<glyph glyph-name="Igrave" unicode="&#xcc;" horiz-adv-x="188" d="M136 584 L136 -77 L58 -77 L58 584 L136 584 Z M130 621 L74 621 L-5 715 L73 715 L130 621 Z " />
<glyph glyph-name="Iacute" unicode="&#xcd;" horiz-adv-x="179" d="M127 584 L127 -77 L49 -77 L49 584 L127 584 Z M191 715 L111 621 L55 621 L113 715 L191 715 Z " />
<glyph glyph-name="Icircumflex" unicode="&#xce;" horiz-adv-x="214" d="M147 -77 L69 -77 L69 584 L147 584 L147 -77 Z M108 688 Q108 687 102.5 676.5 Q97 666 90 653 Q82 638 73 618 L11 618 L69 719 L149 719 L206 618 L143 617 L108 688 Z " />
<glyph glyph-name="Idieresis" unicode="&#xcf;" horiz-adv-x="212" d="M145 584 L67 584 L67 -77 L145 -77 L145 584 L145 584 Z M29 633 L29 704 L97 704 L97 633 L29 633 L29 633 Z M115 633 L115 704 L182 704 L182 633 L115 633 L115 633 Z " />
<glyph glyph-name="Eth" unicode="&#xd0;" horiz-adv-x="398" d="M226 584 Q253 584 278.5 574 Q304 564 323.5 546 Q343 528 354.5 503.5 Q366 479 366 451 L366 57 Q366 28 354.5 3.5 Q343 -21 323.5 -39 Q304 -57 278.5 -67 Q253 -77 226 -77 L85 -77 L85 215 L27 215 L27 282 L85 282 L85 584 L226 584 Z M288 451 Q288 476 269 492 Q250 508 226 508 L163 508 L163 282 L226 282 L226 215 L163 215 L163 -1 L226 -1 Q250 -1 269 15 Q288 31 288 57 L288 451 Z " />
<glyph glyph-name="Ntilde" unicode="&#xd1;" horiz-adv-x="389" d="M349 584 L349 -77 L271 -77 L122 357 L122 -77 L45 -77 L45 584 L122 584 L271 149 L271 584 L349 584 Z M164 633 Q148 631 136 621 Q129 616 124 610 L94 645 Q105 656 116 665 Q126 673 137 679 Q148 685 159 685 Q170 685 179 682 Q188 679 196.5 675 Q205 671 213.5 668.5 Q222 666 231 666 Q237 666 243.5 669.5 Q250 673 255 678 Q261 683 267 689 L300 657 Q288 646 277 636 Q267 628 255.5 621 Q244 614 234 614 Q222 614 213 617 Q204 620 196 623.5 Q188 627 180.5 630 Q173 633 164 633 Z " />
<glyph glyph-name="Ograve" unicode="&#xd2;" horiz-adv-x="393" d="M199 588 Q234 588 258 579 Q282 570 297.5 556.5 Q313 543 321.5 527 Q330 511 334 496 Q338 481 338.5 470 Q339 459 339 455 L339 54 Q339 50 338.5 39 Q338 28 334 13 Q330 -2 321.5 -18 Q313 -34 297.5 -47.5 Q282 -61 258 -70 Q234 -79 199 -79 Q146 -79 117 -60 Q88 -41 75 -17.5 Q62 6 60 27.5 Q58 49 58 54 L58 455 Q58 460 60 481.5 Q62 503 75 526.5 Q88 550 117 569 Q146 588 199 588 Z M199 -9 Q223 -9 235.5 0.5 Q248 10 254 22 Q261 36 262 54 L262 455 Q261 472 254 486 Q248 498 235.5 508 Q223 518 199 518 Q175 518 162.5 508 Q150 498 144 486 Q137 472 136 455 L136 54 Q137 36 144 22 Q150 10 162.5 0.5 Q175 -9 199 -9 Z M197 609 L117 703 L195 703 L253 609 L197 609 Z " />
<glyph glyph-name="Oacute" unicode="&#xd3;" horiz-adv-x="385" d="M194 588 Q229 588 253 579 Q277 570 292.5 556.5 Q308 543 316.5 527 Q325 511 329 496 Q333 481 333.5 470 Q334 459 334 455 L334 54 Q334 50 333.5 39 Q333 28 329 13 Q325 -2 316.5 -18 Q308 -34 292.5 -47.5 Q277 -61 253 -70 Q229 -79 194 -79 Q141 -79 112 -60 Q83 -41 70 -17.5 Q57 6 55 27.5 Q53 49 53 54 L53 455 Q53 460 55 481.5 Q57 503 70 526.5 Q83 550 112 569 Q141 588 194 588 Z M194 -9 Q218 -9 230.5 0.5 Q243 10 249 22 Q256 36 257 54 L257 455 Q256 472 249 486 Q243 498 230.5 508 Q218 518 194 518 Q170 518 157.5 508 Q145 498 139 486 Q132 472 131 455 L131 54 Q132 36 139 22 Q145 10 157.5 0.5 Q170 -9 194 -9 Z M220 609 L164 609 L222 703 L300 703 L220 609 Z " />
<glyph glyph-name="Ocircumflex" unicode="&#xd4;" horiz-adv-x="399" d="M201 587 Q254 587 282.5 568.5 Q311 550 324.5 526.5 Q338 503 340 481.5 Q342 460 342 455 L342 53 Q342 47 340 26 Q338 5 324.5 -18.5 Q311 -42 282.5 -60.5 Q254 -79 201 -79 Q148 -79 119.5 -60 Q91 -41 78 -17.5 Q65 6 63 27 Q61 48 61 53 L61 455 Q61 459 63 480.5 Q65 502 78 525.5 Q91 549 119.5 568 Q148 587 201 587 Z M201 -10 Q225 -10 238 -0.5 Q251 9 257 21 Q264 35 264 53 L264 455 Q264 472 257 486 Q251 497 238 507 Q225 517 201 517 Q177 517 164.5 507 Q152 497 146 486 Q139 472 138 455 L138 53 Q139 35 146 21 Q152 9 164.5 -0.5 Q177 -10 201 -10 Z M201 675 Q201 674 195.5 663.5 Q190 653 183 640 Q175 625 166 605 L104 605 L162 706 L242 706 L298 605 L236 605 L201 675 Z " />
<glyph glyph-name="Otilde" unicode="&#xd5;" horiz-adv-x="384" d="M192 588 Q227 588 251.5 579 Q276 570 291.5 556.5 Q307 543 315.5 527 Q324 511 328 496 Q332 481 332.5 470 Q333 459 333 455 L333 54 Q333 50 332.5 39 Q332 28 328 13 Q324 -2 315.5 -18 Q307 -34 291.5 -47.5 Q276 -61 251.5 -70 Q227 -79 192 -79 Q139 -79 110 -60 Q81 -41 68 -17.5 Q55 6 53 27.5 Q51 49 51 54 L51 455 Q51 460 53 481.5 Q55 503 68 526.5 Q81 550 110 569 Q139 588 192 588 Z M192 -9 Q216 -9 229 0.5 Q242 10 248 22 Q255 36 255 54 L255 455 Q255 472 248 486 Q242 498 229 508 Q216 518 192 518 Q168 518 155.5 508 Q143 498 137 486 Q130 472 129 455 L129 54 Q130 36 137 22 Q143 10 155.5 0.5 Q168 -9 192 -9 Z M160 635 Q144 634 132 623 Q126 618 120 612 L89 647 Q100 658 111 667 Q121 675 132.5 681 Q144 687 155 687 Q166 687 175 684 Q184 681 192.5 677 Q201 673 209 670 Q217 667 226 667 Q232 667 238.5 670.5 Q245 674 250 679 Q256 684 263 691 L295 658 Q283 646 272 637 Q262 629 250.5 622.5 Q239 616 229 616 Q217 616 208 619 Q199 622 191.5 625.5 Q184 629 176.5 632 Q169 635 160 635 Z " />
<glyph glyph-name="Odieresis" unicode="&#xd6;" horiz-adv-x="399" d="M202 587 Q149 587 120.5 568 Q92 549 79 525.5 Q66 502 64 480.5 Q62 459 62 455 L62 53 Q62 48 64 27 Q66 6 79 -17.5 Q92 -41 120.5 -60 Q149 -79 202 -79 Q255 -79 283.5 -60.5 Q312 -42 325.5 -18.5 Q339 5 341 26 Q343 47 343 53 L343 455 Q343 460 341 481.5 Q339 503 325.5 526.5 Q312 550 283.5 568.5 Q255 587 202 587 Z M202 -10 Q178 -10 165.5 -0.5 Q153 9 147 21 Q140 35 139 53 L139 455 Q140 472 147 486 Q153 497 165.5 507 Q178 517 202 517 Q226 517 239 507 Q252 497 258 486 Q265 472 266 455 L266 53 Q265 35 258 21 Q252 9 239 -0.5 Q226 -10 202 -10 Z M126 620 L126 691 L194 691 L194 620 L126 620 Z M211 620 L211 691 L279 691 L279 620 L211 620 Z " />
<glyph glyph-name="Oslash" unicode="&#xd8;" horiz-adv-x="371" d="M304 533 Q321 508 323.5 484 Q326 460 326 454 L326 54 Q326 50 325.5 39 Q325 28 321 13 Q317 -2 308.5 -18 Q300 -34 284.5 -47.5 Q269 -61 244.5 -70 Q220 -79 185 -79 Q161 -79 142 -74.5 Q123 -70 109 -62 L96 -101 L51 -101 L73 -34 Q62 -21 56.5 -6.5 Q51 8 48.5 20.5 Q46 33 45.5 42 Q45 51 45 54 L45 454 Q45 459 47 480.5 Q49 502 62 525.5 Q75 549 103.5 568 Q132 587 185 587 Q214 587 234.5 581 Q255 575 270 566 L284 609 L329 609 L304 533 Z M122 116 L243 482 Q238 495 224.5 506 Q211 517 185 517 Q161 517 148.5 507 Q136 497 130 485 Q123 471 122 454 L122 116 Z M185 -9 Q209 -9 222 0.5 Q235 10 241 22 Q248 36 248 54 L248 364 L134 16 Q141 6 153 -1.5 Q165 -9 185 -9 Z " />
<glyph glyph-name="Ugrave" unicode="&#xd9;" horiz-adv-x="376" d="M331 584 L332 54 Q332 50 331.5 39 Q331 28 327 13 Q323 -2 314.5 -18 Q306 -34 290.5 -47.5 Q275 -61 250.5 -70 Q226 -79 191 -79 Q138 -79 109 -60 Q80 -41 67 -17 Q54 7 52 28 Q50 49 50 54 L50 584 L128 584 L128 54 Q129 36 136 22 Q142 10 154.5 0.5 Q167 -9 191 -9 Q215 -9 227.5 0.5 Q240 10 246 22 Q253 36 254 54 L255 584 L331 584 Z M179 603 L99 697 L177 697 L235 603 L179 603 Z " />
<glyph glyph-name="Uacute" unicode="&#xda;" horiz-adv-x="386" d="M333 584 L333 54 Q333 50 332.5 39 Q332 28 328 13 Q324 -2 315.5 -18 Q307 -34 291.5 -47.5 Q276 -61 252 -70 Q228 -79 193 -79 Q140 -79 111 -60 Q82 -41 69 -17 Q56 7 54 28 Q52 49 52 54 L52 584 L130 584 L130 54 Q131 36 138 22 Q144 10 156.5 0.5 Q169 -9 193 -9 Q217 -9 229.5 0.5 Q242 10 248 22 Q255 36 256 54 L256 584 L333 584 Z M220 603 L164 603 L221 697 L300 697 L220 603 Z " />
<glyph glyph-name="Ucircumflex" unicode="&#xdb;" horiz-adv-x="386" d="M335 584 L335 54 Q335 50 334.5 39 Q334 28 330 13 Q326 -2 317.5 -18 Q309 -34 293.5 -47.5 Q278 -61 253.5 -70 Q229 -79 194 -79 Q141 -79 112.5 -60 Q84 -41 71 -17.5 Q58 6 56 27.5 Q54 49 54 54 L54 584 L132 584 L131 54 Q132 36 139 22 Q145 10 157.5 0.5 Q170 -9 194 -9 Q218 -9 231 0.5 Q244 10 250 22 Q257 36 257 54 L258 584 L335 584 Z M158 600 L96 600 L154 700 L234 700 L290 599 L228 599 L193 669 L158 600 Z " />
<glyph glyph-name="Udieresis" unicode="&#xdc;" horiz-adv-x="386" d="M255 584 L255 53 Q254 35 247 22 Q241 10 228.5 0.5 Q216 -9 192 -9 Q168 -9 155.5 0.5 Q143 10 137 22 Q130 35 129 53 L129 584 L51 584 L51 53 Q51 48 53 27 Q55 6 68 -17.5 Q81 -41 110 -60 Q139 -79 192 -79 Q245 -79 273.5 -60.5 Q302 -42 315.5 -18.5 Q329 5 331 26 Q333 47 333 53 L333 584 L255 584 Z M120 614 L120 685 L188 685 L188 614 L120 614 Z M206 614 L206 685 L274 685 L274 614 L206 614 Z " />
<glyph glyph-name="Yacute" unicode="&#xdd;" horiz-adv-x="436" d="M324 584 L409 584 L259 197 L258 -77 L180 -77 L180 197 L30 584 L115 584 L219 301 L324 584 Z M310 693 L230 599 L174 599 L231 693 L310 693 Z " />
<glyph glyph-name="sterling" unicode="&#xa3;" horiz-adv-x="361" d="M252 454 Q252 471 245 485 Q239 496 226 506 Q213 516 189 516 Q165 516 152.5 506 Q140 496 134 485 Q127 471 126 454 L127 290 L251 290 L251 222 L127 222 L127 -9 L330 -9 L330 -77 L27 -77 L27 -9 L50 -9 L49 222 L27 222 L27 290 L49 290 L49 454 Q49 457 49.5 468 Q50 479 53.5 494 Q57 509 65.5 525 Q74 541 89.5 555 Q105 569 129 578 Q153 587 189 587 Q224 587 248.5 578 Q273 569 288.5 555.5 Q304 542 312.5 526 Q321 510 325 495 Q329 480 329.5 469 Q330 458 330 454 L330 408 L252 408 L252 454 Z " />
<glyph glyph-name="cent" unicode="&#xa2;" horiz-adv-x="234" d="M138 46 Q147 51 152 58.5 Q157 66 159 73 Q162 81 162 90 L224 90 Q224 86 222.5 71.5 Q221 57 213 40 Q205 23 187.5 8 Q170 -7 138 -12 L138 -35 L87 -35 L87 -12 Q55 -7 37.5 8.5 Q20 24 12 41 Q4 58 3 72.5 Q2 87 2 90 L2 407 Q2 410 3 424.5 Q4 439 12 456 Q20 473 37.5 488 Q55 503 87 508 L87 538 L138 538 L138 509 Q170 504 187.5 489 Q205 474 213 457 Q221 440 222.5 425.5 Q224 411 224 407 L162 407 Q162 416 159 424 Q157 431 152 438 Q147 445 138 450 L138 46 Z M63 90 Q63 82 66 74 Q68 67 73 59.5 Q78 52 87 47 L87 449 Q78 444 73 437 Q68 430 66 423 Q63 415 63 407 L63 90 Z " />
<glyph glyph-name="a" unicode="a" horiz-adv-x="398" d="M236 584 L374 -77 L294 -77 L273 25 L129 25 L110 -77 L30 -77 L164 584 L236 584 Z M145 103 L259 103 L200 390 L145 103 Z " />
<glyph glyph-name="b" unicode="b" horiz-adv-x="348" d="M267 260 Q283 259 296 250 Q307 242 316 226.5 Q325 211 325 183 L325 57 Q325 28 311.5 3.5 Q298 -21 276.5 -39 Q255 -57 228 -67 Q201 -77 173 -77 L32 -77 L32 584 L173 584 Q201 584 226.5 574 Q252 564 271.5 546.5 Q291 529 302.5 504.5 Q314 480 314 451 L314 339 Q314 310 306.5 294.5 Q299 279 290 271 Q279 262 267 260 Z M110 -1 L173 -1 Q185 -1 198 3.5 Q211 8 222 15.5 Q233 23 240 34 Q247 45 247 57 L247 173 Q246 180 243 189 Q240 198 232.5 206 Q225 214 210.5 219.5 Q196 225 173 225 L172 225 L110 225 L110 -1 Z M235 451 Q235 476 216 492 Q197 508 173 508 L110 508 L110 303 L173 303 Q192 303 204 308.5 Q216 314 223 322 Q230 330 232.5 339 Q235 348 235 355 L235 451 Z " />
<glyph glyph-name="c" unicode="c" horiz-adv-x="352" d="M179 -9 Q203 -9 215.5 0.5 Q228 10 234 22 Q241 35 242 53 L319 53 Q319 48 317 26.5 Q315 5 301.5 -18.5 Q288 -42 259.5 -60.5 Q231 -79 179 -79 Q125 -79 96.5 -60 Q68 -41 55 -17.5 Q42 6 40 27 Q38 48 38 53 L38 455 Q38 459 40 480.5 Q42 502 55 525.5 Q68 549 96.5 568 Q125 587 179 587 Q231 587 259.5 568.5 Q288 550 301.5 526.5 Q315 503 317 481.5 Q319 460 319 455 L242 455 Q241 472 234 486 Q228 497 215.5 507 Q203 517 179 517 Q155 517 142 507 Q129 497 123 486 Q116 472 115 455 L115 53 Q116 35 123 22 Q129 10 142 0.5 Q155 -9 179 -9 Z " />
<glyph glyph-name="d" unicode="d" horiz-adv-x="384" d="M51 -77 L51 584 L191 584 Q219 584 244.5 574 Q270 564 289.5 546.5 Q309 529 320.5 504.5 Q332 480 332 451 L332 57 Q332 28 320.5 3.5 Q309 -21 289.5 -39 Q270 -57 244.5 -67 Q219 -77 191 -77 L51 -77 Z M128 508 L128 -1 L191 -1 Q216 -1 235 15.5 Q254 32 254 57 L254 451 Q254 476 235 492 Q216 508 191 508 L128 508 Z " />
<glyph glyph-name="e" unicode="e" horiz-adv-x="335" d="M298 0 L298 -77 L44 -77 L44 584 L298 584 L298 507 L122 507 L122 236 L216 236 L216 158 L122 158 L122 0 L298 0 L298 0 Z " />
<glyph glyph-name="f" unicode="f" horiz-adv-x="387" d="M331 506 L154 506 L154 236 L248 236 L248 159 L154 159 L154 -77 L77 -77 L77 584 L331 584 L331 506 L331 506 Z " />
<glyph glyph-name="g" unicode="g" horiz-adv-x="389" d="M221 240 L336 240 L336 162 L336 53 Q336 47 333.5 25.5 Q331 4 317.5 -19.5 Q304 -43 275.5 -61 Q247 -79 195 -79 Q142 -79 113.5 -60 Q85 -41 72 -17.5 Q59 6 57 27 Q55 48 55 53 L55 455 Q55 459 57 480.5 Q59 502 72 525.5 Q85 549 113.5 568 Q142 587 195 587 Q248 587 276.5 568.5 Q305 550 318.5 526.5 Q332 503 334 481.5 Q336 460 336 455 L258 455 Q258 472 251 486 Q245 497 232 507 Q219 517 195 517 Q171 517 158.5 507 Q146 497 140 486 Q133 472 132 455 L132 53 Q133 35 140 22 Q146 10 158.5 0.5 Q171 -9 195 -9 Q218 -9 230.5 0 Q243 9 249 20 Q255 31 256.5 41 Q258 51 258 53 L258 162 L221 162 L221 240 Z " />
<glyph glyph-name="h" unicode="h" horiz-adv-x="409" d="M271 584 L349 584 L349 -77 L271 -77 L271 201 L141 201 L141 -77 L63 -77 L63 584 L141 584 L141 279 L271 279 L271 584 L271 584 Z " />
<glyph glyph-name="i" unicode="i" horiz-adv-x="174" d="M130 584 L130 -77 L52 -77 L52 584 L130 584 L130 584 Z " />
<glyph glyph-name="j" unicode="j" horiz-adv-x="279" d="M234 584 L234 55 Q234 45 231 23.5 Q228 2 214.5 -20.5 Q201 -43 173 -60 Q145 -77 94 -77 L44 -77 L44 -4 L98 -4 Q122 -4 134.5 5 Q147 14 152 25 Q158 38 157 55 L157 584 L234 584 Z " />
<glyph glyph-name="k" unicode="k" horiz-adv-x="428" d="M200 180 L390 -77 L293 -77 L127 147 L127 -77 L50 -77 L50 584 L127 584 L127 213 L290 584 L374 584 L200 180 L200 180 Z " />
<glyph glyph-name="l" unicode="l" horiz-adv-x="286" d="M120 0 L252 0 L252 -77 L42 -77 L42 584 L120 584 L120 0 L120 0 Z " />
<glyph glyph-name="m" unicode="m" horiz-adv-x="514" d="M455 584 L464 584 L464 -77 L386 -77 L386 306 L290 -76 L290 -76 L290 -77 L220 -77 L124 288 L124 -77 L46 -77 L46 584 L124 584 L124 584 L124 584 L255 60 L386 584 L455 584 L455 584 Z " />
<glyph glyph-name="n" unicode="n" horiz-adv-x="387" d="M269 584 L347 584 L347 -77 L269 -77 L121 358 L121 -77 L43 -77 L43 584 L121 584 L269 149 L269 584 L269 584 Z " />
<glyph glyph-name="o" unicode="o" horiz-adv-x="384" d="M195 587 Q247 587 275.5 568.5 Q304 550 317.5 526.5 Q331 503 333 481.5 Q335 460 335 455 L335 53 Q335 48 333 26.5 Q331 5 317.5 -18.5 Q304 -42 275.5 -60.5 Q247 -79 195 -79 Q142 -79 113 -60 Q84 -41 71 -17.5 Q58 6 56 27 Q54 48 54 53 L54 455 Q54 459 56 480.5 Q58 502 71 525.5 Q84 549 113 568 Q142 587 195 587 Z M195 -9 Q219 -9 231.5 0.5 Q244 10 250 22 Q257 35 258 53 L258 455 Q257 472 250 486 Q244 497 231.5 507 Q219 517 195 517 Q171 517 158.5 507 Q146 497 140 486 Q133 472 132 455 L132 53 Q133 35 140 22 Q146 10 158.5 0.5 Q171 -9 195 -9 Z " />
<glyph glyph-name="p" unicode="p" horiz-adv-x="377" d="M125 205 L125 -77 L47 -77 L47 584 L188 584 Q219 584 244.5 574 Q270 564 288.5 546.5 Q307 529 317.5 504.5 Q328 480 328 451 L328 324 Q328 297 317 275.5 Q306 254 287 238 Q268 222 242.5 213.5 Q217 205 188 205 L125 205 Z M125 283 L186 283 L188 283 Q207 283 219 288.5 Q231 294 237.5 302 Q244 310 246.5 319 Q249 328 250 334 L250 451 Q250 476 231 492 Q212 508 188 508 L125 508 L125 283 Z " />
<glyph glyph-name="q" unicode="q" horiz-adv-x="387" d="M200 587 Q235 587 259.5 578 Q284 569 299.5 555.5 Q315 542 323.5 526 Q332 510 336 495 Q340 480 340.5 469 Q341 458 341 454 L341 53 Q341 48 340 32.5 Q339 17 331.5 -2 Q324 -21 308.5 -39.5 Q293 -58 264 -69 L284 -117 L203 -117 L189 -79 Q140 -77 113.5 -57.5 Q87 -38 75 -15 Q63 8 61 28 Q59 48 59 53 L59 454 Q59 457 59.5 468 Q60 479 64 494 Q68 509 76.5 525 Q85 541 100.5 555 Q116 569 140 578 Q164 587 200 587 Z M137 53 Q138 35 145 21 Q151 9 163.5 -0.5 Q176 -10 200 -10 Q224 -10 236.5 -0.5 Q249 9 255 21 Q262 35 263 53 L263 454 Q262 471 255 485 Q249 497 236.5 507 Q224 517 200 517 Q176 517 163.5 507 Q151 497 145 485 Q138 471 137 454 L137 53 Z " />
<glyph glyph-name="r" unicode="r" horiz-adv-x="410" d="M134 -77 L56 -77 L56 584 L197 584 Q224 584 249.5 574 Q275 564 294.5 546.5 Q314 529 326 504.5 Q338 480 338 451 L338 339 Q338 310 330.5 294.5 Q323 279 314 271 Q303 262 290 260 Q303 259 314 250 Q323 242 330.5 226.5 Q338 211 338 183 L338 -77 L259 -77 L259 173 Q259 180 256.5 189 Q254 198 247 206 Q240 214 228 219.5 Q216 225 197 225 L196 225 L134 225 L134 -77 Z M134 303 L197 303 Q216 303 228 308.5 Q240 314 246.5 322 Q253 330 256 339 Q259 348 259 355 L259 451 Q259 476 240 492 Q221 508 197 508 L134 508 L134 303 Z " />
<glyph glyph-name="s" unicode="s" horiz-adv-x="415" d="M283 455 Q283 472 276 486 Q270 497 257 507 Q244 517 220 517 Q196 517 183.5 507 Q171 497 165 486 Q158 472 157 455 L157 323 Q158 315 166 308 Q172 302 185 297 Q198 292 221 290 Q241 288 255.5 285.5 Q270 283 279 280 Q290 276 296 273 Q314 264 328 250 Q340 238 350.5 218 Q361 198 361 169 L361 53 Q361 48 359 26.5 Q357 5 343.5 -18.5 Q330 -42 301.5 -60.5 Q273 -79 220 -79 Q167 -79 138.5 -60 Q110 -41 97 -17.5 Q84 6 82 27 Q80 48 80 53 L80 152 L157 152 L157 53 Q158 35 165 22 Q171 10 183.5 0.5 Q196 -9 220 -9 Q244 -9 257 0.5 Q270 10 276 22 Q283 35 283 53 L283 174 Q283 184 277 193 Q272 201 258.5 206.5 Q245 212 220 214 Q204 215 189.5 218.5 Q175 222 163 226 Q149 230 136 236 Q120 244 108 256 Q97 267 88.5 282 Q80 297 80 319 L80 455 Q80 459 82 480.5 Q84 502 97 525.5 Q110 549 138.5 568 Q167 587 220 587 Q273 587 301.5 568.5 Q330 550 343.5 526.5 Q357 503 359 481.5 Q361 460 361 455 L361 349 L283 349 L283 455 Z " />
<glyph glyph-name="t" unicode="t" horiz-adv-x="379" d="M335 584 L335 506 L231 506 L231 -77 L153 -77 L153 506 L49 506 L49 584 L335 584 L335 584 Z " />
<glyph glyph-name="u" unicode="u" horiz-adv-x="386" d="M335 584 L335 54 Q335 50 334.5 39 Q334 28 330 13 Q326 -2 317.5 -18 Q309 -34 293.5 -47.5 Q278 -61 254 -70 Q230 -79 195 -79 Q142 -79 113 -60 Q84 -41 71 -17.5 Q58 6 56 27.5 Q54 49 54 54 L54 584 L132 584 L132 54 Q133 36 140 22 Q146 10 158.5 0.5 Q171 -9 195 -9 Q219 -9 231.5 0.5 Q244 10 250 22 Q257 36 258 54 L258 584 L335 584 Z " />
<glyph glyph-name="v" unicode="v" horiz-adv-x="388" d="M278 584 L358 584 L237 -77 L153 -77 L32 584 L113 584 L195 146 L278 584 L278 584 Z " />
<glyph glyph-name="w" unicode="w" horiz-adv-x="628" d="M521 584 L601 584 L480 -77 L396 -77 L315 365 L234 -77 L150 -77 L150 -77 L150 -77 L29 584 L110 584 L192 146 L275 584 L356 584 L438 146 L521 584 L521 584 Z " />
<glyph glyph-name="x" unicode="x" horiz-adv-x="418" d="M385 584 L249 254 L385 -77 L307 -77 L210 160 L113 -77 L35 -77 L171 254 L35 584 L113 584 L210 349 L307 584 L385 584 L385 584 Z " />
<glyph glyph-name="y" unicode="y" horiz-adv-x="436" d="M410 584 L259 197 L259 -77 L181 -77 L181 198 L31 584 L116 584 L221 302 L325 584 L410 584 L410 584 Z " />
<glyph glyph-name="z" unicode="z" horiz-adv-x="470" d="M409 584 L409 506 L161 1 L409 1 L409 -77 L66 -77 L66 1 L314 506 L66 506 L66 584 L409 584 L409 584 Z " />
<glyph glyph-name="A" unicode="A" horiz-adv-x="398" d="M236 584 L374 -77 L294 -77 L273 25 L129 25 L110 -77 L30 -77 L164 584 L236 584 Z M145 103 L259 103 L200 390 L145 103 Z " />
<glyph glyph-name="B" unicode="B" horiz-adv-x="348" d="M267 260 Q283 259 296 250 Q307 242 316 226.5 Q325 211 325 183 L325 57 Q325 28 311.5 3.5 Q298 -21 276.5 -39 Q255 -57 228 -67 Q201 -77 173 -77 L32 -77 L32 584 L173 584 Q201 584 226.5 574 Q252 564 271.5 546.5 Q291 529 302.5 504.5 Q314 480 314 451 L314 339 Q314 310 306.5 294.5 Q299 279 290 271 Q279 262 267 260 Z M110 -1 L173 -1 Q185 -1 198 3.5 Q211 8 222 15.5 Q233 23 240 34 Q247 45 247 57 L247 173 Q246 180 243 189 Q240 198 232.5 206 Q225 214 210.5 219.5 Q196 225 173 225 L172 225 L110 225 L110 -1 Z M235 451 Q235 476 216 492 Q197 508 173 508 L110 508 L110 303 L173 303 Q192 303 204 308.5 Q216 314 223 322 Q230 330 232.5 339 Q235 348 235 355 L235 451 Z " />
<glyph glyph-name="C" unicode="C" horiz-adv-x="352" d="M179 -9 Q203 -9 215.5 0.5 Q228 10 234 22 Q241 35 242 53 L319 53 Q319 48 317 26.5 Q315 5 301.5 -18.5 Q288 -42 259.5 -60.5 Q231 -79 179 -79 Q125 -79 96.5 -60 Q68 -41 55 -17.5 Q42 6 40 27 Q38 48 38 53 L38 455 Q38 459 40 480.5 Q42 502 55 525.5 Q68 549 96.5 568 Q125 587 179 587 Q231 587 259.5 568.5 Q288 550 301.5 526.5 Q315 503 317 481.5 Q319 460 319 455 L242 455 Q241 472 234 486 Q228 497 215.5 507 Q203 517 179 517 Q155 517 142 507 Q129 497 123 486 Q116 472 115 455 L115 53 Q116 35 123 22 Q129 10 142 0.5 Q155 -9 179 -9 Z " />
<glyph glyph-name="D" unicode="D" horiz-adv-x="384" d="M51 -77 L51 584 L191 584 Q219 584 244.5 574 Q270 564 289.5 546.5 Q309 529 320.5 504.5 Q332 480 332 451 L332 57 Q332 28 320.5 3.5 Q309 -21 289.5 -39 Q270 -57 244.5 -67 Q219 -77 191 -77 L51 -77 Z M128 508 L128 -1 L191 -1 Q216 -1 235 15.5 Q254 32 254 57 L254 451 Q254 476 235 492 Q216 508 191 508 L128 508 Z " />
<glyph glyph-name="E" unicode="E" horiz-adv-x="335" d="M298 0 L298 -77 L44 -77 L44 584 L298 584 L298 507 L122 507 L122 236 L216 236 L216 158 L122 158 L122 0 L298 0 L298 0 Z " />
<glyph glyph-name="F" unicode="F" horiz-adv-x="387" d="M331 506 L154 506 L154 236 L248 236 L248 159 L154 159 L154 -77 L77 -77 L77 584 L331 584 L331 506 L331 506 Z " />
<glyph glyph-name="G" unicode="G" horiz-adv-x="389" d="M221 240 L336 240 L336 162 L336 53 Q336 47 333.5 25.5 Q331 4 317.5 -19.5 Q304 -43 275.5 -61 Q247 -79 195 -79 Q142 -79 113.5 -60 Q85 -41 72 -17.5 Q59 6 57 27 Q55 48 55 53 L55 455 Q55 459 57 480.5 Q59 502 72 525.5 Q85 549 113.5 568 Q142 587 195 587 Q248 587 276.5 568.5 Q305 550 318.5 526.5 Q332 503 334 481.5 Q336 460 336 455 L258 455 Q258 472 251 486 Q245 497 232 507 Q219 517 195 517 Q171 517 158.5 507 Q146 497 140 486 Q133 472 132 455 L132 53 Q133 35 140 22 Q146 10 158.5 0.5 Q171 -9 195 -9 Q218 -9 230.5 0 Q243 9 249 20 Q255 31 256.5 41 Q258 51 258 53 L258 162 L221 162 L221 240 Z " />
<glyph glyph-name="H" unicode="H" horiz-adv-x="409" d="M271 584 L349 584 L349 -77 L271 -77 L271 201 L141 201 L141 -77 L63 -77 L63 584 L141 584 L141 279 L271 279 L271 584 L271 584 Z " />
<glyph glyph-name="I" unicode="I" horiz-adv-x="174" d="M130 584 L130 -77 L52 -77 L52 584 L130 584 L130 584 Z " />
<glyph glyph-name="J" unicode="J" horiz-adv-x="279" d="M234 584 L234 55 Q234 45 231 23.5 Q228 2 214.5 -20.5 Q201 -43 173 -60 Q145 -77 94 -77 L44 -77 L44 -4 L98 -4 Q122 -4 134.5 5 Q147 14 152 25 Q158 38 157 55 L157 584 L234 584 Z " />
<glyph glyph-name="K" unicode="K" horiz-adv-x="428" d="M200 180 L390 -77 L293 -77 L127 147 L127 -77 L50 -77 L50 584 L127 584 L127 213 L290 584 L374 584 L200 180 L200 180 Z " />
<glyph glyph-name="L" unicode="L" horiz-adv-x="286" d="M120 0 L252 0 L252 -77 L42 -77 L42 584 L120 584 L120 0 L120 0 Z " />
<glyph glyph-name="M" unicode="M" horiz-adv-x="514" d="M455 584 L464 584 L464 -77 L386 -77 L386 306 L290 -76 L290 -76 L290 -77 L220 -77 L124 288 L124 -77 L46 -77 L46 584 L124 584 L124 584 L124 584 L255 60 L386 584 L455 584 L455 584 Z " />
<glyph glyph-name="N" unicode="N" horiz-adv-x="387" d="M269 584 L347 584 L347 -77 L269 -77 L121 358 L121 -77 L43 -77 L43 584 L121 584 L269 149 L269 584 L269 584 Z " />
<glyph glyph-name="O" unicode="O" horiz-adv-x="384" d="M195 587 Q247 587 275.5 568.5 Q304 550 317.5 526.5 Q331 503 333 481.5 Q335 460 335 455 L335 53 Q335 48 333 26.5 Q331 5 317.5 -18.5 Q304 -42 275.5 -60.5 Q247 -79 195 -79 Q142 -79 113 -60 Q84 -41 71 -17.5 Q58 6 56 27 Q54 48 54 53 L54 455 Q54 459 56 480.5 Q58 502 71 525.5 Q84 549 113 568 Q142 587 195 587 Z M195 -9 Q219 -9 231.5 0.5 Q244 10 250 22 Q257 35 258 53 L258 455 Q257 472 250 486 Q244 497 231.5 507 Q219 517 195 517 Q171 517 158.5 507 Q146 497 140 486 Q133 472 132 455 L132 53 Q133 35 140 22 Q146 10 158.5 0.5 Q171 -9 195 -9 Z " />
<glyph glyph-name="P" unicode="P" horiz-adv-x="377" d="M125 205 L125 -77 L47 -77 L47 584 L188 584 Q219 584 244.5 574 Q270 564 288.5 546.5 Q307 529 317.5 504.5 Q328 480 328 451 L328 324 Q328 297 317 275.5 Q306 254 287 238 Q268 222 242.5 213.5 Q217 205 188 205 L125 205 Z M125 283 L186 283 L188 283 Q207 283 219 288.5 Q231 294 237.5 302 Q244 310 246.5 319 Q249 328 250 334 L250 451 Q250 476 231 492 Q212 508 188 508 L125 508 L125 283 Z " />
<glyph glyph-name="Q" unicode="Q" horiz-adv-x="387" d="M200 587 Q235 587 259.5 578 Q284 569 299.5 555.5 Q315 542 323.5 526 Q332 510 336 495 Q340 480 340.5 469 Q341 458 341 454 L341 53 Q341 48 340 32.5 Q339 17 331.5 -2 Q324 -21 308.5 -39.5 Q293 -58 264 -69 L284 -117 L203 -117 L189 -79 Q140 -77 113.5 -57.5 Q87 -38 75 -15 Q63 8 61 28 Q59 48 59 53 L59 454 Q59 457 59.5 468 Q60 479 64 494 Q68 509 76.5 525 Q85 541 100.5 555 Q116 569 140 578 Q164 587 200 587 Z M137 53 Q138 35 145 21 Q151 9 163.5 -0.5 Q176 -10 200 -10 Q224 -10 236.5 -0.5 Q249 9 255 21 Q262 35 263 53 L263 454 Q262 471 255 485 Q249 497 236.5 507 Q224 517 200 517 Q176 517 163.5 507 Q151 497 145 485 Q138 471 137 454 L137 53 Z " />
<glyph glyph-name="R" unicode="R" horiz-adv-x="410" d="M134 -77 L56 -77 L56 584 L197 584 Q224 584 249.5 574 Q275 564 294.5 546.5 Q314 529 326 504.5 Q338 480 338 451 L338 339 Q338 310 330.5 294.5 Q323 279 314 271 Q303 262 290 260 Q303 259 314 250 Q323 242 330.5 226.5 Q338 211 338 183 L338 -77 L259 -77 L259 173 Q259 180 256.5 189 Q254 198 247 206 Q240 214 228 219.5 Q216 225 197 225 L196 225 L134 225 L134 -77 Z M134 303 L197 303 Q216 303 228 308.5 Q240 314 246.5 322 Q253 330 256 339 Q259 348 259 355 L259 451 Q259 476 240 492 Q221 508 197 508 L134 508 L134 303 Z " />
<glyph glyph-name="S" unicode="S" horiz-adv-x="415" d="M283 455 Q283 472 276 486 Q270 497 257 507 Q244 517 220 517 Q196 517 183.5 507 Q171 497 165 486 Q158 472 157 455 L157 323 Q158 315 166 308 Q172 302 185 297 Q198 292 221 290 Q241 288 255.5 285.5 Q270 283 279 280 Q290 276 296 273 Q314 264 328 250 Q340 238 350.5 218 Q361 198 361 169 L361 53 Q361 48 359 26.5 Q357 5 343.5 -18.5 Q330 -42 301.5 -60.5 Q273 -79 220 -79 Q167 -79 138.5 -60 Q110 -41 97 -17.5 Q84 6 82 27 Q80 48 80 53 L80 152 L157 152 L157 53 Q158 35 165 22 Q171 10 183.5 0.5 Q196 -9 220 -9 Q244 -9 257 0.5 Q270 10 276 22 Q283 35 283 53 L283 174 Q283 184 277 193 Q272 201 258.5 206.5 Q245 212 220 214 Q204 215 189.5 218.5 Q175 222 163 226 Q149 230 136 236 Q120 244 108 256 Q97 267 88.5 282 Q80 297 80 319 L80 455 Q80 459 82 480.5 Q84 502 97 525.5 Q110 549 138.5 568 Q167 587 220 587 Q273 587 301.5 568.5 Q330 550 343.5 526.5 Q357 503 359 481.5 Q361 460 361 455 L361 349 L283 349 L283 455 Z " />
<glyph glyph-name="T" unicode="T" horiz-adv-x="379" d="M335 584 L335 506 L231 506 L231 -77 L153 -77 L153 506 L49 506 L49 584 L335 584 L335 584 Z " />
<glyph glyph-name="U" unicode="U" horiz-adv-x="386" d="M335 584 L335 54 Q335 50 334.5 39 Q334 28 330 13 Q326 -2 317.5 -18 Q309 -34 293.5 -47.5 Q278 -61 254 -70 Q230 -79 195 -79 Q142 -79 113 -60 Q84 -41 71 -17.5 Q58 6 56 27.5 Q54 49 54 54 L54 584 L132 584 L132 54 Q133 36 140 22 Q146 10 158.5 0.5 Q171 -9 195 -9 Q219 -9 231.5 0.5 Q244 10 250 22 Q257 36 258 54 L258 584 L335 584 Z " />
<glyph glyph-name="V" unicode="V" horiz-adv-x="388" d="M278 584 L358 584 L237 -77 L153 -77 L32 584 L113 584 L195 146 L278 584 L278 584 Z " />
<glyph glyph-name="W" unicode="W" horiz-adv-x="628" d="M521 584 L601 584 L480 -77 L396 -77 L315 365 L234 -77 L150 -77 L150 -77 L150 -77 L29 584 L110 584 L192 146 L275 584 L356 584 L438 146 L521 584 L521 584 Z " />
<glyph glyph-name="X" unicode="X" horiz-adv-x="418" d="M385 584 L249 254 L385 -77 L307 -77 L210 160 L113 -77 L35 -77 L171 254 L35 584 L113 584 L210 349 L307 584 L385 584 L385 584 Z " />
<glyph glyph-name="Y" unicode="Y" horiz-adv-x="436" d="M410 584 L259 197 L259 -77 L181 -77 L181 198 L31 584 L116 584 L221 302 L325 584 L410 584 L410 584 Z " />
<glyph glyph-name="Z" unicode="Z" horiz-adv-x="470" d="M409 584 L409 506 L161 1 L409 1 L409 -77 L66 -77 L66 1 L314 506 L66 506 L66 584 L409 584 L409 584 Z " />
<glyph glyph-name="agrave" unicode="&#xe0;" horiz-adv-x="398" d="M235 584 L373 -77 L294 -77 L273 25 L129 25 L109 -77 L30 -77 L163 584 L235 584 Z M145 103 L258 103 L199 390 L145 103 Z M226 609 L170 609 L90 702 L168 702 L226 609 Z " />
<glyph glyph-name="aacute" unicode="&#xe1;" horiz-adv-x="398" d="M234 584 L372 -77 L293 -77 L272 25 L127 25 L108 -77 L29 -77 L162 584 L234 584 Z M144 103 L257 103 L198 390 L144 103 Z M303 702 L223 609 L167 609 L225 702 L303 702 Z " />
<glyph glyph-name="acircumflex" unicode="&#xe2;" horiz-adv-x="398" d="M373 -77 L294 -77 L273 25 L128 25 L109 -77 L30 -77 L163 584 L235 584 L373 -77 Z M258 103 L199 390 L145 103 L258 103 Z M199 675 Q199 674 193.5 663.5 Q188 653 182 640 Q174 625 165 605 L102 605 L160 706 L240 706 L297 605 L234 605 L199 675 Z " />
<glyph glyph-name="atilde" unicode="&#xe3;" horiz-adv-x="398" d="M376 -77 L296 -77 L275 25 L131 25 L112 -77 L32 -77 L165 584 L237 584 L376 -77 Z M260 103 L201 390 L147 103 L260 103 Z M172 634 Q158 633 144 622 Q137 617 131 611 L101 646 Q112 657 123 666 Q133 674 144 680 Q155 686 166 686 Q177 686 186 683 Q195 680 203.5 676 Q212 672 220.5 669.5 Q229 667 238 667 Q244 667 250.5 670.5 Q257 674 262 679 Q268 684 275 690 L307 658 Q295 647 284 637 Q274 629 262.5 622 Q251 615 241 615 Q229 615 220 618 Q211 621 203.5 624.5 Q196 628 188.5 631 Q181 634 172 634 Z " />
<glyph glyph-name="adieresis" unicode="&#xe4;" horiz-adv-x="398" d="M122 614 L122 685 L190 685 L190 614 L122 614 L122 614 Z M207 614 L207 685 L275 685 L275 614 L207 614 L207 614 Z M232 584 L160 584 L27 -77 L107 -77 L126 25 L270 25 L291 -77 L371 -77 L232 584 L232 584 Z M142 102 L196 389 L255 102 L142 102 L142 102 Z " />
<glyph glyph-name="aring" unicode="&#xe5;" horiz-adv-x="398" d="M375 -77 L295 -77 L274 25 L130 25 L111 -77 L31 -77 L164 583 Q150 592 141.5 607.5 Q133 623 133 642 Q133 671 153.5 691.5 Q174 712 203 712 Q232 712 252.5 691.5 Q273 671 273 642 Q273 622 263.5 605.5 Q254 589 237 580 L375 -77 Z M203 690 Q183 690 169 676 Q155 662 155 642 Q155 622 169 608 Q183 594 203 594 Q223 594 237 608 Q251 622 251 642 Q251 662 237 676 Q223 690 203 690 Z M260 103 L200 390 L146 103 L260 103 Z " />
<glyph glyph-name="ae" unicode="&#xe6;" horiz-adv-x="474" d="M271 507 L271 236 L365 236 L365 159 L271 159 L271 0 L448 0 L448 -77 L194 -77 L194 24 L123 24 L104 -77 L24 -77 L158 584 L448 584 L448 507 L271 507 Z M139 102 L194 102 L194 389 L139 102 Z " />
<glyph glyph-name="ccedilla" unicode="&#xe7;" horiz-adv-x="329" d="M169 -9 Q193 -9 205.5 0.5 Q218 10 224 22 Q231 35 232 53 L309 53 Q309 48 307 28.5 Q305 9 294 -13 Q283 -35 259.5 -54.5 Q236 -74 192 -78 Q198 -83 207.5 -89 Q217 -95 228 -108 Q234 -116 234.5 -130.5 Q235 -145 226.5 -159.5 Q218 -174 200 -185.5 Q182 -197 151 -198 L152 -168 Q177 -166 190 -158 Q203 -150 203 -133 Q203 -126 198 -121 Q193 -116 185.5 -111.5 Q178 -107 170.5 -102 Q163 -97 157 -90 Q152 -86 151 -78 Q120 -76 99 -66 Q78 -56 64 -42.5 Q50 -29 43 -13.5 Q36 2 32.5 16 Q29 30 28.5 40 Q28 50 28 53 L28 455 Q28 459 30 480.5 Q32 502 45 525.5 Q58 549 86.5 568 Q115 587 169 587 Q221 587 249.5 568.5 Q278 550 291.5 526.5 Q305 503 307 482 Q309 461 309 455 L232 455 Q231 472 224 486 Q218 497 205.5 507 Q193 517 169 517 Q145 517 132.5 507 Q120 497 114 486 Q107 472 106 455 L106 53 Q107 35 114 22 Q120 10 132.5 0.5 Q145 -9 169 -9 Z " />
<glyph glyph-name="egrave" unicode="&#xe8;" horiz-adv-x="327" d="M292 1 L292 -77 L38 -77 L38 584 L292 584 L292 506 L115 506 L115 237 L209 237 L209 159 L115 159 L115 1 L292 1 L292 1 Z M189 614 L133 614 L54 708 L132 708 L189 614 Z " />
<glyph glyph-name="eacute" unicode="&#xe9;" horiz-adv-x="359" d="M298 1 L298 -77 L44 -77 L44 584 L298 584 L298 506 L122 506 L122 237 L216 237 L216 159 L122 159 L122 1 L298 1 L298 1 Z M274 708 L194 614 L138 614 L196 708 L274 708 Z " />
<glyph glyph-name="ecircumflex" unicode="&#xea;" horiz-adv-x="359" d="M300 1 L300 -77 L45 -77 L45 584 L300 584 L300 506 L123 506 L123 237 L217 237 L217 159 L123 159 L123 1 L300 1 Z M171 681 Q171 680 165.5 669.5 Q160 659 153 646 Q145 631 136 611 L73 611 L132 712 L211 712 L268 611 L205 611 L171 681 Z " />
<glyph glyph-name="edieresis" unicode="&#xeb;" horiz-adv-x="359" d="M312 1 L312 -77 L58 -77 L58 584 L312 584 L312 506 L136 506 L136 237 L230 237 L230 159 L136 159 L136 1 L312 1 L312 1 Z M106 625 L106 697 L174 697 L174 625 L106 625 L106 625 Z M191 625 L191 697 L259 697 L259 625 L191 625 L191 625 Z " />
<glyph glyph-name="igrave" unicode="&#xec;" horiz-adv-x="188" d="M136 584 L136 -77 L58 -77 L58 584 L136 584 Z M130 621 L74 621 L-5 715 L73 715 L130 621 Z " />
<glyph glyph-name="iacute" unicode="&#xed;" horiz-adv-x="176" d="M127 584 L127 -77 L49 -77 L49 584 L127 584 Z M191 715 L111 621 L55 621 L113 715 L191 715 Z " />
<glyph glyph-name="icircumflex" unicode="&#xee;" horiz-adv-x="214" d="M147 -77 L69 -77 L69 584 L147 584 L147 -77 Z M108 688 Q108 687 102.5 676.5 Q97 666 90 653 Q82 638 73 618 L11 618 L69 719 L149 719 L206 618 L143 617 L108 688 Z " />
<glyph glyph-name="idieresis" unicode="&#xef;" horiz-adv-x="212" d="M145 584 L67 584 L67 -77 L145 -77 L145 584 L145 584 Z M29 633 L29 704 L97 704 L97 633 L29 633 L29 633 Z M115 633 L115 704 L182 704 L182 633 L115 633 L115 633 Z " />
<glyph glyph-name="ograve" unicode="&#xf2;" horiz-adv-x="393" d="M199 588 Q234 588 258 579 Q282 570 297.5 556.5 Q313 543 321.5 527 Q330 511 334 496 Q338 481 338.5 470 Q339 459 339 455 L339 54 Q339 50 338.5 39 Q338 28 334 13 Q330 -2 321.5 -18 Q313 -34 297.5 -47.5 Q282 -61 258 -70 Q234 -79 199 -79 Q146 -79 117 -60 Q88 -41 75 -17.5 Q62 6 60 27.5 Q58 49 58 54 L58 455 Q58 460 60 481.5 Q62 503 75 526.5 Q88 550 117 569 Q146 588 199 588 Z M199 -9 Q223 -9 235.5 0.5 Q248 10 254 22 Q261 36 262 54 L262 455 Q261 472 254 486 Q248 498 235.5 508 Q223 518 199 518 Q175 518 162.5 508 Q150 498 144 486 Q137 472 136 455 L136 54 Q137 36 144 22 Q150 10 162.5 0.5 Q175 -9 199 -9 Z M197 609 L117 703 L195 703 L253 609 L197 609 Z " />
<glyph glyph-name="oacute" unicode="&#xf3;" horiz-adv-x="385" d="M194 588 Q229 588 253 579 Q277 570 292.5 556.5 Q308 543 316.5 527 Q325 511 329 496 Q333 481 333.5 470 Q334 459 334 455 L334 54 Q334 50 333.5 39 Q333 28 329 13 Q325 -2 316.5 -18 Q308 -34 292.5 -47.5 Q277 -61 253 -70 Q229 -79 194 -79 Q141 -79 112 -60 Q83 -41 70 -17.5 Q57 6 55 27.5 Q53 49 53 54 L53 455 Q53 460 55 481.5 Q57 503 70 526.5 Q83 550 112 569 Q141 588 194 588 Z M194 -9 Q218 -9 230.5 0.5 Q243 10 249 22 Q256 36 257 54 L257 455 Q256 472 249 486 Q243 498 230.5 508 Q218 518 194 518 Q170 518 157.5 508 Q145 498 139 486 Q132 472 131 455 L131 54 Q132 36 139 22 Q145 10 157.5 0.5 Q170 -9 194 -9 Z M220 609 L164 609 L222 703 L300 703 L220 609 Z " />
<glyph glyph-name="ocircumflex" unicode="&#xf4;" horiz-adv-x="399" d="M201 587 Q254 587 282.5 568.5 Q311 550 324.5 526.5 Q338 503 340 481.5 Q342 460 342 455 L342 53 Q342 47 340 26 Q338 5 324.5 -18.5 Q311 -42 282.5 -60.5 Q254 -79 201 -79 Q148 -79 119.5 -60 Q91 -41 78 -17.5 Q65 6 63 27 Q61 48 61 53 L61 455 Q61 459 63 480.5 Q65 502 78 525.5 Q91 549 119.5 568 Q148 587 201 587 Z M201 -10 Q225 -10 238 -0.5 Q251 9 257 21 Q264 35 264 53 L264 455 Q264 472 257 486 Q251 497 238 507 Q225 517 201 517 Q177 517 164.5 507 Q152 497 146 486 Q139 472 138 455 L138 53 Q139 35 146 21 Q152 9 164.5 -0.5 Q177 -10 201 -10 Z M201 675 Q201 674 195.5 663.5 Q190 653 183 640 Q175 625 166 605 L104 605 L162 706 L242 706 L298 605 L236 605 L201 675 Z " />
<glyph glyph-name="otilde" unicode="&#xf5;" horiz-adv-x="384" d="M192 588 Q227 588 251.5 579 Q276 570 291.5 556.5 Q307 543 315.5 527 Q324 511 328 496 Q332 481 332.5 470 Q333 459 333 455 L333 54 Q333 50 332.5 39 Q332 28 328 13 Q324 -2 315.5 -18 Q307 -34 291.5 -47.5 Q276 -61 251.5 -70 Q227 -79 192 -79 Q139 -79 110 -60 Q81 -41 68 -17.5 Q55 6 53 27.5 Q51 49 51 54 L51 455 Q51 460 53 481.5 Q55 503 68 526.5 Q81 550 110 569 Q139 588 192 588 Z M192 -9 Q216 -9 229 0.5 Q242 10 248 22 Q255 36 255 54 L255 455 Q255 472 248 486 Q242 498 229 508 Q216 518 192 518 Q168 518 155.5 508 Q143 498 137 486 Q130 472 129 455 L129 54 Q130 36 137 22 Q143 10 155.5 0.5 Q168 -9 192 -9 Z M160 635 Q144 634 132 623 Q126 618 120 612 L89 647 Q100 658 111 667 Q121 675 132.5 681 Q144 687 155 687 Q166 687 175 684 Q184 681 192.5 677 Q201 673 209 670 Q217 667 226 667 Q232 667 238.5 670.5 Q245 674 250 679 Q256 684 263 691 L295 658 Q283 646 272 637 Q262 629 250.5 622.5 Q239 616 229 616 Q217 616 208 619 Q199 622 191.5 625.5 Q184 629 176.5 632 Q169 635 160 635 Z " />
<glyph glyph-name="ntilde" unicode="&#xf1;" horiz-adv-x="389" d="M349 584 L349 -77 L271 -77 L122 357 L122 -77 L45 -77 L45 584 L122 584 L271 149 L271 584 L349 584 Z M164 633 Q148 631 136 621 Q129 616 124 610 L94 645 Q105 656 116 665 Q126 673 137 679 Q148 685 159 685 Q170 685 179 682 Q188 679 196.5 675 Q205 671 213.5 668.5 Q222 666 231 666 Q237 666 243.5 669.5 Q250 673 255 678 Q261 683 267 689 L300 657 Q288 646 277 636 Q267 628 255.5 621 Q244 614 234 614 Q222 614 213 617 Q204 620 196 623.5 Q188 627 180.5 630 Q173 633 164 633 Z " />
<glyph glyph-name="ugrave" unicode="&#xf9;" horiz-adv-x="376" d="M331 584 L332 54 Q332 50 331.5 39 Q331 28 327 13 Q323 -2 314.5 -18 Q306 -34 290.5 -47.5 Q275 -61 250.5 -70 Q226 -79 191 -79 Q138 -79 109 -60 Q80 -41 67 -17 Q54 7 52 28 Q50 49 50 54 L50 584 L128 584 L128 54 Q129 36 136 22 Q142 10 154.5 0.5 Q167 -9 191 -9 Q215 -9 227.5 0.5 Q240 10 246 22 Q253 36 254 54 L255 584 L331 584 Z M179 603 L99 697 L177 697 L235 603 L179 603 Z " />
<glyph glyph-name="uacute" unicode="&#xfa;" horiz-adv-x="386" d="M333 584 L333 54 Q333 50 332.5 39 Q332 28 328 13 Q324 -2 315.5 -18 Q307 -34 291.5 -47.5 Q276 -61 252 -70 Q228 -79 193 -79 Q140 -79 111 -60 Q82 -41 69 -17 Q56 7 54 28 Q52 49 52 54 L52 584 L130 584 L130 54 Q131 36 138 22 Q144 10 156.5 0.5 Q169 -9 193 -9 Q217 -9 229.5 0.5 Q242 10 248 22 Q255 36 256 54 L256 584 L333 584 Z M220 603 L164 603 L221 697 L300 697 L220 603 Z " />
<glyph glyph-name="ucircumflex" unicode="&#xfb;" horiz-adv-x="386" d="M335 584 L335 54 Q335 50 334.5 39 Q334 28 330 13 Q326 -2 317.5 -18 Q309 -34 293.5 -47.5 Q278 -61 253.5 -70 Q229 -79 194 -79 Q141 -79 112.5 -60 Q84 -41 71 -17.5 Q58 6 56 27.5 Q54 49 54 54 L54 584 L132 584 L131 54 Q132 36 139 22 Q145 10 157.5 0.5 Q170 -9 194 -9 Q218 -9 231 0.5 Q244 10 250 22 Q257 36 257 54 L258 584 L335 584 Z M158 600 L96 600 L154 700 L234 700 L290 599 L228 599 L193 669 L158 600 Z " />
<glyph glyph-name="udieresis" unicode="&#xfc;" horiz-adv-x="386" d="M255 584 L255 53 Q254 35 247 22 Q241 10 228.5 0.5 Q216 -9 192 -9 Q168 -9 155.5 0.5 Q143 10 137 22 Q130 35 129 53 L129 584 L51 584 L51 53 Q51 48 53 27 Q55 6 68 -17.5 Q81 -41 110 -60 Q139 -79 192 -79 Q245 -79 273.5 -60.5 Q302 -42 315.5 -18.5 Q329 5 331 26 Q333 47 333 53 L333 584 L255 584 Z M120 614 L120 685 L188 685 L188 614 L120 614 Z M206 614 L206 685 L274 685 L274 614 L206 614 Z " />
<glyph glyph-name="yacute" unicode="&#xfd;" horiz-adv-x="436" d="M324 584 L409 584 L259 197 L258 -77 L180 -77 L180 197 L30 584 L115 584 L219 301 L324 584 Z M310 693 L230 599 L174 599 L231 693 L310 693 Z " />
<glyph glyph-name="ydieresis" unicode="&#xff;" horiz-adv-x="436" d="M143 622 L143 693 L211 693 L211 622 L143 622 L143 622 Z M228 622 L228 693 L297 693 L297 622 L228 622 L228 622 Z M324 584 L220 302 L116 584 L31 584 L181 197 L181 -77 L259 -77 L259 197 L409 584 L324 584 L324 584 Z " />
<glyph glyph-name="oslash" unicode="&#xf8;" horiz-adv-x="371" d="M304 533 Q321 508 323.5 484 Q326 460 326 454 L326 54 Q326 50 325.5 39 Q325 28 321 13 Q317 -2 308.5 -18 Q300 -34 284.5 -47.5 Q269 -61 244.5 -70 Q220 -79 185 -79 Q161 -79 142 -74.5 Q123 -70 109 -62 L96 -101 L51 -101 L73 -34 Q62 -21 56.5 -6.5 Q51 8 48.5 20.5 Q46 33 45.5 42 Q45 51 45 54 L45 454 Q45 459 47 480.5 Q49 502 62 525.5 Q75 549 103.5 568 Q132 587 185 587 Q214 587 234.5 581 Q255 575 270 566 L284 609 L329 609 L304 533 Z M122 116 L243 482 Q238 495 224.5 506 Q211 517 185 517 Q161 517 148.5 507 Q136 497 130 485 Q123 471 122 454 L122 116 Z M185 -9 Q209 -9 222 0.5 Q235 10 241 22 Q248 36 248 54 L248 364 L134 16 Q141 6 153 -1.5 Q165 -9 185 -9 Z " />
<glyph glyph-name="odieresis" unicode="&#xf6;" horiz-adv-x="399" d="M202 587 Q149 587 120.5 568 Q92 549 79 525.5 Q66 502 64 480.5 Q62 459 62 455 L62 53 Q62 48 64 27 Q66 6 79 -17.5 Q92 -41 120.5 -60 Q149 -79 202 -79 Q255 -79 283.5 -60.5 Q312 -42 325.5 -18.5 Q339 5 341 26 Q343 47 343 53 L343 455 Q343 460 341 481.5 Q339 503 325.5 526.5 Q312 550 283.5 568.5 Q255 587 202 587 Z M202 -10 Q178 -10 165.5 -0.5 Q153 9 147 21 Q140 35 139 53 L139 455 Q140 472 147 486 Q153 497 165.5 507 Q178 517 202 517 Q226 517 239 507 Q252 497 258 486 Q265 472 266 455 L266 53 Q265 35 258 21 Q252 9 239 -0.5 Q226 -10 202 -10 Z M126 620 L126 691 L194 691 L194 620 L126 620 Z M211 620 L211 691 L279 691 L279 620 L211 620 Z " />
<glyph glyph-name="oe" unicode="&#x153;" horiz-adv-x="488" d="M453 1 L453 -77 L214 -77 Q197 -80 178 -80 Q125 -80 96.5 -61 Q68 -42 55 -18 Q42 6 40 27 Q38 48 38 53 L38 454 Q38 457 38.5 468 Q39 479 42.5 494 Q46 509 54.5 525 Q63 541 78.5 555 Q94 569 118 578 Q142 587 178 587 Q197 587 214 584 L453 584 L453 506 L277 506 L277 237 L371 237 L371 159 L277 159 L277 1 L453 1 Z M178 -10 Q190 -10 199 -7 L199 514 Q194 516 189 516 Q184 516 178 516 Q154 516 141.5 506 Q129 496 123 485 Q116 471 115 454 L115 53 Q116 35 123 21 Q129 9 141.5 -0.5 Q154 -10 178 -10 Z " />
<glyph glyph-name="scaron" unicode="&#x161;" horiz-adv-x="331" d="M230 455 Q230 472 223 486 Q217 498 204 508 Q191 518 167 518 Q143 518 130.5 508 Q118 498 112 486 Q105 472 104 455 L104 324 Q105 316 113 309 Q119 303 132 298 Q145 293 168 291 Q188 289 202.5 286 Q217 283 226 280 Q237 276 243 273 Q261 264 275 250 Q287 238 297.5 218.5 Q308 199 308 170 L308 54 Q308 50 307.5 39 Q307 28 303 13 Q299 -2 290.5 -18 Q282 -34 266.5 -47.5 Q251 -61 227 -70 Q203 -79 168 -79 Q114 -79 85.5 -60 Q57 -41 44 -17.5 Q31 6 29 27.5 Q27 49 27 54 L27 152 L104 152 L104 54 Q105 36 112 22 Q118 10 130.5 0.5 Q143 -9 167 -9 Q191 -9 204 0.5 Q217 10 223 22 Q230 36 230 54 L230 174 Q230 184 224 193 Q219 201 205.5 207 Q192 213 167 215 Q151 216 136.5 219.5 Q122 223 110 227 Q96 231 83 237 Q67 245 55 257 Q44 268 35.5 283 Q27 298 27 320 L27 455 Q27 458 27.5 469 Q28 480 32 495 Q36 510 44 526 Q52 542 68 556 Q84 570 108 579 Q132 588 168 588 Q203 588 227 579 Q251 570 266.5 556.5 Q282 543 290.5 527 Q299 511 303 496 Q307 481 307.5 470 Q308 459 308 455 L308 349 L230 349 L230 455 Z M128 601 L70 701 L133 701 Q142 681 150 666 Q153 659 156 653 Q159 647 161 642 Q164 636 167 631 L202 702 L265 702 L208 601 L128 601 Z " />
<glyph glyph-name="lslash" unicode="&#x142;" horiz-adv-x="340" d="M186 238 L186 1 L318 1 L318 -77 L186 -77 L108 -77 L108 178 L72 150 L16 161 L108 232 L108 584 L186 584 L186 292 L262 352 L318 341 L186 238 L186 238 Z " />
<glyph glyph-name="zcaron" unicode="&#x17e;" horiz-adv-x="441" d="M382 506 L134 0 L382 0 L382 -77 L39 -77 L39 0 L287 506 L39 506 L39 584 L382 584 L382 506 Z M172 597 L113 697 L176 697 Q185 677 193 662 Q196 655 199.5 649 Q203 643 205 638 Q208 632 211 627 L245 698 L308 698 L251 597 L172 597 Z " />
<glyph glyph-name="exclam" unicode="&#x21;" horiz-adv-x="176" d="M53 -7 L130 -7 L130 -77 L53 -77 L53 -7 Z M130 36 L53 36 L53 584 L130 584 L130 36 Z " />
<glyph glyph-name="quotedbl" unicode="&#x22;" horiz-adv-x="280" d="M171 584 L91 448 L36 448 L93 584 L171 584 L171 584 Z M255 584 L175 448 L119 448 L176 584 L255 584 L255 584 Z " />
<glyph glyph-name="numbersign" unicode="&#x23;" horiz-adv-x="451" d="M415 369 L415 291 L363 291 L338 166 L398 166 L398 88 L325 88 Q316 44 308.5 5 Q301 -34 293 -77 L215 -77 L245 88 L155 88 Q147 44 140 5.5 Q133 -33 125 -77 L46 -77 L76 88 L32 88 L32 166 L90 166 Q96 201 101.5 227.5 Q107 254 114 291 L51 291 L51 369 L129 369 L170 584 L249 584 L208 369 L297 369 Q307 420 318 476.5 Q329 533 338 584 L418 584 L377 369 L415 369 Z M170 166 L259 166 Q262 183 265 198 Q268 213 270.5 227.5 Q273 242 276 257.5 Q279 273 283 291 L193 291 L170 166 Z " />
<glyph glyph-name="quotedblright" unicode="&#x201d;" horiz-adv-x="267" d="M171 584 L91 448 L36 448 L93 584 L171 584 L171 584 Z M255 584 L175 448 L119 448 L176 584 L255 584 L255 584 Z " />
<glyph glyph-name="quotedblleft" unicode="&#x201c;" horiz-adv-x="269" d="M171 584 L91 448 L36 448 L93 584 L171 584 L171 584 Z M255 584 L175 448 L119 448 L176 584 L255 584 L255 584 Z " />
<glyph glyph-name="quoteright" unicode="&#x2019;" horiz-adv-x="169" d="M156 584 L76 448 L20 448 L77 584 L156 584 L156 584 Z " />
<glyph glyph-name="quoteleft" unicode="&#x2018;" horiz-adv-x="170" d="M156 584 L76 448 L20 448 L77 584 L156 584 L156 584 Z " />
</font>
</svg>
